<svg xmlns="http://www.w3.org/2000/svg" xmlns:xlink="http://www.w3.org/1999/xlink" width="1920" zoomAndPan="magnify" viewBox="0 0 1440 809.999993" height="1080" preserveAspectRatio="xMidYMid meet" version="1.0"><defs><clipPath id="c50f76951f"><path d="M 303.546875 200 L 1136.796875 200 L 1136.796875 810 L 303.546875 810 Z M 303.546875 200 " clip-rule="nonzero"/></clipPath></defs><g clip-path="url(#c50f76951f)"><path fill="#5670ef" d="M 334.136719 779.410156 L 1105.863281 779.410156 L 1105.863281 231.546875 L 334.136719 231.546875 Z M 1136.449219 809.992188 L 303.550781 809.992188 L 303.550781 200.960938 L 1136.449219 200.960938 L 1136.449219 809.992188 " fill-opacity="1" fill-rule="nonzero"/></g><path fill="#5670ef" d="M 533.160156 385.753906 C 522.035156 386.789062 513.253906 395.046875 507.027344 410.535156 C 501.203125 424.75 499.109375 439.980469 500.742188 456.308594 C 501.90625 467.929688 506.101562 477.09375 513.328125 483.753906 C 520.273438 490.074219 528.339844 492.78125 537.535156 491.878906 C 548.617188 490.789062 557.011719 482.53125 562.746094 467.0625 C 567.855469 453.226562 569.585938 438.089844 567.914062 421.597656 C 566.511719 407.171875 563.046875 397.257812 557.597656 391.894531 C 552.382812 386.742188 544.257812 384.683594 533.160156 385.753906 Z M 539.402344 510.429688 C 526.546875 511.667969 515.164062 507.621094 505.21875 498.242188 C 494.648438 488.296875 488.523438 474.765625 486.789062 457.648438 C 484.730469 436.746094 487.507812 417.328125 495.125 399.320312 C 503.652344 379.394531 515.734375 368.675781 531.324219 367.179688 C 546.320312 365.746094 557.878906 369.132812 566.09375 377.394531 C 574.605469 385.9375 579.875 400.226562 581.863281 420.253906 C 583.953125 441.132812 581.5625 460.367188 574.664062 477.992188 C 566.703125 498.089844 554.980469 508.960938 539.402344 510.429688 " fill-opacity="1" fill-rule="nonzero"/><path fill="#5670ef" d="M 459.804688 474.050781 C 447.214844 499.433594 421.511719 499.75 409.957031 472.691406 C 405.816406 462.96875 404.773438 450.84375 404.621094 439.011719 C 404.773438 427.199219 405.816406 415.074219 409.957031 405.363281 C 421.511719 378.246094 447.214844 378.570312 459.804688 403.976562 C 464.496094 413.445312 478.070312 405.085938 473.425781 395.675781 C 460.714844 370.074219 433.535156 356.425781 410.417969 378.261719 C 394.140625 393.703125 389.957031 414.523438 389.121094 436.023438 L 388.914062 436.023438 C 388.941406 437.039062 389 438.027344 389 439.011719 C 389 440.015625 388.941406 441.015625 388.914062 442 L 389.121094 442 C 389.957031 463.507812 394.140625 484.320312 410.417969 499.734375 C 433.535156 521.570312 460.714844 507.964844 473.425781 482.382812 C 478.070312 472.925781 464.496094 464.59375 459.804688 474.050781 " fill-opacity="1" fill-rule="nonzero"/><path fill="#5670ef" d="M 938.671875 474.050781 C 926.097656 499.433594 900.378906 499.753906 888.820312 472.691406 C 884.667969 462.96875 883.65625 450.839844 883.503906 439.011719 C 883.65625 427.195312 884.667969 415.074219 888.820312 405.367188 C 900.378906 378.246094 926.097656 378.574219 938.671875 403.976562 C 943.359375 413.441406 956.9375 405.085938 952.292969 395.671875 C 939.59375 370.078125 912.386719 356.421875 889.265625 378.261719 C 872.988281 393.699219 868.835938 414.527344 867.960938 436.023438 L 867.761719 436.023438 C 867.789062 437.035156 867.878906 438.027344 867.914062 439.011719 C 867.878906 440.015625 867.789062 441.011719 867.761719 442 L 867.960938 442 C 868.835938 463.507812 872.988281 484.320312 889.265625 499.738281 C 912.386719 521.570312 939.59375 507.964844 952.292969 482.382812 C 956.9375 472.929688 943.359375 464.59375 938.671875 474.050781 " fill-opacity="1" fill-rule="nonzero"/><path fill="#5670ef" d="M 602.875 375.363281 C 602.875 417.789062 604.011719 460.574219 601.023438 502.914062 C 600.320312 513.238281 616.691406 513.175781 617.40625 502.914062 C 620.347656 460.574219 619.226562 417.789062 619.226562 375.363281 C 619.226562 365.027344 602.875 365.027344 602.875 375.363281 " fill-opacity="1" fill-rule="nonzero"/><path fill="#5670ef" d="M 666.507812 375.363281 C 666.460938 417.789062 667.644531 460.574219 664.6875 502.914062 C 663.9375 513.238281 680.339844 513.175781 681.042969 502.914062 C 684 460.574219 682.847656 417.789062 682.847656 375.363281 C 682.847656 365.027344 666.507812 365.027344 666.507812 375.363281 " fill-opacity="1" fill-rule="nonzero"/><path fill="#5670ef" d="M 606.296875 390.085938 C 623.753906 428.128906 642.449219 466.058594 657.203125 505.199219 C 660.832031 514.789062 676.648438 510.667969 672.992188 500.929688 C 657.726562 460.457031 635.59375 414.699219 617.570312 375.363281 C 613.226562 365.953125 601.980469 380.707031 606.296875 390.085938 " fill-opacity="1" fill-rule="nonzero"/><path fill="#5670ef" d="M 732.667969 376.828125 C 732.667969 418.808594 733.804688 461.113281 730.875 503.007812 C 730.160156 513.222656 746.316406 513.175781 747.046875 503.007812 C 749.988281 461.113281 748.84375 418.808594 748.84375 376.828125 C 748.84375 366.613281 732.667969 366.613281 732.667969 376.828125 " fill-opacity="1" fill-rule="nonzero"/><path fill="#5670ef" d="M 704.800781 384.328125 C 727.996094 384.328125 751.824219 383.257812 774.902344 386.082031 C 785.285156 387.371094 785.148438 371.453125 774.902344 370.210938 C 751.824219 367.386719 727.996094 368.429688 704.800781 368.429688 C 694.363281 368.429688 694.363281 384.328125 704.800781 384.328125 " fill-opacity="1" fill-rule="nonzero"/><path fill="#5670ef" d="M 1001.113281 376.824219 C 1001.113281 418.804688 1002.265625 461.117188 999.332031 503.003906 C 998.621094 513.21875 1014.824219 513.175781 1015.523438 503.003906 C 1018.453125 461.117188 1017.316406 418.804688 1017.316406 376.824219 C 1017.316406 366.609375 1001.113281 366.609375 1001.113281 376.824219 " fill-opacity="1" fill-rule="nonzero"/><path fill="#5670ef" d="M 973.261719 384.328125 C 996.4375 384.328125 1020.300781 383.257812 1043.390625 386.082031 C 1053.722656 387.371094 1053.605469 371.449219 1043.390625 370.214844 C 1020.300781 367.386719 996.4375 368.433594 973.261719 368.433594 C 962.804688 368.433594 962.804688 384.328125 973.261719 384.328125 " fill-opacity="1" fill-rule="nonzero"/><path fill="#5670ef" d="M 809.835938 370.675781 C 799.511719 414.042969 790.300781 458.054688 776.976562 500.574219 C 773.726562 510.964844 790.492188 514.9375 793.691406 504.632812 C 807.039062 462.101562 816.238281 418.105469 826.5625 374.734375 C 829.066406 364.191406 812.328125 360.132812 809.835938 370.675781 " fill-opacity="1" fill-rule="nonzero"/><path fill="#5670ef" d="M 829.503906 370.675781 C 839.808594 414.042969 849.019531 458.054688 862.359375 500.574219 C 865.613281 510.964844 848.828125 514.9375 845.617188 504.632812 C 832.339844 462.101562 823.082031 418.105469 812.777344 374.734375 C 810.265625 364.191406 826.992188 360.132812 829.503906 370.675781 " fill-opacity="1" fill-rule="nonzero"/><path fill="#5670ef" d="M 801.15625 464.21875 C 812.519531 464.21875 823.136719 462.96875 834.402344 465.773438 C 841.765625 467.582031 844.898438 451.648438 837.492188 449.828125 C 825.128906 446.75 813.644531 447.675781 801.15625 447.675781 C 793.628906 447.675781 793.628906 464.21875 801.15625 464.21875 " fill-opacity="1" fill-rule="nonzero"/><path fill="#5670ef" d="M 820.898438 581.289062 C 806.515625 567.476562 779.382812 556.484375 760.667969 572.152344 C 746.03125 584.441406 737.175781 610.730469 753.351562 624.808594 C 771.441406 640.566406 802.230469 642.242188 803.546875 668.460938 C 804.175781 680.214844 796.082031 690.234375 780.90625 691.523438 C 764.058594 692.957031 756.683594 680.558594 753.964844 669.449219 C 751.394531 659.117188 732.609375 663.503906 735.121094 673.808594 C 739.984375 693.5625 754.980469 710.875 780.90625 710.964844 C 803.355469 711.011719 819.976562 693.34375 822.425781 675.992188 C 825.839844 651.914062 811.726562 636.039062 787.65625 624.644531 C 775.289062 618.761719 764.324219 615.488281 764.941406 602.121094 C 766.105469 577.425781 791.132812 577.542969 807.121094 592.867188 C 815.40625 600.839844 829.160156 589.222656 820.898438 581.289062 " fill-opacity="1" fill-rule="nonzero"/><path fill="#5670ef" d="M 667.527344 710.964844 C 632.308594 710.964844 616.570312 681.273438 616.570312 637.101562 C 616.570312 616.65625 618.273438 574.035156 618.289062 573.613281 C 618.484375 569.300781 623.199219 565.894531 628.953125 565.894531 C 629.054688 565.894531 629.175781 565.894531 629.292969 565.894531 C 635.148438 566.03125 639.808594 569.6875 639.625 574.109375 C 639.625 574.527344 637.925781 616.910156 637.925781 637.101562 C 637.925781 673.359375 644.523438 688.921875 667.527344 688.921875 C 690.316406 688.921875 697.121094 673.359375 697.121094 637.101562 C 697.121094 606.664062 696.675781 575.304688 696.65625 574.988281 C 696.621094 570.617188 701.351562 567 707.21875 566.972656 C 707.265625 566.972656 707.292969 566.972656 707.339844 566.972656 C 713.195312 566.972656 717.957031 570.464844 718.035156 574.839844 C 718.035156 575.15625 718.449219 606.605469 718.449219 637.101562 C 718.449219 681.273438 705.5625 710.964844 667.527344 710.964844 " fill-opacity="1" fill-rule="nonzero"/><path fill="#5670ef" d="M 764.03125 51.171875 C 764.03125 79.394531 741.140625 102.335938 712.867188 102.335938 C 684.640625 102.335938 661.730469 79.394531 661.730469 51.171875 C 661.730469 22.910156 684.640625 0.00390625 712.867188 0.00390625 C 741.140625 0.00390625 764.03125 22.910156 764.03125 51.171875 " fill-opacity="1" fill-rule="nonzero"/><path fill="#5670ef" d="M 596.5 222.542969 C 581.398438 222.542969 569.109375 234.816406 569.109375 249.917969 C 569.109375 265.027344 581.398438 277.320312 596.5 277.320312 C 611.59375 277.320312 623.882812 265.027344 623.882812 249.917969 C 623.882812 234.816406 611.59375 222.542969 596.5 222.542969 Z M 596.5 292.613281 C 572.960938 292.613281 553.816406 273.453125 553.816406 249.917969 C 553.816406 226.390625 572.960938 207.246094 596.5 207.246094 C 620.035156 207.246094 639.179688 226.390625 639.179688 249.917969 C 639.179688 273.453125 620.035156 292.613281 596.5 292.613281 " fill-opacity="1" fill-rule="nonzero"/><path fill="#5670ef" d="M 618.417969 257.847656 C 611.300781 271.539062 595.585938 277.542969 583.371094 271.179688 C 571.230469 264.785156 567.105469 248.542969 574.304688 234.816406 L 677.859375 36.324219 C 685.027344 22.558594 700.664062 16.628906 712.894531 22.976562 C 725.078125 29.335938 729.171875 45.613281 721.992188 59.355469 L 618.417969 257.847656 " fill-opacity="1" fill-rule="nonzero"/><path fill="#5670ef" d="M 829.261719 222.542969 C 814.164062 222.542969 801.875 234.816406 801.875 249.917969 C 801.875 265.027344 814.164062 277.320312 829.261719 277.320312 C 844.363281 277.320312 856.652344 265.027344 856.652344 249.917969 C 856.652344 234.816406 844.363281 222.542969 829.261719 222.542969 Z M 829.261719 292.613281 C 805.722656 292.613281 786.582031 273.453125 786.582031 249.917969 C 786.582031 226.390625 805.722656 207.246094 829.261719 207.246094 C 852.804688 207.246094 871.945312 226.390625 871.945312 249.917969 C 871.945312 273.453125 852.804688 292.613281 829.261719 292.613281 " fill-opacity="1" fill-rule="nonzero"/><path fill="#5670ef" d="M 807.308594 257.847656 C 814.464844 271.539062 830.191406 277.542969 842.410156 271.179688 C 854.558594 264.785156 858.652344 248.542969 851.488281 234.816406 L 747.902344 36.324219 C 740.75 22.558594 725.078125 16.628906 712.867188 22.976562 C 700.675781 29.335938 696.582031 45.613281 703.789062 59.355469 L 807.308594 257.847656 " fill-opacity="1" fill-rule="nonzero"/></svg>