<svg xmlns="http://www.w3.org/2000/svg" xmlns:xlink="http://www.w3.org/1999/xlink" width="1920" zoomAndPan="magnify" viewBox="0 0 1440 809.999993" height="1080" preserveAspectRatio="xMidYMid meet" version="1.0"><path fill="#5670ef" d="M 795.578125 538.589844 L 795.578125 522.644531 C 795.578125 515.605469 795.367188 508.570312 794.957031 501.546875 C 793.910156 487.132812 793.378906 472.6875 793.378906 458.238281 C 793.378906 444.375 793.867188 430.507812 794.835938 416.671875 C 796.6875 390.324219 798.65625 359.335938 798.40625 349.507812 C 798.367188 347.863281 796.867188 345.871094 793.472656 345.871094 C 789 345.871094 786.441406 348.425781 785.175781 350.421875 C 780.699219 357.464844 765.382812 383.972656 765.382812 446.964844 C 765.378906 452.148438 771.671875 453.25 774.003906 455.066406 C 775.570312 456.28125 777.007812 459.703125 776.847656 462.464844 L 774.566406 501.546875 C 774.15625 508.570312 773.949219 515.605469 773.949219 522.644531 L 773.949219 548.707031 C 773.464844 548.890625 772.980469 549.078125 772.492188 549.253906 C 759.542969 553.96875 745.980469 556.902344 732.164062 557.984375 L 732.164062 522.285156 C 732.164062 515.25 731.960938 508.214844 731.546875 501.191406 L 728.070312 441.621094 C 727.84375 437.742188 728.714844 433.875 730.585938 430.464844 C 730.585938 430.464844 739.308594 420.71875 739.84375 413.609375 C 740.917969 392.09375 736.742188 346.835938 734.644531 346.230469 L 732.765625 346.230469 C 730.230469 346.667969 734.960938 401.011719 730.699219 401.011719 L 729.375 401.011719 C 725.824219 401.011719 729.191406 345.988281 726.347656 346.230469 L 724.328125 346.230469 C 722.933594 346.230469 724.929688 401.011719 722.335938 401.011719 L 720.371094 401.011719 C 716.9375 401.011719 719.773438 346.230469 718.371094 346.230469 L 716.359375 346.230469 C 713.511719 345.988281 716.878906 401.011719 713.324219 401.011719 L 712.007812 401.011719 C 707.746094 401.011719 712.472656 346.667969 709.9375 346.230469 L 708.054688 346.230469 C 705.957031 346.835938 701.785156 392.09375 702.859375 413.609375 C 703.183594 417.183594 705.496094 421.394531 707.726562 424.71875 C 709.960938 428.039062 712.113281 430.464844 712.113281 430.464844 C 713.988281 433.875 714.863281 437.742188 714.636719 441.621094 L 711.152344 501.191406 C 710.746094 508.214844 710.539062 515.25 710.539062 522.285156 L 710.539062 558.175781 C 696.4375 557.320312 682.570312 554.539062 669.3125 549.898438 C 668.84375 549.734375 668.375 549.5625 667.90625 549.390625 L 667.90625 522.390625 C 667.90625 515.351562 667.699219 508.3125 667.292969 501.292969 L 663.808594 449.40625 C 663.582031 445.523438 664.457031 441.65625 666.328125 438.246094 L 673.105469 428.550781 C 673.105469 428.550781 688.746094 410.128906 688.746094 392.921875 C 688.746094 367.082031 674.574219 346.128906 657.089844 346.128906 C 639.609375 346.128906 625.4375 367.082031 625.4375 392.921875 C 625.4375 410.128906 641.078125 428.550781 641.078125 428.550781 L 647.859375 438.246094 C 649.726562 441.65625 650.601562 445.523438 650.375 449.40625 L 646.894531 501.292969 C 646.484375 508.3125 646.28125 515.351562 646.28125 522.390625 L 646.28125 539.628906 C 622.886719 526.792969 603.171875 508.039062 589.167969 485.261719 C 574.359375 461.179688 566.53125 433.421875 566.53125 405 C 566.53125 364.007812 582.496094 325.46875 611.484375 296.484375 C 640.46875 267.496094 679.007812 251.535156 719.996094 251.535156 C 760.992188 251.535156 799.53125 267.496094 828.515625 296.484375 C 857.503906 325.46875 873.46875 364.007812 873.46875 405 C 873.46875 460.359375 843.683594 511.332031 795.578125 538.589844 Z M 869.265625 341.941406 C 861.109375 322.648438 849.429688 305.324219 834.550781 290.449219 C 819.675781 275.574219 802.347656 263.894531 783.058594 255.734375 C 763.082031 247.285156 741.867188 243.003906 719.996094 243.003906 C 698.132812 243.003906 676.914062 247.285156 656.941406 255.734375 C 637.648438 263.894531 620.324219 275.574219 605.449219 290.449219 C 590.570312 305.324219 578.890625 322.648438 570.730469 341.941406 C 562.285156 361.914062 558 383.132812 558 405 C 558 435.003906 566.265625 464.300781 581.898438 489.730469 C 597.097656 514.449219 618.667969 534.6875 644.28125 548.25 C 651.425781 552.035156 658.902344 555.300781 666.496094 557.953125 C 680.578125 562.882812 695.3125 565.828125 710.285156 566.707031 C 713.476562 566.898438 716.746094 566.996094 719.996094 566.996094 C 724.140625 566.996094 728.34375 566.839844 732.488281 566.519531 C 747.191406 565.402344 761.628906 562.289062 775.410156 557.273438 C 783.03125 554.5 790.507812 551.117188 797.625 547.222656 C 849.667969 518.757812 882 464.265625 882 405 C 882 383.132812 877.714844 361.914062 869.265625 341.941406 " fill-opacity="1" fill-rule="nonzero"/></svg>