<svg xmlns="http://www.w3.org/2000/svg" xmlns:xlink="http://www.w3.org/1999/xlink" width="300" zoomAndPan="magnify" viewBox="0 0 224.87999 225" height="300" preserveAspectRatio="xMidYMid meet" version="1.0"><defs><clipPath id="b56af64138"><path d="M 86 197 L 139 197 L 139 211.167969 L 86 211.167969 Z M 86 197 " clip-rule="nonzero"/></clipPath><clipPath id="867573dd0c"><path d="M 51 14.023438 L 118 14.023438 L 118 83 L 51 83 Z M 51 14.023438 " clip-rule="nonzero"/></clipPath><clipPath id="2fd5a89509"><path d="M 8.644531 58 L 72 58 L 72 121 L 8.644531 121 Z M 8.644531 58 " clip-rule="nonzero"/></clipPath><clipPath id="21673cb782"><path d="M 155 59 L 216.285156 59 L 216.285156 121 L 155 121 Z M 155 59 " clip-rule="nonzero"/></clipPath></defs><g clip-path="url(#b56af64138)"><path fill="#bdbcbd" d="M 112.492188 211.203125 C 98.402344 211.203125 86.980469 208.136719 86.980469 204.355469 C 86.980469 200.570312 98.402344 197.503906 112.492188 197.503906 C 126.582031 197.503906 138.003906 200.570312 138.003906 204.355469 C 138.003906 208.136719 126.582031 211.203125 112.492188 211.203125 " fill-opacity="1" fill-rule="nonzero"/></g><path fill="#54c5bb" d="M 145.878906 82.515625 C 132.582031 82.515625 121.171875 74.46875 116.234375 62.972656 C 118.351562 58.519531 119.535156 53.539062 119.535156 48.277344 C 119.535156 43.808594 118.675781 39.535156 117.121094 35.621094 C 122.449219 25.140625 133.324219 17.964844 145.878906 17.964844 C 163.691406 17.964844 178.132812 32.417969 178.132812 50.238281 C 178.132812 54.242188 177.402344 58.074219 176.074219 61.609375 C 167.25 64.636719 160.261719 71.628906 157.234375 80.460938 C 153.703125 81.789062 149.875 82.515625 145.878906 82.515625 " fill-opacity="1" fill-rule="nonzero"/><path fill="#ffffff" d="M 133.179688 47.59375 C 135.042969 47.59375 136.550781 49.101562 136.550781 50.96875 C 136.550781 52.832031 135.042969 54.34375 133.179688 54.34375 C 131.316406 54.34375 129.808594 52.832031 129.808594 50.96875 C 129.808594 49.101562 131.316406 47.59375 133.179688 47.59375 " fill-opacity="1" fill-rule="nonzero"/><path fill="#ffffff" d="M 147.71875 49.949219 C 148.859375 49.820312 149.574219 50.3125 149.574219 53.527344 C 149.574219 55.554688 148.960938 55.679688 148.007812 55.710938 C 144.765625 55.816406 139.707031 55.710938 139.128906 55.710938 C 137.800781 55.710938 136.761719 54.21875 136.761719 51.695312 C 136.761719 48.742188 140.003906 49.046875 140.160156 49.046875 C 140.78125 49.046875 146.207031 50.125 147.71875 49.949219 " fill-opacity="1" fill-rule="nonzero"/><path fill="#ffffff" d="M 126.773438 62.851562 C 126.773438 63.617188 126.148438 64.242188 125.378906 64.242188 C 124.609375 64.242188 123.984375 63.617188 123.984375 62.851562 L 123.984375 43.8125 C 123.984375 43.042969 124.609375 42.417969 125.378906 42.417969 C 126.148438 42.417969 126.773438 43.042969 126.773438 43.8125 L 126.773438 62.851562 " fill-opacity="1" fill-rule="nonzero"/><path fill="#ffffff" d="M 168.757812 62.851562 C 168.757812 63.617188 168.136719 64.242188 167.367188 64.242188 C 166.59375 64.242188 165.972656 63.617188 165.972656 62.851562 L 165.972656 52.695312 C 165.972656 51.925781 166.59375 51.300781 167.367188 51.300781 C 168.136719 51.300781 168.757812 51.925781 168.757812 52.695312 L 168.757812 62.851562 " fill-opacity="1" fill-rule="nonzero"/><path fill="#ffffff" d="M 168.273438 57.9375 C 168.273438 58.777344 167.613281 59.453125 166.796875 59.453125 L 126.371094 59.453125 C 125.554688 59.453125 124.894531 58.777344 124.894531 57.9375 C 124.894531 57.101562 125.554688 56.421875 126.371094 56.421875 L 166.796875 56.421875 C 167.613281 56.421875 168.273438 57.101562 168.273438 57.9375 " fill-opacity="1" fill-rule="nonzero"/><path fill="#ffffff" d="M 135.433594 54.574219 C 135.433594 55.261719 134.960938 55.816406 134.375 55.816406 L 128.742188 55.816406 C 128.15625 55.816406 127.679688 55.261719 127.679688 54.574219 C 127.679688 53.886719 128.15625 53.328125 128.742188 53.328125 L 134.375 53.328125 C 134.960938 53.328125 135.433594 53.886719 135.433594 54.574219 " fill-opacity="1" fill-rule="nonzero"/><path fill="#ffffff" d="M 163.425781 51.300781 C 163.425781 49.144531 143.132812 48.601562 143.132812 48.601562 L 143.132812 60.789062 L 163.425781 60.789062 C 163.425781 60.789062 163.425781 53.453125 163.425781 51.300781 " fill-opacity="1" fill-rule="nonzero"/><path fill="#ffffff" d="M 141.859375 54.28125 C 140.746094 54.28125 139.574219 54.058594 138.371094 53.523438 C 137.542969 53.152344 137.175781 52.1875 137.542969 51.359375 C 137.910156 50.535156 138.878906 50.164062 139.703125 50.535156 C 143.664062 52.300781 146.832031 48.621094 146.964844 48.460938 C 147.542969 47.773438 148.574219 47.679688 149.265625 48.257812 C 149.957031 48.835938 150.054688 49.859375 149.476562 50.558594 C 148.222656 52.074219 145.351562 54.28125 141.859375 54.28125 " fill-opacity="1" fill-rule="nonzero"/><path fill="#ffffff" d="M 135.902344 43.195312 L 137.167969 38.457031 L 134.738281 39.296875 L 134.503906 38.617188 L 138.296875 37.3125 L 137.035156 42.046875 L 139.597656 41.164062 L 139.832031 41.839844 L 135.902344 43.195312 " fill-opacity="1" fill-rule="nonzero"/><path fill="#ffffff" d="M 141.191406 37.859375 L 143.328125 29.839844 L 139.214844 31.257812 L 138.820312 30.117188 L 145.242188 27.902344 L 143.101562 35.917969 L 147.449219 34.417969 L 147.839844 35.566406 L 141.191406 37.859375 " fill-opacity="1" fill-rule="nonzero"/><path fill="#ffffff" d="M 150.878906 36.09375 L 153.578125 25.957031 L 148.382812 27.75 L 147.882812 26.300781 L 155.996094 23.5 L 153.296875 33.636719 L 158.789062 31.742188 L 159.289062 33.191406 L 150.878906 36.09375 " fill-opacity="1" fill-rule="nonzero"/><g clip-path="url(#867573dd0c)"><path fill="#c13331" d="M 85.324219 82.515625 C 79.574219 82.515625 74.160156 81.097656 69.40625 78.59375 C 66.601562 70.929688 60.894531 64.671875 53.613281 61.15625 C 52 57.179688 51.113281 52.835938 51.113281 48.277344 C 51.113281 29.371094 66.429688 14.042969 85.324219 14.042969 C 99.75 14.042969 112.089844 22.976562 117.121094 35.621094 C 114.886719 40.007812 113.628906 44.976562 113.628906 50.238281 C 113.628906 54.761719 114.558594 59.066406 116.234375 62.972656 C 110.742188 74.527344 98.964844 82.515625 85.324219 82.515625 " fill-opacity="1" fill-rule="nonzero"/></g><path fill="#5d3b3a" d="M 116.234375 62.972656 C 114.558594 59.066406 113.628906 54.761719 113.628906 50.238281 C 113.628906 44.976562 114.886719 40.007812 117.121094 35.621094 C 118.675781 39.535156 119.535156 43.808594 119.535156 48.277344 C 119.535156 53.539062 118.351562 58.519531 116.234375 62.972656 " fill-opacity="1" fill-rule="nonzero"/><path fill="#ffffff" d="M 107.117188 45.949219 C 107.117188 56.695312 96.648438 77.566406 85.898438 70.644531 C 77.390625 77.753906 64.683594 56.695312 64.683594 45.949219 C 64.683594 35.203125 68.980469 28.550781 85.898438 31.730469 C 103.003906 28.175781 107.117188 35.203125 107.117188 45.949219 " fill-opacity="1" fill-rule="nonzero"/><path fill="#ffffff" d="M 86.175781 32.402344 L 85.289062 32.402344 C 85.289062 32.402344 87.0625 27.394531 86.632812 23.605469 C 86.457031 22.578125 88.605469 21.921875 88.886719 22.484375 C 88.792969 27.582031 86.175781 32.402344 86.175781 32.402344 " fill-opacity="1" fill-rule="nonzero"/><path fill="#ffffff" d="M 96.828125 24.144531 C 96.828125 24.144531 95.859375 27.519531 93.253906 28.796875 C 90.644531 30.074219 87.390625 28.777344 87.390625 28.777344 C 87.390625 28.777344 88.359375 25.40625 90.964844 24.125 C 93.570312 22.847656 96.828125 24.144531 96.828125 24.144531 " fill-opacity="1" fill-rule="nonzero"/><path fill="#ffffff" d="M 86.835938 29.210938 C 86.835938 29.210938 84.089844 29.101562 82.628906 27.355469 C 81.167969 25.609375 81.546875 22.882812 81.546875 22.882812 C 81.546875 22.882812 84.292969 22.992188 85.753906 24.738281 C 87.214844 26.484375 86.835938 29.210938 86.835938 29.210938 " fill-opacity="1" fill-rule="nonzero"/><g clip-path="url(#2fd5a89509)"><path fill="#f68712" d="M 40.039062 120.625 C 22.777344 120.625 8.78125 106.621094 8.78125 89.34375 C 8.78125 72.066406 22.777344 58.0625 40.039062 58.0625 C 44.90625 58.0625 49.507812 59.171875 53.613281 61.15625 C 56.660156 68.664062 62.292969 74.84375 69.40625 78.59375 C 70.632812 81.941406 71.300781 85.566406 71.300781 89.34375 C 71.300781 106.621094 57.304688 120.625 40.039062 120.625 " fill-opacity="1" fill-rule="nonzero"/></g><path fill="#c12a23" d="M 69.40625 78.59375 C 62.292969 74.84375 56.660156 68.664062 53.613281 61.15625 C 60.894531 64.671875 66.601562 70.929688 69.40625 78.59375 " fill-opacity="1" fill-rule="nonzero"/><path fill="#ffffff" d="M 25.707031 86.570312 C 21.417969 86.570312 17.925781 90.0625 17.925781 94.359375 C 17.925781 98.652344 21.417969 102.148438 25.707031 102.148438 C 30 102.148438 33.488281 98.652344 33.488281 94.359375 C 33.488281 90.0625 30 86.570312 25.707031 86.570312 Z M 25.707031 103.625 C 20.605469 103.625 16.453125 99.46875 16.453125 94.359375 C 16.453125 89.25 20.605469 85.09375 25.707031 85.09375 C 30.8125 85.09375 34.964844 89.25 34.964844 94.359375 C 34.964844 99.46875 30.8125 103.625 25.707031 103.625 " fill-opacity="1" fill-rule="nonzero"/><path fill="#ffffff" d="M 25.707031 87.433594 C 21.894531 87.433594 18.789062 90.542969 18.789062 94.359375 C 18.789062 98.175781 21.894531 101.285156 25.707031 101.285156 C 29.523438 101.285156 32.628906 98.175781 32.628906 94.359375 C 32.628906 90.542969 29.523438 87.433594 25.707031 87.433594 Z M 25.707031 101.695312 C 21.667969 101.695312 18.378906 98.40625 18.378906 94.359375 C 18.378906 90.3125 21.667969 87.023438 25.707031 87.023438 C 29.75 87.023438 33.039062 90.3125 33.039062 94.359375 C 33.039062 98.40625 29.75 101.695312 25.707031 101.695312 " fill-opacity="1" fill-rule="nonzero"/><path fill="#ffffff" d="M 27.265625 94.359375 C 27.265625 95.21875 26.566406 95.914062 25.707031 95.914062 C 24.847656 95.914062 24.152344 95.21875 24.152344 94.359375 C 24.152344 93.5 24.847656 92.804688 25.707031 92.804688 C 26.566406 92.804688 27.265625 93.5 27.265625 94.359375 " fill-opacity="1" fill-rule="nonzero"/><path fill="#ffffff" d="M 41.867188 95.207031 C 41.867188 96.457031 40.855469 97.472656 39.605469 97.472656 C 38.355469 97.472656 37.34375 96.457031 37.34375 95.207031 C 37.34375 93.957031 38.355469 92.945312 39.605469 92.945312 C 40.855469 92.945312 41.867188 93.957031 41.867188 95.207031 " fill-opacity="1" fill-rule="nonzero"/><path fill="#ffffff" d="M 56.183594 85.75 C 51.890625 85.75 48.398438 89.242188 48.398438 93.539062 C 48.398438 97.832031 51.890625 101.328125 56.183594 101.328125 C 60.472656 101.328125 63.964844 97.832031 63.964844 93.539062 C 63.964844 89.242188 60.472656 85.75 56.183594 85.75 Z M 56.183594 102.804688 C 51.078125 102.804688 46.925781 98.648438 46.925781 93.539062 C 46.925781 88.433594 51.078125 84.277344 56.183594 84.277344 C 61.285156 84.277344 65.4375 88.433594 65.4375 93.539062 C 65.4375 98.648438 61.285156 102.804688 56.183594 102.804688 " fill-opacity="1" fill-rule="nonzero"/><path fill="#ffffff" d="M 56.183594 86.613281 C 52.367188 86.613281 49.261719 89.722656 49.261719 93.539062 C 49.261719 97.359375 52.367188 100.464844 56.183594 100.464844 C 60 100.464844 63.101562 97.359375 63.101562 93.539062 C 63.101562 89.722656 60 86.613281 56.183594 86.613281 Z M 56.183594 100.875 C 52.140625 100.875 48.851562 97.585938 48.851562 93.539062 C 48.851562 89.496094 52.140625 86.203125 56.183594 86.203125 C 60.222656 86.203125 63.511719 89.496094 63.511719 93.539062 C 63.511719 97.585938 60.222656 100.875 56.183594 100.875 " fill-opacity="1" fill-rule="nonzero"/><path fill="#ffffff" d="M 57.738281 93.539062 C 57.738281 94.398438 57.042969 95.09375 56.183594 95.09375 C 55.324219 95.09375 54.625 94.398438 54.625 93.539062 C 54.625 92.679688 55.324219 91.980469 56.183594 91.980469 C 57.042969 91.980469 57.738281 92.679688 57.738281 93.539062 " fill-opacity="1" fill-rule="nonzero"/><path fill="#ffffff" d="M 25.902344 94.511719 L 25.515625 94.207031 L 35.285156 81.746094 L 35.671875 82.050781 L 25.902344 94.511719 " fill-opacity="1" fill-rule="nonzero"/><path fill="#ffffff" d="M 39.371094 95.28125 L 32.597656 73.445312 L 33.066406 73.300781 L 39.839844 95.136719 L 39.371094 95.28125 " fill-opacity="1" fill-rule="nonzero"/><path fill="#ffffff" d="M 35.507812 82.140625 L 35.449219 81.652344 L 53.050781 79.523438 L 53.113281 80.011719 L 35.507812 82.140625 " fill-opacity="1" fill-rule="nonzero"/><path fill="#ffffff" d="M 39.777344 95.765625 L 39.433594 95.410156 L 53.386719 81.722656 L 53.730469 82.074219 L 39.777344 95.765625 " fill-opacity="1" fill-rule="nonzero"/><path fill="#ffffff" d="M 55.941406 93.59375 L 51.84375 75.394531 L 52.328125 75.285156 L 56.421875 93.488281 L 55.941406 93.59375 " fill-opacity="1" fill-rule="nonzero"/><path fill="#ffffff" d="M 39.582031 95.832031 L 25.6875 94.605469 L 25.730469 94.113281 L 39.628906 95.34375 L 39.582031 95.832031 " fill-opacity="1" fill-rule="nonzero"/><path fill="#ffffff" d="M 37.3125 73.667969 C 37.3125 73.667969 36.84375 73.785156 36.132812 73.921875 C 35.78125 73.988281 35.367188 74.070312 34.925781 74.132812 C 34.707031 74.167969 34.480469 74.210938 34.25 74.234375 C 34.019531 74.261719 33.78125 74.289062 33.546875 74.316406 C 33.078125 74.363281 32.601562 74.550781 32.167969 74.539062 C 31.949219 74.53125 31.738281 74.484375 31.542969 74.414062 C 31.347656 74.351562 31.160156 74.269531 30.992188 74.179688 C 30.820312 74.089844 30.667969 73.984375 30.53125 73.882812 C 30.394531 73.785156 30.277344 73.675781 30.183594 73.585938 C 30.082031 73.492188 30.007812 73.410156 29.957031 73.347656 C 29.90625 73.28125 29.878906 73.25 29.878906 73.25 L 29.894531 73.003906 C 29.894531 73.003906 29.921875 72.976562 29.980469 72.914062 C 30.039062 72.859375 30.125 72.785156 30.230469 72.703125 C 30.335938 72.625 30.464844 72.527344 30.613281 72.445312 C 30.757812 72.359375 30.925781 72.273438 31.105469 72.207031 C 31.28125 72.132812 31.472656 72.074219 31.675781 72.03125 C 31.878906 71.984375 32.09375 71.960938 32.3125 71.980469 C 32.746094 72.015625 33.199219 72.257812 33.660156 72.355469 C 33.890625 72.410156 34.117188 72.464844 34.34375 72.515625 C 34.570312 72.566406 34.792969 72.632812 35.007812 72.691406 C 35.4375 72.804688 35.839844 72.933594 36.183594 73.035156 C 36.871094 73.25 37.328125 73.421875 37.328125 73.421875 L 37.3125 73.667969 " fill-opacity="1" fill-rule="nonzero"/><path fill="#ffffff" d="M 43.183594 92.167969 C 43.183594 92.167969 42.96875 92.214844 42.640625 92.269531 C 42.480469 92.292969 42.289062 92.324219 42.085938 92.351562 C 41.882812 92.378906 41.664062 92.398438 41.449219 92.421875 C 41.230469 92.4375 41.011719 92.511719 40.808594 92.507812 C 40.609375 92.496094 40.425781 92.425781 40.269531 92.351562 C 40.109375 92.273438 39.984375 92.1875 39.894531 92.105469 C 39.804688 92.027344 39.75 91.96875 39.75 91.96875 L 39.757812 91.867188 C 39.757812 91.867188 39.816406 91.8125 39.914062 91.746094 C 40.011719 91.675781 40.152344 91.601562 40.316406 91.542969 C 40.480469 91.488281 40.671875 91.4375 40.871094 91.457031 C 41.074219 91.476562 41.285156 91.570312 41.496094 91.613281 C 41.710938 91.660156 41.921875 91.703125 42.121094 91.757812 C 42.320312 91.804688 42.503906 91.859375 42.664062 91.902344 C 42.980469 91.996094 43.191406 92.066406 43.191406 92.066406 L 43.183594 92.167969 " fill-opacity="1" fill-rule="nonzero"/><path fill="#ffffff" d="M 40.066406 99.027344 C 40.066406 99.027344 39.847656 99.074219 39.519531 99.128906 C 39.359375 99.152344 39.167969 99.183594 38.964844 99.210938 C 38.761719 99.242188 38.546875 99.257812 38.328125 99.28125 C 38.113281 99.296875 37.890625 99.371094 37.691406 99.367188 C 37.488281 99.359375 37.304688 99.285156 37.148438 99.214844 C 36.992188 99.132812 36.863281 99.046875 36.769531 98.964844 C 36.679688 98.890625 36.632812 98.828125 36.632812 98.828125 L 36.636719 98.726562 C 36.636719 98.726562 36.695312 98.671875 36.792969 98.605469 C 36.890625 98.535156 37.03125 98.464844 37.195312 98.402344 C 37.359375 98.347656 37.550781 98.300781 37.753906 98.3125 C 37.953125 98.332031 38.160156 98.429688 38.375 98.472656 C 38.585938 98.519531 38.800781 98.5625 39 98.617188 C 39.199219 98.667969 39.382812 98.71875 39.542969 98.765625 C 39.859375 98.855469 40.074219 98.925781 40.074219 98.925781 L 40.066406 99.027344 " fill-opacity="1" fill-rule="nonzero"/><path fill="#ffffff" d="M 55.199219 78.96875 C 55.089844 78.96875 54.992188 78.894531 54.960938 78.78125 C 54.925781 78.652344 55.003906 78.519531 55.136719 78.484375 C 56.691406 78.074219 57.835938 77.007812 58.199219 75.621094 C 58.417969 74.777344 58.28125 73.988281 57.839844 73.566406 C 57.492188 73.230469 56.976562 73.152344 56.359375 73.339844 C 55.621094 73.5625 54.949219 73.742188 54.300781 73.917969 C 53.746094 74.066406 53.226562 74.203125 52.726562 74.355469 C 52.199219 74.511719 52.214844 74.839844 52.375 75.5 L 52.40625 75.648438 C 52.4375 75.777344 52.355469 75.910156 52.222656 75.941406 C 52.089844 75.96875 51.957031 75.886719 51.929688 75.753906 L 51.894531 75.617188 C 51.773438 75.121094 51.554688 74.191406 52.582031 73.882812 C 53.089844 73.730469 53.617188 73.589844 54.171875 73.441406 C 54.820312 73.269531 55.488281 73.089844 56.214844 72.871094 C 57.003906 72.632812 57.703125 72.753906 58.179688 73.210938 C 58.75 73.757812 58.9375 74.726562 58.671875 75.746094 C 58.269531 77.304688 56.992188 78.507812 55.261719 78.957031 L 55.199219 78.96875 " fill-opacity="1" fill-rule="nonzero"/><path fill="#ffffff" d="M 38.351562 99.125 L 38.265625 99.105469 C 38.136719 99.058594 38.074219 98.917969 38.121094 98.789062 L 40.699219 91.894531 C 40.746094 91.769531 40.886719 91.707031 41.015625 91.753906 C 41.140625 91.800781 41.207031 91.941406 41.160156 92.070312 L 38.582031 98.964844 C 38.546875 99.0625 38.449219 99.125 38.351562 99.125 " fill-opacity="1" fill-rule="nonzero"/><g clip-path="url(#21673cb782)"><path fill="#a675c1" d="M 185.902344 120.625 C 169.167969 120.625 155.601562 107.050781 155.601562 90.304688 C 155.601562 86.859375 156.175781 83.546875 157.234375 80.460938 C 165.910156 77.191406 172.808594 70.292969 176.074219 61.609375 C 179.15625 60.554688 182.460938 59.980469 185.902344 59.980469 C 202.636719 59.980469 216.203125 73.558594 216.203125 90.304688 C 216.203125 107.050781 202.636719 120.625 185.902344 120.625 " fill-opacity="1" fill-rule="nonzero"/></g><path fill="#487098" d="M 157.234375 80.460938 C 160.261719 71.628906 167.25 64.636719 176.074219 61.609375 C 172.808594 70.292969 165.910156 77.191406 157.234375 80.460938 " fill-opacity="1" fill-rule="nonzero"/><path fill="#ffffff" d="M 186.28125 90.113281 L 186.894531 90.113281 L 188.226562 87.753906 L 189.152344 89.875 L 190.789062 88.527344 L 191.382812 89.902344 L 193.257812 88.554688 L 194.671875 91.953125 L 195.140625 90.113281 L 198.109375 90.113281 L 200.847656 85.179688 L 202.070312 91.070312 L 203.085938 85.882812 L 204.140625 90.113281 L 206.078125 90.113281 C 206.609375 88.6875 206.914062 87.238281 206.914062 85.796875 C 206.914062 79.714844 201.984375 74.785156 195.90625 74.785156 C 189.828125 74.785156 185.902344 81.523438 185.902344 81.523438 L 185.890625 81.503906 L 186.28125 90.113281 " fill-opacity="1" fill-rule="nonzero"/><path fill="#ffffff" d="M 170.320312 90.113281 L 172.996094 85.695312 L 174.363281 90.113281 L 179.113281 90.113281 L 179.113281 90.511719 L 179.777344 90.113281 L 181.625 90.113281 L 183.492188 82.988281 L 183.863281 90.949219 L 185.753906 81.285156 C 184.988281 80.085938 181.292969 74.785156 175.898438 74.785156 C 169.820312 74.785156 164.894531 79.714844 164.894531 85.796875 C 164.894531 87.238281 165.195312 88.6875 165.726562 90.113281 L 170.320312 90.113281 " fill-opacity="1" fill-rule="nonzero"/><path fill="#ffffff" d="M 203.519531 90.910156 L 203.179688 89.53125 L 202.089844 95.09375 L 200.507812 87.433594 L 198.574219 90.910156 L 195.757812 90.910156 L 194.855469 94.449219 L 192.910156 89.785156 L 191.046875 91.121094 L 190.480469 89.808594 L 188.84375 91.152344 L 188.136719 89.53125 L 187.359375 90.910156 L 185.523438 90.910156 L 185.363281 87.414062 L 183.382812 97.558594 L 182.941406 88.214844 L 182.238281 90.910156 L 179.996094 90.910156 L 178.324219 91.914062 L 178.324219 90.910156 L 173.777344 90.910156 L 172.761719 87.617188 L 170.765625 90.910156 L 166.042969 90.910156 C 170.433594 101.101562 185.902344 110.160156 185.902344 110.160156 C 185.902344 110.160156 201.371094 101.101562 205.761719 90.910156 L 203.519531 90.910156 " fill-opacity="1" fill-rule="nonzero"/><path fill="#c13331" d="M 141.589844 102.074219 C 123.910156 102.074219 112.492188 121.683594 112.492188 121.683594 C 112.492188 121.683594 101.074219 102.074219 83.394531 102.074219 C 65.710938 102.074219 51.375 116.417969 51.375 134.113281 C 51.375 169.191406 112.492188 204.984375 112.492188 204.984375 C 112.492188 204.984375 173.609375 169.191406 173.609375 134.113281 C 173.609375 116.417969 159.273438 102.074219 141.589844 102.074219 " fill-opacity="1" fill-rule="nonzero"/><path fill="#aa2c2a" d="M 172.105469 124.394531 C 170.664062 133.113281 167.894531 141.605469 163.730469 149.476562 C 155.28125 165.433594 141.019531 181.832031 122.691406 186.015625 C 115.8125 187.589844 107.066406 188.753906 100.378906 185.765625 C 95.726562 183.683594 91.382812 180.851562 87.039062 178.21875 C 85.390625 177.214844 73.035156 169.203125 64.675781 165.007812 C 82.65625 187.503906 112.492188 204.984375 112.492188 204.984375 C 112.492188 204.984375 173.609375 169.191406 173.609375 134.113281 C 173.609375 130.722656 173.078125 127.460938 172.105469 124.394531 " fill-opacity="1" fill-rule="nonzero"/><path fill="#c13c3b" d="M 117.316406 117.734375 C 119.679688 116.640625 122.015625 115.46875 124.347656 114.3125 C 130.710938 111.160156 136.574219 107.132812 143.675781 105.859375 C 149.53125 104.808594 155.878906 106.121094 161.402344 108.964844 C 155.949219 104.660156 149.074219 102.074219 141.589844 102.074219 C 128.359375 102.074219 118.636719 113.054688 114.582031 118.582031 C 115.414062 118.46875 116.316406 118.195312 117.316406 117.734375 " fill-opacity="1" fill-rule="nonzero"/><path fill="#c13c3b" d="M 106.125 113.722656 C 107.015625 114.707031 107.855469 115.625 108.710938 116.394531 C 103.976562 110.589844 95.046875 102.074219 83.394531 102.074219 C 74.777344 102.074219 66.964844 105.484375 61.210938 111.019531 C 61.988281 110.804688 73.164062 106.660156 83.332031 106.800781 C 94.171875 106.945312 104.070312 111.449219 106.125 113.722656 " fill-opacity="1" fill-rule="nonzero"/><path fill="#ffffff" d="M 48.445312 148.410156 L 68.132812 148.410156 L 74.433594 138.007812 L 77.644531 148.410156 L 91.019531 148.410156 L 91.019531 150.890625 L 95.152344 148.410156 L 101.386719 148.410156 L 104.28125 137.347656 L 105.515625 163.523438 L 111.285156 133.96875 L 111.941406 148.410156 L 116.398438 148.410156 L 119.050781 143.679688 L 121.273438 148.761719 L 126.027344 144.851562 L 127.707031 148.71875 L 133.132812 144.8125 L 138.402344 157.46875 L 140.714844 148.410156 L 149.019531 148.410156 L 155.222656 137.230469 L 159.566406 158.238281 L 162.679688 142.324219 L 164.199219 148.410156 L 176.539062 148.410156 L 176.539062 147.253906 L 165.101562 147.253906 L 162.539062 137.015625 L 159.535156 152.382812 L 155.722656 133.949219 L 148.339844 147.253906 L 139.816406 147.253906 L 138.140625 153.832031 L 133.636719 143.027344 L 128.195312 146.945312 L 126.476562 142.988281 L 121.71875 146.902344 L 119.183594 141.09375 L 115.722656 147.253906 L 113.042969 147.253906 L 112 124.289062 L 106.214844 153.90625 L 105.074219 129.753906 L 100.492188 147.253906 L 94.835938 147.253906 L 92.171875 148.851562 L 92.171875 147.253906 L 78.496094 147.253906 L 74.78125 135.210938 L 67.488281 147.253906 L 48.445312 147.253906 L 48.445312 148.410156 " fill-opacity="1" fill-rule="nonzero"/></svg>