<svg xmlns="http://www.w3.org/2000/svg" xmlns:xlink="http://www.w3.org/1999/xlink" width="1920" zoomAndPan="magnify" viewBox="0 0 1440 809.999993" height="1080" preserveAspectRatio="xMidYMid meet" version="1.0"><path fill="#5670ef" d="M 718.21875 454.058594 C 716.382812 454.058594 714.628906 453.328125 713.335938 452.035156 C 664.046875 402.746094 613.066406 351.769531 613.066406 299.78125 C 613.066406 268.882812 638.191406 243.746094 669.074219 243.746094 C 690.671875 243.746094 708.851562 253.007812 718.289062 267.425781 C 727.550781 252.164062 744.589844 243.746094 767.320312 243.746094 C 798.21875 243.746094 823.355469 268.882812 823.355469 299.78125 C 823.355469 351.726562 772.457031 402.652344 723.234375 451.898438 L 723.089844 452.035156 C 721.800781 453.328125 720.046875 454.058594 718.21875 454.058594 Z M 669.074219 257.546875 C 645.808594 257.546875 626.871094 276.488281 626.871094 299.777344 C 626.871094 344.460938 672.484375 391.609375 718.207031 437.394531 C 763.914062 391.609375 809.546875 344.464844 809.546875 299.777344 C 809.546875 276.488281 790.601562 257.546875 767.320312 257.546875 C 750.453125 257.546875 729.417969 262.960938 725.007812 288.773438 C 724.429688 292.195312 721.382812 294.660156 717.925781 294.507812 C 714.457031 294.367188 711.632812 291.671875 711.339844 288.21875 C 709.570312 268.082031 688.746094 257.546875 669.074219 257.546875 Z M 669.074219 257.546875 " fill-opacity="1" fill-rule="nonzero"/><path fill="#5670ef" d="M 741.917969 354.214844 L 693.882812 354.214844 C 689.121094 354.214844 685.261719 350.355469 685.261719 345.589844 C 685.261719 340.824219 689.121094 336.972656 693.882812 336.972656 L 741.917969 336.972656 C 746.679688 336.972656 750.535156 340.828125 750.535156 345.589844 C 750.535156 350.355469 746.679688 354.214844 741.917969 354.214844 Z M 741.917969 354.214844 " fill-opacity="1" fill-rule="nonzero"/><path fill="#5670ef" d="M 717.890625 378.234375 C 713.128906 378.234375 709.273438 374.371094 709.273438 369.609375 L 709.273438 321.570312 C 709.273438 316.804688 713.128906 312.945312 717.890625 312.945312 C 722.65625 312.945312 726.519531 316.804688 726.519531 321.570312 L 726.519531 369.609375 C 726.519531 374.371094 722.65625 378.234375 717.890625 378.234375 Z M 717.890625 378.234375 " fill-opacity="1" fill-rule="nonzero"/><path fill="#5670ef" d="M 622.660156 525.085938 C 620.648438 525.085938 618.671875 524.210938 617.324219 522.566406 C 614.953125 519.679688 611.886719 516.011719 608.324219 511.765625 C 596.980469 498.21875 581.441406 479.664062 569.179688 463.261719 C 566.070312 459.136719 557.609375 443.449219 550.421875 425.910156 C 540.996094 402.917969 537.460938 385.984375 539.90625 375.578125 L 554.058594 315.546875 C 555.453125 309.65625 560.085938 305.851562 565.855469 305.851562 C 577.519531 305.851562 589.964844 320.953125 590.59375 346.226562 C 590.601562 346.742188 590.5625 347.253906 590.460938 347.761719 L 590.277344 348.703125 C 586.53125 367.269531 584.652344 376.589844 585.953125 384.089844 C 586.289062 385.996094 586.851562 387.910156 587.667969 389.953125 C 590.5 385.691406 595.0625 383.273438 600.359375 383.273438 C 608.859375 383.273438 618.679688 389.265625 629.523438 401.082031 C 634.261719 405.683594 640.136719 411.527344 649.613281 422.453125 C 651.898438 425.089844 653.570312 426.925781 654.910156 428.394531 C 659.792969 433.75 660.480469 434.839844 661.746094 441.761719 C 662.097656 443.695312 662.574219 446.34375 663.433594 450.179688 L 673.039062 493.207031 C 673.710938 496.230469 672.292969 499.328125 669.570312 500.789062 L 625.9375 524.269531 C 624.894531 524.816406 623.769531 525.085938 622.660156 525.085938 Z M 567.132812 320.226562 L 553.347656 378.738281 C 549.285156 396.011719 574.921875 447.933594 580.21875 454.984375 C 592.273438 471.09375 607.664062 489.476562 618.914062 502.898438 C 620.890625 505.265625 622.71875 507.445312 624.367188 509.421875 L 658.421875 491.101562 L 649.953125 453.179688 C 649.039062 449.070312 648.523438 446.261719 648.164062 444.210938 C 647.886719 442.730469 647.609375 441.199219 647.441406 440.875 C 647.214844 440.441406 646.050781 439.164062 644.707031 437.683594 C 643.386719 436.234375 641.574219 434.253906 639.183594 431.492188 C 629.957031 420.867188 624.320312 415.265625 619.761719 410.84375 C 619.664062 410.75 619.566406 410.648438 619.476562 410.546875 C 607.738281 397.71875 601.488281 397.070312 600.355469 397.070312 C 599.488281 397.070312 599.332031 397.277344 599.078125 397.714844 C 597.78125 399.992188 597.695312 406.902344 602.882812 415.894531 C 603.21875 416.316406 603.601562 416.789062 604.027344 417.3125 L 604.816406 418.246094 C 607.136719 420.984375 611.976562 426.6875 621.449219 438.109375 C 621.503906 438.183594 621.554688 438.253906 621.613281 438.320312 C 623.664062 441.011719 624.070312 443.675781 622.796875 446.246094 C 621.632812 448.597656 619.238281 450.09375 616.605469 450.09375 C 613.339844 450.09375 611.972656 448.480469 609.25 445.265625 C 607.988281 443.78125 606.265625 441.726562 604.378906 439.460938 C 600.542969 434.847656 596.136719 429.5 593.402344 426.136719 C 592.210938 424.734375 591.730469 424.144531 591.308594 423.464844 L 589.894531 421.265625 C 568.949219 388.535156 568.578125 386.425781 576.722656 345.976562 L 576.761719 345.816406 C 576.199219 329.773438 570.230469 322.242188 567.132812 320.226562 Z M 567.132812 320.226562 " fill-opacity="1" fill-rule="nonzero"/><path fill="#5670ef" d="M 638.683594 563.125 C 638.019531 563.125 637.355469 563.03125 636.703125 562.832031 C 634.949219 562.308594 633.476562 561.105469 632.609375 559.492188 L 613.136719 523.28125 C 612.269531 521.667969 612.070312 519.78125 612.601562 518.027344 C 613.136719 516.273438 614.328125 514.796875 615.953125 513.933594 L 672.800781 483.371094 C 676.148438 481.566406 680.34375 482.820312 682.144531 486.175781 L 701.617188 522.359375 C 702.484375 523.972656 702.679688 525.863281 702.152344 527.625 C 701.628906 529.375 700.421875 530.84375 698.8125 531.714844 L 641.960938 562.304688 C 640.941406 562.847656 639.816406 563.125 638.683594 563.125 Z M 628.566406 522.828125 L 641.5 546.875 L 686.195312 522.828125 L 673.261719 498.792969 Z M 628.566406 522.828125 " fill-opacity="1" fill-rule="nonzero"/><path fill="#5670ef" d="M 814.085938 528.238281 C 812.972656 528.238281 811.847656 527.972656 810.824219 527.414062 L 767.160156 503.929688 C 764.433594 502.464844 763.007812 499.367188 763.6875 496.347656 L 773.316406 453.320312 C 774.183594 449.460938 774.65625 446.800781 775.003906 444.867188 C 776.257812 437.953125 776.953125 436.859375 781.859375 431.5 C 783.199219 430.035156 784.863281 428.214844 787.132812 425.605469 C 796.613281 414.679688 802.484375 408.832031 807.230469 404.230469 C 818.070312 392.410156 827.890625 386.417969 836.390625 386.417969 C 841.679688 386.417969 846.242188 388.839844 849.070312 393.09375 C 849.890625 391.050781 850.457031 389.140625 850.792969 387.230469 C 852.089844 379.734375 850.214844 370.414062 846.472656 351.847656 L 846.289062 350.910156 C 846.1875 350.40625 846.144531 349.894531 846.152344 349.378906 C 846.785156 324.101562 859.226562 308.992188 870.890625 308.992188 C 876.660156 308.992188 881.285156 312.792969 882.660156 318.675781 L 896.8125 378.726562 C 902.714844 403.707031 871.980469 460.5 867.582031 466.402344 C 855.300781 482.816406 839.753906 501.375 828.410156 514.917969 C 824.855469 519.164062 821.785156 522.832031 819.417969 525.710938 C 818.066406 527.355469 816.097656 528.238281 814.085938 528.238281 Z M 778.300781 494.261719 L 812.375 512.582031 C 814.011719 510.609375 815.84375 508.425781 817.820312 506.0625 C 829.070312 492.640625 844.46875 474.253906 856.519531 458.148438 C 861.976562 450.8125 887.507812 399.394531 883.371094 381.898438 L 869.59375 323.367188 C 866.515625 325.394531 860.554688 332.929688 859.96875 348.964844 L 860.007812 349.125 C 868.15625 389.574219 867.78125 391.683594 846.8125 424.390625 L 845.398438 426.601562 C 844.972656 427.292969 844.441406 427.929688 843.296875 429.285156 C 840.621094 432.597656 836.316406 437.828125 832.332031 442.625 C 830.445312 444.890625 828.738281 446.941406 827.472656 448.421875 C 824.78125 451.609375 823.421875 453.207031 820.199219 453.238281 C 820.171875 453.238281 820.144531 453.238281 820.125 453.238281 C 817.511719 453.238281 815.117188 451.765625 813.953125 449.421875 C 812.65625 446.847656 813.054688 444.171875 815.117188 441.46875 C 815.175781 441.398438 815.222656 441.332031 815.285156 441.257812 C 824.269531 430.414062 828.988281 424.835938 831.507812 421.839844 L 832.640625 420.496094 C 833.078125 419.949219 833.480469 419.460938 833.824219 419.03125 C 839.019531 410.042969 838.945312 403.132812 837.648438 400.863281 C 837.394531 400.429688 837.234375 400.21875 836.378906 400.21875 C 835.25 400.21875 828.996094 400.867188 817.257812 413.695312 C 817.167969 413.796875 817.074219 413.902344 816.972656 413.996094 C 812.40625 418.414062 806.773438 424.023438 797.546875 434.648438 C 795.15625 437.390625 793.359375 439.367188 792.035156 440.804688 C 790.734375 442.226562 789.507812 443.566406 789.285156 444 C 789.117188 444.308594 788.851562 445.832031 788.578125 447.304688 C 788.210938 449.363281 787.695312 452.1875 786.777344 456.332031 Z M 778.300781 494.261719 " fill-opacity="1" fill-rule="nonzero"/><path fill="#5670ef" d="M 798.0625 566.253906 C 796.929688 566.253906 795.804688 565.976562 794.785156 565.429688 L 737.933594 534.863281 C 736.320312 534 735.117188 532.527344 734.597656 530.769531 C 734.066406 529.015625 734.261719 527.128906 735.121094 525.511719 L 754.601562 489.328125 C 756.40625 485.96875 760.59375 484.714844 763.941406 486.515625 L 820.78125 517.085938 C 824.132812 518.890625 825.390625 523.078125 823.585938 526.433594 L 804.140625 562.617188 C 803.273438 564.226562 801.800781 565.429688 800.046875 565.957031 C 799.394531 566.15625 798.726562 566.253906 798.0625 566.253906 Z M 750.554688 525.976562 L 795.242188 550.007812 L 808.15625 525.976562 L 763.480469 501.949219 Z M 750.554688 525.976562 " fill-opacity="1" fill-rule="nonzero"/></svg>