<svg xmlns="http://www.w3.org/2000/svg" xmlns:xlink="http://www.w3.org/1999/xlink" width="1920" zoomAndPan="magnify" viewBox="0 0 1440 809.999993" height="1080" preserveAspectRatio="xMidYMid meet" version="1.0"><defs><clipPath id="bf34a761e9"><path d="M 537.976562 243 L 901.726562 243 L 901.726562 567 L 537.976562 567 Z M 537.976562 243 " clip-rule="nonzero"/></clipPath></defs><g clip-path="url(#bf34a761e9)"><path fill="#5670ef" d="M 566.96875 363.792969 L 635.566406 316.398438 L 704.15625 363.792969 L 704.15625 417.25 L 697.75 412.859375 C 695.9375 411.617188 693.546875 411.617188 691.738281 412.859375 L 629.023438 455.859375 C 627.582031 456.855469 626.714844 458.492188 626.714844 460.246094 L 626.714844 556.167969 L 566.96875 556.167969 Z M 752.140625 463.042969 L 752.140625 556.167969 L 637.347656 556.167969 L 637.347656 463.042969 L 694.746094 423.6875 Z M 700.058594 253.761719 L 798.226562 253.761719 L 798.226562 413.65625 C 798.226562 416.59375 800.605469 418.972656 803.542969 418.972656 L 873.03125 418.972656 L 873.03125 556.167969 L 762.769531 556.167969 L 762.769531 460.246094 C 762.769531 458.492188 761.90625 456.855469 760.460938 455.859375 L 714.785156 424.539062 L 714.785156 361.003906 C 714.785156 359.257812 713.929688 357.621094 712.492188 356.632812 L 700.058594 348.042969 Z M 896.710938 556.167969 L 883.660156 556.167969 L 883.660156 413.65625 C 883.660156 410.722656 881.277344 408.34375 878.347656 408.34375 L 808.855469 408.34375 L 808.855469 248.445312 C 808.855469 245.511719 806.476562 243.132812 803.542969 243.132812 L 694.746094 243.132812 C 691.808594 243.132812 689.425781 245.511719 689.425781 248.445312 L 689.425781 340.695312 L 638.582031 305.566406 C 636.765625 304.3125 634.363281 304.3125 632.542969 305.566406 L 558.632812 356.632812 C 557.195312 357.621094 556.335938 359.257812 556.335938 361.003906 L 556.335938 556.167969 L 543.289062 556.167969 C 540.351562 556.167969 537.972656 558.542969 537.972656 561.480469 C 537.972656 564.414062 540.351562 566.792969 543.289062 566.792969 L 896.710938 566.792969 C 899.644531 566.792969 902.023438 564.414062 902.023438 561.480469 C 902.023438 558.542969 899.644531 556.167969 896.710938 556.167969 " fill-opacity="1" fill-rule="nonzero"/></g></svg>