<svg xmlns="http://www.w3.org/2000/svg" xmlns:xlink="http://www.w3.org/1999/xlink" width="300" zoomAndPan="magnify" viewBox="0 0 224.87999 225" height="300" preserveAspectRatio="xMidYMid meet" version="1.0"><defs><clipPath id="130081926a"><path d="M 25 24 L 200.894531 24 L 200.894531 195 L 25 195 Z M 25 24 " clip-rule="nonzero"/></clipPath><clipPath id="7e986c78fb"><path d="M 25 26 L 200.894531 26 L 200.894531 202 L 25 202 Z M 25 26 " clip-rule="nonzero"/></clipPath></defs><g clip-path="url(#130081926a)"><path fill="#f1ae2e" d="M 111.289062 193.957031 L 115.34375 82.238281 C 125.554688 80.105469 159.945312 78.949219 165.855469 82.238281 C 165.855469 82.238281 175.003906 80.484375 182.429688 79.699219 C 189.855469 78.914062 200.894531 76.390625 200.386719 73.632812 C 175.9375 25.996094 116.039062 26.570312 116.039062 26.570312 C 113.015625 21.753906 110.25 26.308594 110.25 26.308594 C 52.4375 33.480469 22.480469 69.425781 25.558594 74.257812 C 28.636719 79.089844 61.792969 77.546875 67.0625 82.027344 C 84.4375 79.671875 109.527344 82.707031 109.527344 82.707031 L 105.527344 193.957031 C 107.589844 193.957031 109.453125 194.898438 111.289062 193.957031 Z M 111.289062 193.957031 " fill-opacity="1" fill-rule="nonzero"/></g><path fill="#ff8317" d="M 122.371094 197.953125 L 119.539062 197.953125 L 96.46875 131.664062 L 93.121094 131.664062 L 92.554688 130.097656 L 95.921875 130.097656 L 95.628906 129.253906 L 96.917969 128.210938 L 97.894531 128.210938 Z M 62.175781 132.332031 C 62.175781 132.332031 61.648438 130.703125 61.382812 130.328125 C 61.382812 130.328125 59.363281 130.492188 58.53125 130.542969 L 57.710938 128.207031 L 56.734375 128.207031 L 55.449219 129.25 C 57.890625 136.375 60.371094 143.621094 62.78125 150.652344 L 65.480469 190.417969 L 67.964844 187.917969 L 66.269531 160.800781 C 71.742188 176.710938 76.949219 191.621094 79.738281 199.03125 L 82.382812 198.5 L 59.226562 132.523438 Z M 62.175781 132.332031 " fill-opacity="1" fill-rule="nonzero"/><path fill="#06b0e5" d="M 198.261719 156.816406 L 198.261719 159.542969 C 198.261719 160.671875 190.554688 161.597656 180.765625 161.679688 L 180.765625 193.035156 C 185.945312 193.671875 188.027344 197.769531 188.027344 197.769531 C 178.722656 201.203125 170.027344 197.769531 170.027344 197.769531 C 170.027344 197.769531 172.875 193.46875 178.410156 192.996094 L 178.410156 161.6875 C 168.355469 161.632812 160.34375 160.695312 160.34375 159.542969 L 160.34375 156.816406 C 160.34375 155.632812 168.832031 154.675781 179.304688 154.675781 C 189.773438 154.675781 198.261719 155.632812 198.261719 156.816406 Z M 92.558594 129.644531 C 91.734375 129.523438 81.75 129.464844 81.75 129.464844 L 64.554688 130.136719 L 64.722656 144.035156 L 77.15625 184.59375 C 77.15625 184.59375 76.59375 185.039062 80.117188 185.226562 C 83.640625 185.414062 107.082031 172.941406 107.082031 172.941406 L 95.140625 134.996094 C 95.136719 134.996094 93.382812 129.765625 92.558594 129.644531 Z M 92.558594 129.644531 " fill-opacity="1" fill-rule="nonzero"/><path fill="#ff8317" d="M 113.277344 184.605469 L 113.332031 185.265625 L 95.914062 198.4375 L 90.101562 198.207031 L 96.242188 193.683594 L 64.066406 193.683594 L 64.066406 191.304688 L 99.472656 191.304688 L 106.289062 186.285156 L 75.550781 186.285156 L 75.550781 183.050781 L 106.800781 183.050781 L 106.800781 185.910156 L 111.632812 182.347656 L 113.011719 182.453125 L 113.109375 183.425781 Z M 76.054688 163.691406 C 76.054688 163.691406 75.632812 170.171875 76.140625 171.410156 C 76.652344 172.644531 77.492188 174.121094 77.554688 174.421875 C 77.613281 174.71875 77.546875 177.148438 78.386719 178.421875 C 79.230469 179.695312 104.617188 163.078125 104.617188 163.078125 C 104.617188 163.078125 104.347656 162.144531 103.285156 160.890625 C 102.21875 159.636719 99.785156 155.910156 99.4375 153.816406 C 99.4375 153.816406 103.425781 146.386719 105.023438 144.480469 C 105.289062 144.074219 104.328125 142.058594 104.328125 142.058594 C 104.328125 142.058594 102.984375 132.710938 100.339844 132.484375 C 97.699219 132.261719 87.359375 143.199219 83.292969 142.21875 C 79.226562 141.238281 72.914062 137.105469 69.847656 135.382812 C 66.773438 133.660156 67.140625 132.238281 65.25 134.160156 C 63.359375 136.082031 61.398438 140.75 61.398438 140.75 C 65.707031 148.0625 68.296875 149.980469 70.753906 153.65625 C 73.207031 157.339844 76.054688 163.691406 76.054688 163.691406 Z M 171.707031 184.605469 L 171.761719 185.265625 L 154.34375 198.4375 L 148.53125 198.207031 L 154.671875 193.683594 L 139.117188 193.683594 L 140.621094 197.957031 L 137.789062 197.957031 C 137.316406 196.707031 136.785156 195.273438 136.207031 193.683594 L 122.496094 193.683594 L 122.496094 191.304688 L 135.347656 191.304688 C 132.554688 183.535156 128.808594 172.757812 124.699219 160.804688 L 126.390625 187.925781 L 123.910156 190.425781 L 121.210938 150.65625 C 118.796875 143.625 116.320312 136.382812 113.875 129.257812 L 115.164062 128.210938 L 116.140625 128.210938 L 116.960938 130.550781 C 117.792969 130.5 119.8125 130.335938 119.8125 130.335938 C 120.078125 130.710938 120.601562 132.339844 120.601562 132.339844 L 117.65625 132.53125 L 135.390625 183.058594 L 165.234375 183.058594 L 165.234375 185.917969 L 170.066406 182.355469 L 171.441406 182.460938 L 171.542969 183.433594 Z M 164.722656 186.285156 L 136.523438 186.285156 L 138.285156 191.304688 L 157.90625 191.304688 Z M 156.324219 128.207031 L 155.347656 128.207031 L 154.058594 129.25 L 154.351562 130.09375 L 150.984375 130.09375 L 151.550781 131.660156 L 154.898438 131.660156 L 177.96875 197.949219 L 180.800781 197.949219 Z M 156.324219 128.207031 " fill-opacity="1" fill-rule="nonzero"/><path fill="#06b0e5" d="M 137.070312 180.574219 C 131.546875 171.460938 126.855469 154.847656 125.515625 148.753906 C 124.171875 142.65625 120.910156 133.839844 120.910156 133.839844 C 120.910156 133.839844 117.992188 129.886719 119.632812 129.761719 C 121.222656 129.640625 149.1875 129.640625 150.703125 129.640625 C 152.21875 129.640625 153.636719 135.921875 154.289062 139.753906 C 154.9375 143.582031 156.578125 150.910156 157.613281 153.613281 C 158.65625 156.320312 165.140625 171.25 162.003906 174.984375 C 158.871094 178.722656 137.070312 180.574219 137.070312 180.574219 Z M 137.070312 180.574219 " fill-opacity="1" fill-rule="nonzero"/><path fill="#f7e8df" d="M 187.609375 144.867188 C 187.609375 147.367188 185.632812 153.382812 185.425781 154.242188 C 185.222656 155.101562 184.671875 155.105469 184.671875 155.105469 C 184.671875 155.105469 185.902344 156.125 185.988281 157.347656 C 183.464844 158.601562 181.839844 157.347656 181.839844 157.347656 C 181.925781 156.125 183.15625 155.105469 183.15625 155.105469 C 183.15625 155.105469 182.601562 155.101562 182.398438 154.242188 C 182.195312 153.382812 180.21875 147.363281 180.21875 144.867188 C 180.464844 143.4375 187.105469 143.472656 187.609375 144.867188 Z M 187.609375 144.867188 " fill-opacity="1" fill-rule="nonzero"/><path fill="#062b52" d="M 78.386719 178.421875 C 78.007812 175.1875 79.605469 169.542969 84.542969 166.722656 C 89.484375 163.898438 100.539062 162.128906 104.617188 163.078125 C 106.71875 163.886719 107.777344 164.773438 107.777344 164.773438 C 111.339844 165.191406 115.84375 162.632812 119.8125 164.136719 C 120.546875 164.488281 120.679688 168.285156 120.679688 168.285156 L 108.074219 183.050781 C 108.074219 183.050781 81.410156 184.710938 79.546875 183.109375 C 77.6875 181.507812 78.386719 178.421875 78.386719 178.421875 Z M 78.386719 178.421875 " fill-opacity="1" fill-rule="nonzero"/><path fill="#f1ae2e" d="M 146.890625 147.386719 C 150.464844 147.070312 156.511719 150.265625 159.960938 153.75 C 163.410156 157.238281 166.199219 165.128906 166.199219 165.128906 C 168.441406 164.847656 172.535156 167.179688 173.878906 170.722656 C 175.226562 174.265625 176.53125 181.417969 176.246094 182.789062 C 175.960938 184.15625 169.367188 189.148438 166.6875 190.417969 C 164.011719 191.6875 160.019531 190.65625 159.261719 189.675781 C 158.511719 188.695312 157.613281 185.632812 157.613281 185.632812 L 154.273438 180.3125 C 154.273438 180.3125 141.953125 186.082031 138.753906 183.046875 C 135.554688 180.015625 136.195312 174.441406 136.195312 174.441406 C 132.082031 174.363281 131.09375 172.394531 129.800781 163.5 C 128.511719 154.605469 131.402344 151.914062 133.097656 150.78125 C 134.796875 149.652344 140.414062 148.40625 140.414062 148.40625 C 140.414062 148.40625 143.316406 147.703125 146.890625 147.386719 Z M 185.960938 148.382812 C 185.832031 148.3125 185.671875 148.316406 185.53125 148.34375 C 185.136719 148.414062 184.777344 148.652344 184.378906 148.679688 C 183.992188 148.703125 183.621094 148.527344 183.273438 148.351562 C 182.925781 148.171875 182.570312 147.980469 182.183594 147.960938 C 181.792969 147.945312 181.109375 148.023438 181.226562 148.390625 C 181.257812 148.492188 182.253906 153.855469 182.882812 154.476562 C 183.507812 155.101562 184.480469 155.371094 185.015625 154.164062 C 185.550781 152.957031 186.230469 149.542969 186.261719 148.832031 C 186.265625 148.6875 186.085938 148.449219 185.960938 148.382812 Z M 179.9375 143.171875 C 177.828125 143.90625 179.011719 146.78125 180.390625 146.589844 C 180.511719 146.574219 180.164062 145.175781 180.269531 144.699219 C 180.269531 144.699219 181.160156 145.273438 181.648438 145.457031 C 182.394531 145.027344 181.816406 142.523438 179.9375 143.171875 Z M 179.9375 143.171875 " fill-opacity="1" fill-rule="nonzero"/><path fill="#06b0e5" d="M 148.023438 176.164062 C 150.625 175.929688 151.039062 175.582031 154.441406 176.363281 C 156.46875 178.515625 156.5625 183.957031 157.613281 185.632812 C 151.785156 187.023438 143.5 185.765625 139.078125 183.304688 C 143.90625 181.191406 148.023438 176.164062 148.023438 176.164062 Z M 80.683594 183.308594 C 85.109375 185.765625 98.914062 188.09375 107.300781 183.050781 C 106.246094 181.375 103.042969 178.351562 101.011719 176.199219 C 97.609375 175.414062 92.226562 175.929688 89.628906 176.167969 C 89.628906 176.164062 85.511719 181.191406 80.683594 183.308594 Z M 80.683594 183.308594 " fill-opacity="1" fill-rule="nonzero"/><path fill="#ff8317" d="M 157.617188 155.40625 L 160.339844 161.539062 C 160.339844 161.539062 158.976562 162.027344 158.472656 162.355469 C 157.972656 162.683594 157.640625 164.644531 155.335938 165.074219 C 153.03125 165.5 148.257812 164.644531 148.382812 164.433594 C 148.507812 164.222656 146.53125 156.996094 146.53125 156.996094 Z M 184.070312 196.113281 C 183.335938 195.8125 182.910156 196.0625 182.910156 196.0625 L 183.230469 195.3125 C 183.230469 195.3125 179.921875 192.820312 179.753906 192.742188 C 179.585938 192.667969 179.316406 192.730469 179.316406 192.730469 C 179.316406 192.730469 173.453125 191.304688 171.71875 193.421875 L 169.867188 196.816406 C 169.488281 198.054688 170.03125 199.324219 171.144531 200.183594 C 172.257812 201.046875 177.539062 202.648438 178.980469 202.773438 C 180.421875 202.902344 183.546875 201.878906 183.703125 199.324219 C 183.703125 199.324219 184.769531 198.78125 185.035156 197.847656 C 185.164062 197.421875 184.804688 196.410156 184.070312 196.113281 Z M 153.433594 174.988281 L 145.660156 174.988281 L 145.558594 174.015625 L 144.183594 173.914062 L 111.289062 198.207031 L 117.101562 198.4375 L 145.875 176.832031 L 145.820312 176.167969 L 154.058594 176.199219 C 153.898438 175.804688 153.433594 174.988281 153.433594 174.988281 Z M 100.382812 174.988281 L 87.261719 174.988281 L 87.164062 174.015625 L 85.785156 173.914062 L 52.890625 198.207031 L 56.933594 198.367188 L 58.703125 198.4375 L 87.476562 176.832031 L 87.421875 176.167969 L 101.007812 176.199219 C 100.847656 175.804688 100.382812 174.988281 100.382812 174.988281 Z M 100.382812 174.988281 " fill-opacity="1" fill-rule="nonzero"/><path fill="#062b52" d="M 123.609375 194.242188 L 123.578125 191.214844 C 123.578125 191.214844 132.550781 183.433594 132.671875 183.445312 C 132.792969 183.457031 133.492188 183.246094 133.871094 183.804688 C 134.25 184.359375 135.207031 186.796875 131.597656 190.003906 C 128.597656 192.667969 126.914062 194.425781 125.109375 194.808594 L 129.796875 197.4375 L 130.664062 197.675781 C 130.664062 197.675781 130.976562 198.589844 130.664062 198.734375 C 130.242188 199.324219 118.253906 200.265625 117.101562 199.722656 C 115.949219 199.175781 116.207031 197.363281 116.617188 197.5 C 117.027344 197.636719 123.609375 194.242188 123.609375 194.242188 Z M 123.609375 194.242188 " fill-opacity="1" fill-rule="nonzero"/><path fill="#f7e8df" d="M 140.417969 148.410156 C 140.386719 148.230469 140.746094 147.589844 140.417969 146.820312 C 140.296875 146.90625 138.828125 148.316406 137.464844 147.160156 C 137.464844 147.160156 135.949219 148.832031 134.675781 146.820312 C 134.230469 146.050781 134.582031 146.136719 134.128906 144.792969 C 133.675781 143.449219 132.058594 139.125 134.128906 135.339844 C 136.195312 131.554688 140.5 130.546875 143.195312 132.007812 C 145.890625 133.46875 146.085938 135.4375 146.085938 135.4375 C 146.085938 135.4375 146.582031 136.003906 146.695312 136.28125 C 146.816406 136.558594 146.714844 137.058594 146.871094 137.335938 C 147.027344 137.609375 147.722656 138.402344 148.148438 139.355469 C 148.578125 140.3125 148.476562 142.519531 148.476562 142.519531 C 148.726562 143.132812 149.054688 143.257812 149.257812 143.84375 C 149.460938 144.429688 148.476562 145.097656 148.476562 145.097656 C 148.636719 145.871094 148.1875 146.695312 147.632812 146.667969 C 147.632812 146.667969 147.273438 147.273438 146.890625 147.386719 C 146.890625 147.386719 148.128906 149.125 147.441406 151.007812 C 147.25 151.082031 142.3125 149.855469 140.417969 148.410156 Z M 161.542969 165.515625 C 161.542969 165.515625 160.53125 163.085938 158.472656 162.355469 L 155.375 163.941406 C 154.488281 163.109375 152.152344 162.859375 149.5625 163.265625 C 148.628906 161.359375 146.511719 157.003906 146.53125 156.992188 C 146.5625 156.980469 144.222656 158.304688 144.222656 158.304688 L 146.746094 163.808594 C 144.472656 164.285156 142.316406 164.785156 142.316406 164.785156 C 141.695312 165.855469 141.597656 169.730469 142.15625 171.394531 C 142.15625 171.394531 145.40625 170.136719 148.835938 167.234375 C 149.160156 166.996094 149.773438 167.421875 150.71875 166.914062 C 151.660156 166.402344 152.226562 166.027344 152.769531 166.148438 C 153.308594 166.269531 153.933594 167.011719 154.820312 166.484375 C 154.820312 166.484375 155.300781 167.558594 156.113281 167.382812 C 156.339844 167.300781 156.257812 167.136719 156.257812 167.136719 C 156.257812 167.136719 156.257812 166.472656 156.109375 165.695312 C 156.851562 165.546875 159.210938 165.253906 161.542969 165.515625 Z M 176.546875 190.382812 C 176.265625 189.890625 175.257812 180.703125 175.152344 180.214844 C 175.046875 179.726562 174.1875 179.070312 172.589844 178.78125 C 170.992188 178.492188 170.589844 177 170.480469 176.726562 C 170.371094 176.457031 169.339844 176.9375 168.429688 178.515625 C 167.519531 180.089844 168.0625 179.8125 165.972656 180.863281 C 163.882812 181.910156 161.25 183.230469 160.519531 185.835938 C 161.492188 188.378906 167.503906 194.160156 168.226562 195.128906 C 168.945312 196.097656 169.039062 197.058594 170.140625 198.085938 C 171.242188 199.113281 172.585938 199.664062 174.097656 200.1875 C 174.097656 200.1875 173.84375 196.855469 176.566406 194.535156 C 176.703125 194.441406 177.160156 194.667969 177.160156 194.667969 C 177.160156 194.667969 177.902344 192.933594 179.316406 192.734375 C 179.316406 192.734375 176.828125 190.875 176.546875 190.382812 Z M 184.0625 196.304688 C 184.011719 196.035156 183.277344 195.960938 182.910156 195.414062 C 181.996094 195.675781 181.375 196.820312 181.347656 196.945312 C 181.296875 196.925781 181.121094 196.835938 181.121094 196.835938 C 179.335938 198.175781 178.984375 201.078125 178.984375 201.078125 C 179.308594 201.363281 180.414062 201.589844 180.375 200.863281 C 180.375 200.863281 181.574219 201.183594 181.425781 200.203125 C 181.984375 200.382812 182.136719 199.859375 181.90625 199.5625 C 182.261719 199.5625 182.597656 199.230469 182.390625 198.777344 C 182.757812 198.878906 183.300781 198.714844 183.230469 197.914062 C 183.230469 197.914062 183.578125 197.699219 183.527344 197.304688 C 183.527344 197.304688 183.949219 197.167969 183.859375 196.785156 C 183.859375 196.78125 184.113281 196.566406 184.0625 196.304688 Z M 106.078125 131.664062 C 105.949219 130.964844 105.816406 129.703125 105.128906 129.113281 C 104.4375 128.527344 103.554688 128.980469 102.777344 128.914062 C 102 128.851562 98.417969 130.503906 96.164062 132.238281 C 93.90625 133.976562 90.917969 135.65625 90.550781 135.683594 C 90.550781 135.683594 90.863281 132.8125 90.324219 131.644531 C 89.78125 130.476562 89.507812 129.832031 89.5 129.191406 C 89.492188 128.546875 89.015625 127.042969 87.011719 125.984375 C 85.007812 124.921875 80.886719 124.171875 77.664062 127.800781 C 77.664062 127.800781 74.507812 130.992188 76.390625 134.328125 C 75.992188 135.148438 76.359375 136.332031 77.664062 136.6875 C 77.664062 136.6875 78.144531 137.617188 78.613281 137.835938 L 78.730469 138.195312 C 78.730469 138.195312 76.835938 137.835938 75.71875 137.097656 C 74.597656 136.359375 70.839844 133.140625 68.535156 131.640625 C 66.226562 130.140625 61.902344 128.765625 61.222656 128.59375 C 60.539062 128.421875 58.742188 127.71875 57.945312 128.445312 C 57.144531 129.167969 56.601562 134.988281 61.402344 140.746094 C 62.382812 141.550781 63.871094 140.964844 64.804688 141.515625 C 65.734375 142.0625 66.722656 142.808594 66.773438 141.832031 C 66.824219 140.855469 66.269531 140.578125 66.773438 139.347656 C 67.28125 138.121094 68.371094 136.273438 68.015625 134.875 C 68.015625 134.875 71.582031 139.019531 73.019531 140.542969 C 74.457031 142.070312 76.144531 143.5 76.144531 143.5 C 76.144531 143.5 81.707031 143.542969 84.886719 144.765625 C 84.886719 144.765625 87.347656 145.058594 88.195312 145.144531 C 88.109375 144.847656 88.25 144.089844 88.25 144.089844 L 92.070312 142.824219 C 92.070312 142.824219 92.347656 141.722656 93.359375 141.832031 C 93.359375 141.832031 94.015625 140.632812 94.792969 140.496094 C 94.792969 140.496094 94.507812 139.640625 96.1875 138.664062 C 97.863281 137.6875 99.933594 134.621094 99.933594 134.621094 C 99.933594 134.621094 103.191406 138.757812 104.332031 142.050781 C 104.328125 142.058594 106.960938 137.050781 106.078125 131.664062 Z M 129.398438 184.171875 C 128.203125 184.027344 125.324219 184.058594 125.324219 184.058594 C 123.027344 178.46875 122.148438 167.691406 118.878906 165.183594 C 118.148438 165.5 117.484375 166.695312 116.285156 167.097656 C 115.082031 167.503906 111.59375 168.332031 110.777344 172.054688 C 110.777344 172.054688 108.480469 169.476562 108.273438 168.839844 C 108.066406 168.203125 107.617188 166.992188 107.109375 166.679688 C 106.609375 166.367188 105.996094 167.585938 105.804688 168.839844 C 105.617188 170.09375 101.636719 173.089844 101.902344 176.992188 C 103.496094 180.054688 110.242188 186.453125 116.144531 188.671875 C 116.144531 188.671875 117.0625 192.5625 117.09375 193.230469 C 117.128906 193.894531 116.027344 195.867188 116.625 197.699219 C 116.625 197.699219 125 196.371094 129.804688 197.441406 C 130.175781 197.5 130.082031 196.054688 129.445312 195.566406 C 129.121094 195.320312 128.289062 195.425781 127.582031 195.289062 C 126.878906 195.148438 125.074219 194.695312 124.464844 193.683594 C 124.464844 193.683594 126.621094 192.496094 128.070312 191.304688 C 129.523438 190.113281 131.375 188.269531 131.398438 187.859375 C 131.398438 187.859375 132.414062 187.289062 132.28125 186.582031 C 132.28125 186.582031 133.207031 185.777344 133.238281 184.855469 C 133.238281 184.855469 133.511719 184.039062 132.941406 183.546875 C 132.171875 183.058594 130.589844 184.316406 129.398438 184.171875 Z M 129.398438 184.171875 " fill-opacity="1" fill-rule="nonzero"/><path fill="#ff8317" d="M 85.457031 129.035156 C 85.863281 129.554688 85.800781 131.394531 85.324219 131.664062 C 84.855469 131.9375 82.371094 131.988281 82.058594 131.78125 C 81.746094 131.574219 80.886719 129.628906 81.066406 129.441406 C 82.242188 128.191406 85.050781 128.523438 85.457031 129.035156 Z M 86.777344 129.253906 C 86.554688 129.453125 86.878906 130.726562 86.878906 130.726562 C 86.878906 130.726562 87.574219 131.339844 87.613281 131.554688 C 87.652344 131.773438 87.457031 132.035156 87.457031 132.035156 C 87.457031 132.035156 90.085938 131.996094 90.5 131.667969 C 90.914062 131.339844 90.710938 129.363281 90.554688 129.191406 C 90.40625 129.015625 87.457031 128.640625 86.777344 129.253906 Z M 179.695312 146.132812 C 179.644531 146.261719 180.414062 146.363281 180.414062 146.363281 L 180.257812 145.074219 C 180.257812 145.074219 179.722656 146.070312 179.695312 146.132812 Z M 179.019531 144.757812 C 178.96875 145 179.234375 145.574219 179.285156 145.613281 C 179.335938 145.652344 180.210938 144.867188 180.210938 144.867188 C 180.210938 144.867188 179.066406 144.515625 179.019531 144.757812 Z M 180.273438 144.566406 C 180.304688 144.605469 180.230469 143.402344 180.054688 143.375 C 179.875 143.351562 179.296875 143.863281 179.222656 143.953125 C 179.09375 144.105469 180.242188 144.527344 180.273438 144.566406 Z M 181.339844 143.808594 C 181.316406 143.691406 180.765625 143.351562 180.652344 143.375 C 180.539062 143.402344 180.585938 144.507812 180.597656 144.566406 C 180.597656 144.566406 181.367188 143.925781 181.339844 143.808594 Z M 181.609375 144.296875 C 181.519531 144.273438 180.726562 144.769531 180.675781 144.832031 L 181.699219 145.074219 C 181.863281 144.882812 181.699219 144.320312 181.609375 144.296875 Z M 181.609375 144.296875 " fill-opacity="1" fill-rule="nonzero"/><g clip-path="url(#7e986c78fb)"><path fill="#062b52" d="M 187.234375 144.957031 L 187.277344 145.03125 C 186.925781 145.257812 186.457031 145.460938 185.933594 145.613281 C 185.304688 145.800781 184.601562 145.890625 183.902344 145.890625 C 183.109375 145.890625 182.316406 145.773438 181.621094 145.542969 C 180.996094 145.332031 180.253906 144.796875 180.222656 144.773438 L 180.328125 144.628906 C 180.335938 144.632812 181.078125 145.171875 181.679688 145.375 C 182.9375 145.796875 184.589844 145.824219 185.882812 145.445312 C 185.898438 145.441406 185.914062 145.433594 185.929688 145.433594 C 186.0625 144.765625 186.820312 140.910156 186.921875 140.65625 C 187.035156 140.375 188.210938 140.320312 188.128906 140.824219 C 188.042969 141.320312 187.234375 144.957031 187.234375 144.957031 Z M 115.082031 128.238281 L 133.875 181.496094 C 133.199219 181.957031 132.316406 182.5625 132.242188 182.621094 L 132.347656 182.761719 C 132.464844 182.671875 134.71875 181.136719 134.738281 181.117188 L 134.636719 180.972656 C 134.609375 180.992188 134.355469 181.164062 134.027344 181.390625 L 115.25 128.175781 Z M 122.113281 183.625 C 123.148438 184.09375 124.082031 184.191406 124.671875 184.191406 C 125.070312 184.191406 125.316406 184.148438 125.339844 184.144531 L 125.320312 184.054688 L 125.410156 184.050781 C 125.28125 181.699219 124.234375 162.882812 123.921875 158.871094 C 124.203125 159.671875 124.449219 160.359375 124.613281 160.832031 L 124.78125 160.769531 C 123.597656 157.4375 121.359375 151.082031 121.3125 150.871094 L 121.222656 150.886719 L 121.136719 150.894531 C 121.140625 150.992188 122.589844 155.109375 123.675781 158.183594 C 123.792969 158.636719 124.738281 175.199219 125.226562 183.976562 C 124.910156 184.015625 123.644531 184.117188 122.179688 183.460938 C 121.332031 183.082031 119.3125 180.835938 117.175781 178.460938 C 115.011719 176.054688 112.558594 173.328125 110.824219 171.980469 L 110.714844 172.117188 C 112.433594 173.457031 114.882812 176.179688 117.042969 178.578125 C 119.292969 181.074219 121.230469 183.230469 122.113281 183.625 Z M 77.386719 184.53125 L 78.011719 186.3125 L 78.179688 186.25 L 77.53125 184.417969 L 79.40625 183 L 79.296875 182.855469 L 75.03125 186.089844 L 75.140625 186.234375 L 76.703125 185.050781 L 81.472656 198.703125 L 81.640625 198.644531 L 76.851562 184.933594 Z M 98.972656 191.5625 L 80.140625 191.699219 C 79.957031 191.21875 79.902344 191.214844 79.859375 191.214844 L 79.859375 191.328125 L 79.804688 191.371094 C 79.894531 191.476562 80.285156 192.652344 80.605469 193.707031 L 80.777344 193.652344 C 80.515625 192.789062 80.332031 192.238281 80.203125 191.878906 L 98.726562 191.746094 L 96.191406 193.609375 L 96.300781 193.753906 L 99.53125 191.375 L 99.425781 191.230469 Z M 76.867188 191.332031 L 76.992188 191.699219 L 67.820312 191.699219 L 68.253906 191.371094 L 68.148438 191.226562 L 65.011719 193.582031 L 65.117188 193.726562 L 67.582031 191.875 L 77.050781 191.875 L 77.675781 193.683594 L 77.84375 193.625 L 77.03125 191.269531 Z M 102.085938 132.226562 C 101.183594 133.019531 99.964844 134.675781 99.953125 134.691406 L 100.09375 134.796875 C 100.105469 134.78125 101.316406 133.140625 102.203125 132.359375 Z M 104.269531 145.636719 L 104.285156 145.648438 L 104.269531 145.636719 C 104.304688 145.554688 104.289062 145.542969 104.261719 145.523438 L 104.136719 145.554688 L 104.210938 145.601562 L 104.136719 145.558594 C 104.117188 145.597656 103.679688 146.304688 103.257812 146.992188 C 102.726562 147.855469 102.128906 148.839844 102.070312 148.933594 L 102.222656 149.023438 C 102.28125 148.925781 102.878906 147.949219 103.414062 147.085938 C 103.503906 146.933594 103.585938 146.800781 103.660156 146.675781 L 110 164.75 L 110.167969 164.6875 L 103.78125 146.476562 C 104.085938 145.96875 104.222656 145.746094 104.269531 145.636719 Z M 89.019531 144.597656 L 89 144.683594 L 88.941406 144.75 C 88.953125 144.757812 88.964844 144.769531 89.023438 144.769531 C 89.222656 144.769531 89.960938 144.667969 92.933594 144.121094 L 92.902344 143.949219 C 91.433594 144.214844 89.191406 144.617188 89.019531 144.597656 Z M 83.679688 135.117188 C 83.828125 134.175781 84.5 133.402344 85.074219 132.832031 L 84.949219 132.707031 C 84.359375 133.296875 83.660156 134.097656 83.503906 135.089844 Z M 88.1875 145.242188 C 88.230469 145.242188 92.4375 145.433594 93.757812 145.5 L 93.769531 145.320312 C 92.449219 145.253906 88.234375 145.066406 88.195312 145.0625 Z M 88.398438 139.21875 L 88.367188 139.242188 L 88.152344 144.09375 L 88.332031 144.101562 L 88.542969 139.328125 C 89.851562 138.253906 90.574219 137.335938 90.648438 135.59375 L 90.46875 135.585938 C 90.402344 137.289062 89.71875 138.144531 88.398438 139.21875 Z M 87.75 132.730469 L 87.640625 132.867188 C 88.304688 133.394531 89.058594 133.996094 89.507812 134.777344 L 89.664062 134.6875 C 89.195312 133.875 88.429688 133.265625 87.75 132.730469 Z M 117.046875 130.511719 L 116.878906 130.574219 L 117.574219 132.558594 L 117.742188 132.496094 Z M 136.195312 174.355469 L 136.195312 174.535156 C 136.8125 174.550781 137.417969 174.558594 138 174.558594 C 140.746094 174.558594 142.914062 174.375 143.335938 174.085938 C 143.816406 173.761719 144.628906 170.6875 144.71875 170.339844 L 144.546875 170.292969 C 144.195312 171.640625 143.558594 173.722656 143.238281 173.941406 C 142.816406 174.226562 140.066406 174.457031 136.195312 174.355469 Z M 143.214844 146.386719 C 143.257812 146.386719 143.300781 146.386719 143.34375 146.386719 L 143.339844 146.210938 C 142.957031 146.21875 142.5625 146.183594 142.183594 146.117188 C 142.019531 146.089844 141.839844 146.046875 141.722656 145.925781 L 141.59375 146.046875 C 141.738281 146.199219 141.945312 146.253906 142.144531 146.292969 C 142.5 146.355469 142.859375 146.386719 143.214844 146.386719 Z M 141.488281 138.011719 C 141.476562 138.003906 141.464844 138 141.457031 138 L 141.421875 138.179688 C 141.597656 138.25 141.910156 138.355469 142.28125 138.355469 C 142.667969 138.355469 143.117188 138.246094 143.542969 137.882812 L 143.429688 137.746094 C 142.660156 138.394531 141.816406 138.148438 141.488281 138.011719 Z M 147.082031 141.234375 L 146.953125 141.109375 C 146.371094 141.710938 144.5 141.503906 144.363281 141.449219 L 144.320312 141.527344 L 144.265625 141.601562 C 144.316406 141.640625 144.777344 141.71875 145.328125 141.71875 C 145.964844 141.714844 146.714844 141.609375 147.082031 141.234375 Z M 93.335938 141.75 L 93.367188 141.925781 C 94.058594 141.796875 96.101562 142.074219 96.121094 142.078125 L 96.148438 141.898438 C 96.0625 141.894531 94.058594 141.621094 93.335938 141.75 Z M 142.234375 171.367188 L 142.0625 171.421875 C 142.441406 172.589844 142.757812 173.46875 142.761719 173.480469 L 142.929688 173.421875 C 142.929688 173.410156 142.613281 172.53125 142.234375 171.367188 Z M 135.363281 168.769531 L 135.421875 168.835938 L 135.503906 168.875 C 135.851562 168.410156 137.089844 166.824219 138.476562 165.984375 C 139.703125 165.363281 142.300781 164.878906 142.328125 164.875 L 142.296875 164.703125 C 142.195312 164.71875 140.0625 165.117188 138.738281 165.675781 C 138.691406 165.570312 138.617188 165.480469 138.503906 165.425781 C 138.417969 165.382812 138.320312 165.363281 138.207031 165.355469 C 138.195312 165.214844 138.164062 164.953125 138.121094 164.597656 C 137.9375 163.011719 137.554688 159.703125 137.65625 158.625 L 137.476562 158.609375 C 137.375 159.707031 137.761719 163.023438 137.949219 164.617188 C 137.988281 164.953125 138.015625 165.203125 138.03125 165.347656 C 137.429688 165.367188 136.691406 165.691406 136.683594 165.695312 L 136.757812 165.859375 C 137.003906 165.746094 138 165.378906 138.429688 165.585938 C 138.503906 165.621094 138.546875 165.675781 138.578125 165.746094 C 138.515625 165.777344 138.449219 165.804688 138.394531 165.835938 C 136.972656 166.6875 135.714844 168.296875 135.363281 168.769531 Z M 138.890625 159.164062 L 138.738281 159.070312 C 138.425781 159.566406 138.167969 160.097656 137.976562 160.644531 L 138.144531 160.707031 C 138.332031 160.167969 138.585938 159.648438 138.890625 159.164062 Z M 143.609375 133.882812 L 142.511719 134.179688 L 142.554688 134.351562 L 143.65625 134.050781 Z M 144.03125 140.183594 C 143.238281 140.882812 143.390625 142.191406 143.398438 142.25 L 143.578125 142.226562 C 143.578125 142.214844 143.425781 140.957031 144.152344 140.320312 Z M 142.203125 134.75 L 142.113281 134.90625 C 142.214844 134.960938 142.320312 134.984375 142.429688 134.984375 C 142.539062 134.984375 142.644531 134.964844 142.746094 134.941406 C 142.894531 134.90625 143.046875 134.867188 143.195312 134.828125 C 143.523438 134.738281 143.863281 134.644531 144.199219 134.632812 L 144.195312 134.457031 C 143.832031 134.464844 143.484375 134.5625 143.144531 134.65625 C 143 134.695312 142.851562 134.734375 142.703125 134.769531 C 142.535156 134.804688 142.34375 134.832031 142.203125 134.75 Z M 77.277344 133.75 C 76.988281 133.71875 76.566406 133.867188 76.3125 134.28125 L 76.464844 134.375 C 76.703125 133.980469 77.0625 133.925781 77.164062 133.921875 C 77.289062 133.914062 77.355469 133.949219 77.359375 133.957031 L 77.53125 133.90625 C 77.523438 133.875 77.5 133.847656 77.476562 133.828125 C 79.328125 132.46875 81.472656 130.859375 81.515625 130.703125 L 81.351562 130.636719 C 81.253906 130.785156 79.589844 132.039062 78.125 133.125 C 79.089844 131.167969 78.765625 128.691406 78.585938 128.402344 C 78.410156 128.125 77.738281 127.742188 77.710938 127.726562 L 77.621094 127.882812 C 77.804688 127.988281 78.308594 128.300781 78.429688 128.496094 C 78.554688 128.699219 78.964844 131.398438 77.785156 133.378906 C 77.605469 133.503906 77.4375 133.632812 77.277344 133.75 Z M 70.820312 157.417969 L 70.742188 157.578125 C 71.238281 157.824219 71.679688 158.179688 72.109375 158.527344 C 72.429688 158.785156 72.757812 159.046875 73.109375 159.269531 L 73.207031 159.121094 C 72.863281 158.902344 72.539062 158.640625 72.226562 158.386719 C 71.78125 158.039062 71.332031 157.675781 70.820312 157.417969 Z M 64.058594 131.324219 L 63.964844 131.472656 C 63.988281 131.488281 66.402344 133.003906 67.945312 134.933594 L 68.085938 134.824219 C 66.523438 132.871094 64.082031 131.339844 64.058594 131.324219 Z M 64.667969 141.679688 C 65.117188 141.980469 68.695312 144.90625 70.859375 146.707031 L 70.972656 146.570312 C 68.804688 144.769531 65.21875 141.839844 64.765625 141.53125 Z M 145.507812 138.164062 C 145.078125 137.820312 144.4375 137.292969 144.277344 136.84375 L 144.109375 136.90625 C 144.28125 137.402344 144.953125 137.949219 145.394531 138.304688 C 145.550781 138.433594 145.6875 138.542969 145.734375 138.601562 C 145.824219 138.707031 145.597656 139.347656 145.339844 139.878906 L 145.5 139.957031 C 145.636719 139.675781 146.078125 138.730469 145.875 138.484375 C 145.8125 138.414062 145.683594 138.3125 145.507812 138.164062 Z M 78.695312 143.640625 L 78.722656 143.726562 C 78.785156 143.707031 78.824219 143.691406 78.824219 141.199219 C 78.824219 140.023438 78.800781 138.484375 78.699219 137.828125 C 78.671875 137.671875 78.382812 137 78.277344 136.761719 C 78.386719 136.730469 78.453125 136.695312 78.460938 136.691406 L 78.375 136.535156 C 78.371094 136.535156 78.042969 136.714844 77.6875 136.605469 L 77.636719 136.777344 C 77.738281 136.808594 77.839844 136.820312 77.933594 136.820312 C 77.992188 136.820312 78.046875 136.8125 78.097656 136.804688 C 78.261719 137.167969 78.507812 137.746094 78.519531 137.855469 C 78.628906 138.539062 78.648438 140.207031 78.644531 141.574219 C 78.089844 141.273438 77.628906 140.738281 77.347656 140.40625 C 77.128906 140.148438 77.054688 140.0625 76.960938 140.089844 L 77.015625 140.261719 C 76.992188 140.269531 76.976562 140.261719 76.972656 140.261719 C 77.003906 140.28125 77.113281 140.410156 77.210938 140.523438 C 77.515625 140.878906 78.015625 141.46875 78.644531 141.777344 C 78.636719 142.769531 78.617188 143.558594 78.605469 143.625 Z M 80.242188 137.277344 C 81.160156 137.785156 82.242188 137.949219 83.199219 138.101562 L 83.226562 137.925781 C 82.242188 137.773438 81.214844 137.613281 80.332031 137.125 Z M 87.472656 176.960938 L 87.488281 176.691406 L 86.195312 176.621094 L 85.921875 173.894531 L 85.652344 173.921875 L 85.933594 176.6875 L 56.855469 198.21875 L 57.015625 198.433594 L 86.113281 176.886719 Z M 78.023438 135.597656 C 77.617188 135.535156 77.242188 135.292969 77.027344 134.949219 L 76.875 135.042969 C 77.125 135.433594 77.542969 135.703125 78 135.773438 Z M 75.425781 160.269531 C 75.183594 159.132812 74.917969 157.984375 74.648438 156.851562 L 74.472656 156.894531 C 74.746094 158.023438 75.007812 159.171875 75.25 160.304688 Z M 57.5 130.214844 L 56.820312 128.175781 L 56.652344 128.234375 L 57.332031 130.269531 Z M 72.949219 160.847656 C 73.699219 161.15625 74.433594 161.515625 75.132812 161.921875 L 75.222656 161.769531 C 74.515625 161.363281 73.773438 160.996094 73.015625 160.683594 Z M 94.75 140.46875 C 95.691406 140.425781 97.3125 139.953125 97.382812 139.929688 L 97.335938 139.757812 C 97.316406 139.761719 95.660156 140.25 94.742188 140.292969 Z M 63.128906 143.386719 C 61.6875 141.589844 61.316406 140.519531 61.3125 140.507812 L 61.144531 140.566406 C 61.152344 140.589844 61.261719 140.902344 61.582031 141.460938 L 75.488281 181.402344 L 73.820312 182.632812 L 73.925781 182.777344 L 76.359375 180.980469 L 76.253906 180.835938 L 75.636719 181.289062 L 62.011719 142.15625 C 62.261719 142.542969 62.585938 142.984375 62.992188 143.492188 Z M 87.535156 174.921875 L 87.269531 174.949219 C 87.40625 176.25 87.414062 176.25 87.554688 176.257812 L 87.699219 176.136719 L 87.5625 176.109375 L 87.5625 176.101562 L 87.683594 176.0625 C 87.65625 175.992188 87.589844 175.429688 87.535156 174.921875 Z M 88.289062 134.777344 L 88.199219 134.621094 C 87.296875 135.15625 86.109375 135.199219 85.167969 134.746094 L 85.089844 134.90625 C 85.542969 135.125 86.054688 135.238281 86.5625 135.238281 C 87.164062 135.238281 87.773438 135.082031 88.289062 134.777344 Z M 88.292969 154.535156 C 88.476562 154.511719 89.953125 154.265625 91.539062 153.992188 C 91.558594 154.023438 91.605469 154.066406 91.675781 154.136719 C 91.964844 154.425781 92.644531 155.101562 93.207031 156.253906 C 93.898438 157.671875 94.417969 158.386719 95.949219 159.609375 C 97.464844 160.808594 98.058594 161.621094 98.148438 162.601562 L 98.324219 162.582031 C 98.230469 161.546875 97.617188 160.707031 96.0625 159.46875 C 94.554688 158.269531 94.046875 157.5625 93.367188 156.175781 C 92.792969 155 92.097656 154.304688 91.800781 154.011719 C 91.78125 153.988281 91.765625 153.976562 91.753906 153.960938 C 93.496094 153.664062 95.320312 153.351562 95.683594 153.273438 L 95.648438 153.097656 C 95.277344 153.175781 93.417969 153.496094 91.660156 153.796875 C 91.648438 153.730469 91.640625 153.640625 91.636719 153.5625 C 91.605469 153.203125 91.566406 152.664062 91.25 152.335938 C 90.992188 152.074219 90.542969 151.894531 90.144531 151.738281 C 89.914062 151.648438 89.699219 151.558594 89.566406 151.476562 C 90.800781 151.285156 91.765625 151.117188 92.378906 150.980469 L 92.339844 150.808594 C 91.710938 150.945312 90.707031 151.121094 89.417969 151.316406 C 89.339844 151.1875 89.1875 150.917969 89.011719 150.597656 C 88.144531 149.039062 86.34375 145.789062 85.113281 144.730469 L 84.992188 144.863281 C 86.203125 145.90625 87.992188 149.132812 88.851562 150.6875 C 89.027344 151 89.144531 151.214844 89.222656 151.351562 C 88.457031 151.46875 87.597656 151.589844 86.65625 151.722656 C 86.585938 151.730469 86.542969 151.734375 86.535156 151.738281 L 86.5625 151.914062 C 86.570312 151.914062 86.613281 151.90625 86.679688 151.894531 C 87.65625 151.761719 88.542969 151.636719 89.332031 151.515625 C 89.449219 151.660156 89.738281 151.773438 90.074219 151.90625 C 90.453125 152.054688 90.882812 152.226562 91.113281 152.460938 C 91.386719 152.742188 91.425781 153.222656 91.449219 153.574219 C 91.457031 153.675781 91.464844 153.761719 91.472656 153.828125 C 89.902344 154.097656 88.445312 154.339844 88.261719 154.363281 Z M 96.84375 128.25 C 96.898438 128.363281 97.375 129.992188 97.679688 131.058594 L 97.851562 131.007812 C 97.617188 130.183594 97.058594 128.25 96.992188 128.15625 Z M 76.089844 143.582031 C 76.125 143.605469 79.589844 146.089844 81.804688 146.921875 L 81.871094 146.753906 C 79.675781 145.925781 76.226562 143.457031 76.191406 143.433594 Z M 96.429688 129.984375 L 95.917969 130.007812 L 95.925781 130.183594 L 96.355469 130.167969 C 96.441406 130.273438 96.746094 130.699219 96.746094 131.515625 L 96.449219 131.578125 L 96.484375 131.75 L 96.921875 131.660156 L 96.921875 131.585938 C 96.941406 130.5 96.472656 130.027344 96.453125 130.011719 Z M 65.433594 189.046875 L 67.964844 187.179688 L 67.855469 187.035156 L 67.292969 187.449219 C 66.871094 179.714844 65.96875 163.144531 65.753906 159.59375 L 66.179688 160.828125 L 66.347656 160.769531 L 62.859375 150.621094 L 62.691406 150.679688 L 65.539062 158.960938 C 65.585938 159.410156 67.0625 186.597656 67.117188 187.574219 L 65.324219 188.902344 Z M 75.972656 163.320312 C 75.964844 163.527344 75.964844 163.664062 75.964844 163.695312 L 76.144531 163.691406 C 76.144531 163.660156 76.148438 163.527344 76.152344 163.328125 C 76.175781 162.429688 76.230469 160.328125 76.121094 159.734375 L 75.945312 159.769531 C 76.050781 160.339844 75.996094 162.503906 75.972656 163.320312 Z M 83.6875 127.757812 C 84.441406 127.707031 85.207031 127.707031 85.960938 127.757812 C 86.03125 127.757812 86.109375 127.765625 86.183594 127.765625 C 86.335938 127.765625 86.488281 127.75 86.625 127.667969 L 86.535156 127.511719 C 86.378906 127.601562 86.171875 127.59375 85.972656 127.578125 C 85.210938 127.523438 84.4375 127.523438 83.675781 127.578125 Z M 86.039062 127.21875 C 86.113281 127.21875 86.203125 127.210938 86.277344 127.160156 L 86.179688 127.011719 C 86.140625 127.039062 86.066406 127.039062 85.996094 127.035156 L 84.457031 127.011719 L 84.457031 127.1875 L 86.007812 127.214844 C 86.015625 127.21875 86.023438 127.21875 86.039062 127.21875 Z M 86.789062 130.027344 C 86.71875 130 86.625 129.980469 86.515625 129.96875 C 86.507812 129.949219 86.496094 129.933594 86.488281 129.917969 L 86.40625 129.957031 C 86.105469 129.9375 85.757812 129.96875 85.679688 130.019531 L 85.632812 130.105469 L 85.742188 130.101562 L 85.773438 130.171875 C 85.835938 130.140625 86.144531 130.117188 86.410156 130.136719 C 86.632812 130.511719 86.914062 130.777344 87.148438 130.992188 C 87.414062 131.238281 87.566406 131.378906 87.523438 131.539062 C 87.5 131.710938 87.355469 132.097656 86.621094 132.742188 L 86.589844 132.769531 L 86.710938 132.902344 L 86.738281 132.878906 C 87.328125 132.359375 87.65625 131.90625 87.699219 131.578125 C 87.773438 131.320312 87.550781 131.117188 87.269531 130.859375 C 87.070312 130.675781 86.832031 130.457031 86.632812 130.164062 C 86.664062 130.171875 86.691406 130.179688 86.714844 130.1875 Z M 148.082031 162.539062 C 148.066406 162.480469 147.15625 160.398438 146.765625 159.511719 L 146.601562 159.582031 C 147.109375 160.746094 147.878906 162.507812 147.90625 162.582031 Z M 161.53125 159.105469 C 161.058594 159.792969 160.46875 160.558594 160.332031 160.59375 L 160.34375 160.683594 L 160.351562 160.769531 C 160.601562 160.75 161.363281 159.667969 161.679688 159.203125 Z M 170.5625 176.695312 C 169.753906 174.820312 167.816406 170.792969 166.269531 168.929688 L 166.136719 169.042969 C 167.664062 170.890625 169.59375 174.902344 170.402344 176.765625 Z M 152.523438 198.25 L 152.632812 198.394531 L 162.625 191.007812 L 162.519531 190.863281 Z M 174.433594 200.46875 C 174.460938 200.472656 177.085938 201.265625 178.484375 201.4375 L 178.503906 201.257812 C 177.125 201.089844 174.515625 200.304688 174.488281 200.292969 Z M 152.96875 164.71875 C 153.761719 165.246094 154.835938 166.136719 154.734375 166.457031 L 154.902344 166.511719 C 155.085938 165.945312 153.402344 164.792969 153.0625 164.570312 Z M 170.027344 196.339844 C 169.894531 196.265625 169.78125 196.160156 169.671875 196.058594 L 169.550781 196.191406 C 169.664062 196.292969 169.792969 196.410156 169.9375 196.492188 C 170.039062 196.550781 170.183594 196.609375 170.34375 196.609375 C 170.378906 196.609375 170.414062 196.605469 170.453125 196.601562 L 170.421875 196.425781 C 170.269531 196.449219 170.125 196.394531 170.027344 196.339844 Z M 154.078125 152.746094 C 154.40625 153.964844 156.042969 155.605469 156.109375 155.671875 L 156.234375 155.546875 C 156.214844 155.53125 154.5625 153.871094 154.246094 152.699219 Z M 154.328125 164.109375 L 154.273438 164.277344 C 154.382812 164.316406 155.804688 165.164062 156.089844 166.191406 L 156.257812 166.148438 C 156.214844 165.992188 156.148438 165.847656 156.070312 165.703125 L 156.195312 165.667969 C 156.058594 165.203125 155.707031 164.386719 155.457031 163.898438 L 155.296875 163.980469 C 155.511719 164.402344 155.804688 165.066406 155.964844 165.53125 C 155.417969 164.726562 154.425781 164.140625 154.328125 164.109375 Z M 168.800781 165.53125 L 155.433594 128.175781 L 155.265625 128.238281 L 168.632812 165.59375 Z M 155.273438 153.667969 L 155.445312 153.699219 C 155.507812 153.355469 155.601562 153.015625 155.726562 152.6875 L 155.5625 152.625 C 155.433594 152.960938 155.332031 153.3125 155.273438 153.667969 Z M 155.0625 130.019531 L 155.039062 130.007812 L 154.355469 130.007812 L 154.355469 130.183594 L 154.984375 130.183594 C 155.085938 130.265625 155.523438 130.65625 155.472656 131.492188 L 154.890625 131.578125 L 154.914062 131.753906 L 155.636719 131.644531 L 155.640625 131.578125 C 155.746094 130.496094 155.089844 130.042969 155.0625 130.019531 Z M 179.847656 200.292969 L 179.84375 200.472656 C 179.902344 200.472656 180.253906 200.605469 180.285156 200.871094 L 180.464844 200.847656 C 180.417969 200.46875 179.960938 200.292969 179.847656 200.292969 Z M 166.195312 165.042969 C 166.03125 165.050781 165.652344 165.09375 165.167969 165.152344 C 164.078125 165.28125 162.425781 165.476562 161.546875 165.425781 L 161.535156 165.605469 C 161.632812 165.613281 161.742188 165.613281 161.855469 165.613281 C 162.785156 165.613281 164.210938 165.445312 165.1875 165.328125 C 165.664062 165.273438 166.042969 165.230469 166.199219 165.222656 Z M 184.925781 152.09375 C 184.738281 153.652344 184.414062 154.867188 184.359375 155.054688 C 184.261719 155.066406 184.136719 155.074219 183.996094 155.074219 L 183.804688 150.949219 C 183.785156 150.5 183.773438 150.285156 183.753906 150.1875 L 183.765625 150.1875 L 183.753906 150.1875 C 183.738281 150.09375 183.714844 150.09375 183.671875 150.097656 L 183.585938 150.1875 L 183.675781 150.1875 L 183.585938 150.195312 C 183.59375 150.277344 183.742188 153.398438 183.820312 155.070312 C 183.738281 155.070312 183.648438 155.0625 183.558594 155.058594 L 183.574219 155.046875 C 183.570312 155.042969 183.101562 154.476562 182.667969 151.917969 L 182.492188 151.945312 C 182.835938 153.964844 183.195312 154.761719 183.355469 155.039062 C 183.292969 155.03125 183.230469 155.023438 183.167969 155.015625 L 183.136719 155.191406 C 183.421875 155.234375 183.691406 155.253906 183.921875 155.253906 C 184.367188 155.253906 184.667969 155.195312 184.6875 155.191406 L 184.652344 155.015625 C 184.652344 155.015625 184.613281 155.023438 184.554688 155.03125 C 184.640625 154.703125 184.929688 153.554688 185.101562 152.113281 Z M 183.324219 196.292969 C 183.25 196.269531 183.152344 196.238281 183.128906 196.21875 L 183.003906 196.34375 C 183.054688 196.402344 183.152344 196.429688 183.269531 196.464844 C 183.46875 196.523438 183.714844 196.605469 183.773438 196.808594 L 183.945312 196.757812 C 183.863281 196.460938 183.550781 196.359375 183.324219 196.292969 Z M 179.300781 158.875 C 174.765625 158.875 170.375 158.691406 166.945312 158.359375 L 166.925781 158.539062 C 170.367188 158.875 174.761719 159.058594 179.300781 159.058594 C 187.996094 159.058594 195.566406 158.390625 197.710938 157.433594 L 197.640625 157.269531 C 195.515625 158.214844 187.972656 158.875 179.300781 158.875 Z M 200.429688 73.503906 L 200.34375 73.757812 C 198.191406 73.011719 178.886719 66.644531 163.03125 71.910156 L 163 71.921875 L 162.964844 71.914062 C 162.769531 71.875 162.574219 71.839844 162.378906 71.804688 C 162.996094 73.117188 165.816406 79.273438 165.984375 82.230469 L 165.71875 82.246094 C 165.546875 79.203125 162.386719 72.445312 162.050781 71.738281 C 145.472656 68.550781 129.707031 67.464844 116.253906 67.390625 C 116.144531 69.203125 115.675781 77.363281 115.476562 82.242188 L 115.207031 82.230469 C 115.40625 77.363281 115.878906 69.230469 115.984375 67.390625 C 113.8125 67.378906 111.703125 67.398438 109.660156 67.4375 C 109.664062 69.039062 109.679688 82.296875 109.660156 82.714844 L 109.394531 82.707031 C 109.410156 82.296875 109.394531 68.980469 109.394531 67.445312 C 103.675781 67.558594 98.488281 67.839844 93.976562 68.191406 C 84.601562 68.917969 76.996094 70.007812 71.894531 70.878906 C 69.773438 73.472656 67.214844 81.984375 67.183594 82.070312 L 66.929688 81.996094 C 67.03125 81.652344 69.390625 73.8125 71.5 70.949219 C 67.199219 71.695312 64.777344 72.265625 64.722656 72.273438 L 64.691406 72.28125 L 64.660156 72.273438 C 44.835938 67.710938 27.03125 72.160156 25.710938 73.992188 C 25.625 74.113281 25.660156 74.167969 25.667969 74.191406 L 25.441406 74.328125 C 25.378906 74.226562 25.335938 74.058594 25.496094 73.835938 C 26.238281 72.800781 31.296875 71.222656 38.175781 70.46875 C 44.289062 69.800781 53.832031 69.523438 64.632812 71.988281 C 65.609375 70.398438 81.003906 45.835938 111.574219 27.535156 C 111.511719 27.515625 111.449219 27.5 111.390625 27.472656 C 110.429688 27.105469 110.136719 26.386719 110.125 26.351562 L 110.375 26.253906 C 110.378906 26.261719 110.644531 26.902344 111.496094 27.226562 C 112.574219 27.632812 114.121094 27.367188 115.976562 26.449219 L 116.09375 26.6875 C 115.863281 26.804688 115.640625 26.90625 115.414062 27 C 116.824219 27.476562 123.875 30.027344 132.574219 36.042969 C 141.492188 42.210938 154.015625 53.390625 163.058594 71.617188 C 178.972656 66.390625 198.273438 72.757812 200.429688 73.503906 Z M 162.746094 71.601562 C 153.742188 53.511719 141.300781 42.40625 132.429688 36.269531 C 122.777344 29.59375 115.152344 27.195312 115.078125 27.171875 L 115.089844 27.136719 C 114.164062 27.503906 113.339844 27.683594 112.617188 27.683594 C 112.34375 27.683594 112.085938 27.65625 111.84375 27.601562 L 111.878906 27.664062 C 82.113281 45.425781 66.714844 69.164062 64.980469 71.9375 C 66.917969 71.5 77.820312 69.167969 93.957031 67.914062 C 100.15625 67.433594 107.628906 67.082031 116.007812 67.121094 C 116.007812 67.050781 116.011719 67.007812 116.011719 67.003906 L 116.28125 67.019531 C 116.28125 67.023438 116.277344 67.0625 116.273438 67.121094 C 129.90625 67.199219 145.917969 68.316406 162.746094 71.601562 Z M 180.816406 199.734375 C 180.703125 199.707031 180.527344 199.664062 180.503906 199.632812 L 180.34375 199.714844 C 180.398438 199.8125 180.554688 199.855469 180.777344 199.90625 C 181.011719 199.96875 181.332031 200.046875 181.335938 200.199219 L 181.515625 200.195312 C 181.507812 199.90625 181.125 199.8125 180.816406 199.734375 Z M 185.851562 148.84375 C 185.105469 149.050781 184.308594 149.230469 183.527344 149.136719 C 182.863281 149.058594 182.214844 148.777344 181.703125 148.34375 L 181.589844 148.476562 C 182.125 148.933594 182.804688 149.234375 183.503906 149.316406 C 183.660156 149.335938 183.808594 149.339844 183.960938 149.339844 C 184.621094 149.339844 185.28125 149.1875 185.902344 149.011719 Z M 181.613281 198.210938 C 181.523438 198.199219 181.433594 198.183594 181.402344 198.164062 L 181.296875 198.308594 C 181.367188 198.355469 181.460938 198.375 181.582031 198.390625 C 181.832031 198.429688 182.140625 198.476562 182.308594 198.816406 L 182.46875 198.738281 C 182.257812 198.316406 181.867188 198.253906 181.613281 198.210938 Z M 181.367188 199.085938 C 181.207031 199.039062 181.058594 198.992188 180.992188 198.921875 L 180.863281 199.042969 C 180.964844 199.152344 181.132812 199.203125 181.316406 199.257812 C 181.550781 199.328125 181.789062 199.402344 181.875 199.59375 L 182.039062 199.519531 C 181.917969 199.253906 181.621094 199.164062 181.367188 199.085938 Z M 178.410156 161.597656 L 178.410156 161.777344 L 180.761719 161.773438 L 180.761719 161.59375 Z M 183 196.839844 C 182.855469 196.78125 182.695312 196.71875 182.65625 196.667969 L 182.515625 196.777344 C 182.585938 196.867188 182.746094 196.933594 182.933594 197.003906 C 183.140625 197.085938 183.417969 197.195312 183.441406 197.316406 L 183.617188 197.285156 C 183.578125 197.070312 183.28125 196.953125 183 196.839844 Z M 181.386719 196.863281 L 176.605469 194.457031 C 176.578125 194.441406 173.703125 193.058594 172.542969 191.390625 C 171.359375 189.691406 168.605469 179.425781 168.597656 179.34375 L 168.507812 179.351562 L 168.417969 179.351562 C 168.417969 179.417969 171.164062 189.714844 172.398438 191.492188 C 173.585938 193.199219 176.410156 194.558594 176.527344 194.617188 L 181.082031 196.914062 L 181.324219 197.03125 C 181.773438 197.140625 182.96875 197.511719 183.148438 197.945312 L 183.3125 197.878906 C 183.066406 197.285156 181.539062 196.898438 181.386719 196.863281 Z M 146.550781 139.714844 C 146.457031 139.636719 146.367188 139.554688 146.347656 139.53125 L 146.191406 139.621094 C 146.210938 139.664062 146.269531 139.714844 146.433594 139.851562 C 146.683594 140.066406 147.105469 140.425781 147.394531 140.816406 L 147.535156 140.707031 C 147.234375 140.300781 146.808594 139.929688 146.550781 139.714844 Z M 141.300781 132.144531 C 141.050781 132.066406 140.8125 132.089844 140.585938 132.210938 C 139.714844 132.6875 139.246094 134.578125 138.867188 136.09375 C 138.773438 136.480469 138.679688 136.847656 138.59375 137.132812 C 138.121094 138.703125 136.644531 139.695312 135.253906 140.457031 C 134.476562 140.886719 134.238281 141.460938 134.179688 141.871094 C 134.085938 142.484375 134.320312 143.152344 134.804688 143.652344 C 135.570312 144.445312 137.574219 144.074219 137.921875 143.996094 C 138.589844 144.691406 140.226562 146.445312 140.328125 146.835938 L 140.5 146.792969 C 140.367188 146.28125 138.253906 144.085938 138.015625 143.839844 L 137.980469 143.804688 L 137.929688 143.816406 C 137.910156 143.820312 135.683594 144.304688 134.929688 143.53125 C 134.484375 143.070312 134.265625 142.460938 134.351562 141.898438 C 134.429688 141.371094 134.773438 140.929688 135.335938 140.621094 C 136.757812 139.839844 138.273438 138.820312 138.761719 137.1875 C 138.847656 136.898438 138.941406 136.527344 139.035156 136.136719 C 139.386719 134.730469 139.859375 132.808594 140.667969 132.367188 C 140.855469 132.265625 141.050781 132.25 141.269531 132.320312 L 141.300781 132.332031 L 141.332031 132.320312 C 141.34375 132.3125 142.558594 131.789062 144.121094 133.386719 C 145.710938 135.019531 146 135.476562 146.003906 135.480469 L 146.160156 135.386719 C 146.148438 135.367188 145.871094 134.917969 144.25 133.265625 C 142.726562 131.703125 141.519531 132.058594 141.300781 132.144531 Z M 144.878906 136.140625 L 145.003906 136.265625 C 145.027344 136.246094 145.582031 135.714844 146.410156 136.191406 L 146.5 136.039062 C 145.546875 135.488281 144.886719 136.136719 144.878906 136.140625 Z M 140.4375 137.992188 C 140.242188 138.019531 140.046875 138.066406 139.855469 138.128906 L 139.914062 138.296875 C 140.089844 138.238281 140.277344 138.191406 140.460938 138.164062 Z M 140.5 138.691406 L 140.402344 138.542969 L 140.109375 138.730469 L 140.207031 138.882812 Z M 145.558594 137.375 L 145.488281 137.539062 C 145.667969 137.621094 145.929688 137.695312 146.199219 137.695312 C 146.515625 137.695312 146.832031 137.585938 146.996094 137.246094 L 146.835938 137.167969 C 146.53125 137.792969 145.570312 137.378906 145.558594 137.375 Z M 134.035156 184.589844 L 144.5 176.839844 L 145.875 176.917969 L 145.882812 176.738281 L 144.554688 176.664062 L 144.277344 173.898438 L 144.097656 173.917969 L 144.378906 176.707031 L 133.929688 184.441406 Z M 145.957031 176.207031 L 146.050781 176.125 L 145.957031 176.105469 L 145.957031 176.101562 L 146.039062 176.074219 C 146.011719 176.007812 145.945312 175.4375 145.890625 174.921875 L 145.710938 174.941406 C 145.84375 176.199219 145.863281 176.199219 145.957031 176.207031 Z M 135.003906 142.046875 C 135.148438 142.046875 135.851562 142.210938 136.347656 142.9375 L 136.492188 142.839844 C 135.949219 142.039062 135.175781 141.871094 135.003906 141.871094 Z M 147.015625 162.167969 L 145.105469 157.8125 L 144.941406 157.886719 L 146.851562 162.242188 Z M 146.851562 145.824219 C 147.425781 145.246094 148.492188 144.167969 148.5625 142.523438 L 148.382812 142.515625 C 148.316406 144.09375 147.28125 145.140625 146.722656 145.699219 C 146.503906 145.917969 146.402344 146.027344 146.375 146.117188 C 146.289062 146.429688 146.722656 147.265625 146.808594 147.429688 L 146.964844 147.347656 C 146.777344 146.992188 146.492188 146.355469 146.546875 146.167969 C 146.566406 146.117188 146.710938 145.964844 146.851562 145.824219 Z M 140.605469 136.824219 L 140.75 136.925781 C 140.757812 136.917969 141.691406 135.851562 142.867188 136.429688 L 142.945312 136.269531 C 141.761719 135.6875 140.753906 136.617188 140.605469 136.824219 Z M 132.058594 186.621094 C 132.199219 186.679688 132.292969 186.785156 132.347656 186.949219 L 132.515625 186.894531 C 132.445312 186.679688 132.3125 186.535156 132.128906 186.453125 C 131.679688 186.273438 131.027344 186.5625 130.773438 186.695312 L 130.800781 186.78125 L 130.855469 186.855469 C 131.09375 186.734375 131.679688 186.464844 132.058594 186.621094 Z M 127.917969 191.671875 L 129.53125 190.703125 C 129.640625 187.726562 131.394531 184.996094 131.394531 184.996094 L 129.753906 184.0625 L 128.453125 184.0625 L 130.28125 185.191406 C 128.566406 186.867188 127.800781 191.511719 127.917969 191.671875 Z M 135.265625 191.332031 L 135.863281 192.976562 L 127.621094 192.976562 L 127.621094 193.15625 L 135.925781 193.15625 L 136.125 193.710938 L 136.292969 193.648438 L 135.433594 191.269531 Z M 160.246094 187.320312 C 160.347656 186.460938 160.488281 186.074219 160.695312 185.574219 L 160.53125 185.507812 C 160.519531 185.546875 160.5 185.582031 160.484375 185.617188 C 160.109375 184.914062 158.960938 182.226562 158.011719 179.957031 C 157.992188 179.910156 157.960938 179.835938 157.878906 179.867188 L 157.828125 179.984375 L 157.847656 180.027344 C 158.359375 181.261719 160.007812 185.191406 160.398438 185.832031 C 160.253906 186.214844 160.148438 186.613281 160.070312 187.304688 C 160.035156 187.59375 159.886719 187.941406 159.742188 188.28125 C 159.457031 188.941406 159.167969 189.621094 159.597656 190.070312 L 159.726562 189.945312 C 159.378906 189.582031 159.648438 188.957031 159.90625 188.347656 C 160.058594 188 160.210938 187.636719 160.246094 187.320312 Z M 155.300781 193.15625 C 154.957031 193.402344 154.714844 193.570312 154.65625 193.59375 L 154.675781 193.679688 L 154.671875 193.769531 C 154.785156 193.769531 155.890625 192.960938 157.957031 191.371094 L 157.851562 191.226562 C 157.167969 191.753906 156.226562 192.464844 155.542969 192.972656 L 138.96875 192.972656 L 138.367188 191.265625 L 138.203125 191.328125 L 139.035156 193.707031 L 139.203125 193.648438 L 139.027344 193.152344 Z M 126.675781 194.671875 C 126.675781 194.671875 125.035156 195.960938 124.460938 197.625 L 125.566406 197.953125 C 126.167969 196.816406 127.785156 195.292969 127.785156 195.292969 C 127.777344 194.839844 126.675781 194.671875 126.675781 194.671875 Z M 146.246094 185.753906 L 146.246094 185.578125 C 146.15625 185.578125 137.132812 185.503906 136.335938 185.488281 C 136.203125 185.121094 136.066406 184.738281 136 184.582031 C 136.910156 183.796875 137.640625 183.179688 137.734375 183.132812 L 137.707031 183.050781 L 137.707031 182.960938 C 137.664062 182.960938 137.554688 182.960938 133.238281 186.753906 L 133.355469 186.890625 C 134.109375 186.226562 135.046875 185.410156 135.859375 184.707031 C 135.96875 184.992188 136.253906 185.792969 136.441406 186.3125 L 136.605469 186.25 C 136.574219 186.15625 136.492188 185.925781 136.398438 185.667969 C 137.550781 185.683594 145.875 185.753906 146.246094 185.753906 Z M 161.570312 160.96875 L 160.308594 161.457031 L 160.371094 161.625 L 161.632812 161.136719 Z M 130.425781 187.367188 L 130.488281 187.535156 C 130.492188 187.53125 130.507812 187.527344 130.527344 187.519531 C 130.601562 187.480469 130.820312 187.363281 131.011719 187.445312 C 131.144531 187.503906 131.242188 187.648438 131.304688 187.882812 L 131.476562 187.835938 C 131.394531 187.550781 131.265625 187.363281 131.082031 187.285156 C 130.820312 187.164062 130.535156 187.3125 130.425781 187.367188 Z M 132.722656 186.070312 L 132.878906 185.984375 C 132.75 185.746094 132.5625 185.589844 132.324219 185.523438 C 131.800781 185.378906 131.21875 185.714844 131.191406 185.726562 L 131.28125 185.878906 C 131.289062 185.878906 131.828125 185.566406 132.277344 185.695312 C 132.46875 185.75 132.621094 185.875 132.722656 186.070312 Z M 133.363281 185.152344 L 133.53125 185.09375 C 133.4375 184.820312 133.265625 184.636719 133.03125 184.542969 C 132.496094 184.324219 131.777344 184.644531 131.570312 184.75 L 131.648438 184.910156 C 131.785156 184.84375 132.484375 184.515625 132.964844 184.707031 C 133.15625 184.785156 133.285156 184.929688 133.363281 185.152344 Z M 122.203125 190.714844 C 121.753906 190.351562 119.59375 189.671875 117.855469 189.128906 C 117.109375 188.894531 116.460938 188.691406 116.171875 188.582031 L 116.109375 188.75 C 116.398438 188.859375 117.050781 189.0625 117.804688 189.300781 C 119.4375 189.8125 121.671875 190.515625 122.09375 190.855469 C 122.710938 191.359375 124.375 193.710938 124.390625 193.730469 L 124.539062 193.628906 C 124.464844 193.527344 122.839844 191.230469 122.203125 190.714844 Z M 122.203125 190.714844 " fill-opacity="1" fill-rule="nonzero"/></g><path fill="#f7e8df" d="M 99.804688 164.3125 C 102.222656 164.425781 105.273438 164.703125 107.171875 166.613281 L 107.046875 166.738281 C 105.035156 164.714844 101.660156 164.570312 99.195312 164.464844 C 98.773438 164.445312 98.371094 164.425781 98.003906 164.402344 C 95.546875 164.234375 93.316406 165.152344 93.195312 165.367188 L 93.027344 165.300781 C 93.152344 164.960938 95.550781 164.054688 98.015625 164.222656 C 98.378906 164.25 98.777344 164.265625 99.199219 164.285156 C 99.328125 164.292969 99.460938 164.296875 99.597656 164.300781 C 99.148438 163.660156 98.683594 163.105469 98.546875 163.070312 L 98.589844 162.902344 C 98.914062 162.984375 99.777344 164.253906 99.8125 164.304688 Z M 99.65625 173.101562 C 99.660156 173.148438 99.785156 174.230469 100.308594 175.035156 L 100.457031 174.941406 C 99.960938 174.167969 99.835938 173.09375 99.835938 173.085938 Z M 98.597656 173.898438 C 98.847656 174.277344 99.144531 174.617188 99.484375 174.921875 L 99.601562 174.785156 C 99.273438 174.496094 98.988281 174.164062 98.746094 173.796875 Z M 96.765625 172.757812 L 96.605469 172.839844 C 96.835938 173.269531 97.207031 173.625 97.648438 173.832031 L 97.722656 173.671875 C 97.3125 173.480469 96.972656 173.15625 96.765625 172.757812 Z M 187.949219 140.734375 C 187.394531 140.875 187.148438 140.679688 187.136719 140.667969 L 187.019531 140.804688 C 187.027344 140.8125 187.144531 140.910156 187.386719 140.949219 C 187.539062 140.972656 187.738281 140.96875 187.992188 140.90625 Z M 187.949219 140.734375 " fill-opacity="1" fill-rule="nonzero"/><path fill="#062b52" d="M 114.164062 193.03125 C 112.445312 194.371094 110.136719 194.367188 107.296875 194.21875 C 104.296875 194.058594 101.644531 194.75 101.617188 194.757812 L 101.570312 194.585938 C 101.601562 194.578125 104.273438 193.886719 107.304688 194.042969 C 110.199219 194.191406 112.378906 194.199219 114.054688 192.894531 Z M 51.347656 198.347656 L 51.367188 198.527344 C 51.40625 198.523438 55.390625 198.082031 60.660156 198.789062 L 60.6875 198.613281 C 55.394531 197.902344 51.386719 198.34375 51.347656 198.347656 Z M 78.917969 198.808594 C 78.234375 198.867188 77.695312 198.914062 77.519531 198.941406 L 77.542969 199.113281 C 77.71875 199.089844 78.253906 199.042969 78.933594 198.984375 C 80.664062 198.832031 83.277344 198.605469 84.066406 198.375 L 84.015625 198.207031 C 83.242188 198.429688 80.535156 198.667969 78.917969 198.808594 Z M 88.695312 198.382812 C 88.761719 198.382812 95.257812 198.542969 97.710938 198.75 L 97.726562 198.574219 C 95.265625 198.367188 88.765625 198.210938 88.699219 198.207031 Z M 116.730469 198.390625 C 114.242188 198.25 110.453125 197.996094 110.214844 197.878906 L 110.117188 198.027344 C 110.378906 198.199219 115.660156 198.507812 116.714844 198.570312 Z M 114.242188 200.082031 C 113.914062 200.097656 113.875 200.101562 113.863281 200.101562 L 113.882812 200.277344 C 113.902344 200.277344 114.03125 200.269531 114.25 200.261719 C 120.347656 199.984375 130.761719 199.363281 132.011719 198.285156 L 131.894531 198.148438 C 131.015625 198.910156 124.578125 199.613281 114.242188 200.082031 Z M 135.722656 198.085938 L 135.785156 198.179688 L 135.796875 198.25 C 135.992188 198.203125 140.664062 197.964844 142.804688 198.25 L 142.832031 198.074219 C 140.777344 197.800781 135.886719 197.980469 135.722656 198.085938 Z M 148.167969 197.957031 L 148.167969 197.929688 L 147.761719 197.929688 L 147.761719 198.109375 L 148.066406 198.109375 C 148.472656 198.21875 150.636719 198.511719 152.839844 198.511719 C 154.238281 198.511719 155.648438 198.394531 156.628906 198.039062 L 156.570312 197.871094 C 154.085938 198.773438 148.84375 198.085938 148.167969 197.957031 Z M 190.925781 197.433594 C 188.839844 197.457031 184.417969 198.675781 184.339844 198.75 L 184.410156 198.828125 L 184.441406 198.898438 C 184.578125 198.839844 188.839844 197.636719 190.925781 197.613281 Z M 190.925781 197.433594 " fill-opacity="1" fill-rule="nonzero"/></svg>