<svg xmlns="http://www.w3.org/2000/svg" xmlns:xlink="http://www.w3.org/1999/xlink" width="1920" zoomAndPan="magnify" viewBox="0 0 1440 809.999993" height="1080" preserveAspectRatio="xMidYMid meet" version="1.0"><defs><clipPath id="f0419af63e"><path d="M 636 270 L 862.785156 270 L 862.785156 567 L 636 567 Z M 636 270 " clip-rule="nonzero"/></clipPath><clipPath id="99c6db40e4"><path d="M 577.035156 471 L 589 471 L 589 508 L 577.035156 508 Z M 577.035156 471 " clip-rule="nonzero"/></clipPath></defs><path fill="#5670ef" d="M 688.929688 261.796875 L 768.871094 261.796875 C 771.390625 261.796875 773.425781 259.753906 773.425781 257.238281 L 773.425781 247.558594 C 773.425781 245.039062 771.382812 243 768.871094 243 L 688.929688 243 C 686.410156 243 684.375 245.042969 684.375 247.558594 L 684.375 257.234375 C 684.375 259.753906 686.417969 261.796875 688.929688 261.796875 Z M 688.929688 261.796875 " fill-opacity="1" fill-rule="nonzero"/><path fill="#5670ef" d="M 813.800781 435.230469 C 812.507812 435.230469 811.453125 436.28125 811.453125 437.574219 L 811.453125 526.867188 C 811.453125 532.578125 806.8125 537.21875 801.101562 537.21875 L 710.195312 537.21875 C 708.902344 537.21875 707.847656 538.273438 707.847656 539.566406 C 707.847656 540.859375 708.902344 541.910156 710.195312 541.910156 L 758.542969 541.910156 L 758.542969 557.851562 C 758.542969 562.890625 762.644531 566.992188 767.683594 566.992188 L 779.175781 566.992188 C 784.214844 566.992188 788.316406 562.890625 788.316406 557.851562 L 788.316406 541.910156 L 801.09375 541.910156 C 809.390625 541.910156 816.140625 535.164062 816.140625 526.867188 L 816.140625 437.574219 C 816.144531 436.28125 815.09375 435.230469 813.800781 435.230469 Z M 783.632812 557.859375 C 783.632812 560.3125 781.636719 562.308594 779.183594 562.308594 L 767.691406 562.308594 C 765.238281 562.308594 763.242188 560.3125 763.242188 557.859375 L 763.242188 556.859375 L 768.695312 556.859375 C 775.074219 556.859375 780.644531 553.402344 783.636719 548.261719 L 783.636719 557.859375 Z M 783.632812 557.859375 " fill-opacity="1" fill-rule="nonzero"/><g clip-path="url(#f0419af63e)"><path fill="#5670ef" d="M 860.199219 323.414062 C 858.347656 321.5625 855.796875 320.691406 853.203125 321.027344 C 843.855469 322.234375 835.144531 326.671875 828.675781 333.519531 L 816.152344 346.765625 L 816.152344 327.21875 C 816.152344 318.925781 809.40625 312.175781 801.109375 312.175781 L 760.59375 312.175781 L 760.59375 272.378906 C 760.59375 271.085938 759.542969 270.03125 758.246094 270.03125 C 756.953125 270.03125 755.902344 271.085938 755.902344 272.378906 L 755.902344 312.175781 L 701.925781 312.175781 L 701.925781 272.378906 C 701.925781 271.085938 700.871094 270.03125 699.578125 270.03125 C 698.285156 270.03125 697.234375 271.085938 697.234375 272.378906 L 697.234375 312.175781 L 656.71875 312.175781 C 648.421875 312.175781 641.675781 318.925781 641.675781 327.21875 L 641.675781 386.4375 C 640.101562 388.148438 638.53125 389.875 637.011719 391.578125 C 636.148438 392.542969 636.234375 394.03125 637.199219 394.886719 C 637.648438 395.285156 638.203125 395.484375 638.761719 395.484375 C 639.402344 395.484375 640.046875 395.214844 640.507812 394.699219 C 640.890625 394.269531 641.28125 393.84375 641.667969 393.414062 L 641.667969 526.867188 C 641.667969 535.164062 648.417969 541.910156 656.710938 541.910156 L 669.492188 541.910156 L 669.492188 557.851562 C 669.492188 562.890625 673.59375 566.992188 678.632812 566.992188 L 690.125 566.992188 C 695.164062 566.992188 699.265625 562.890625 699.265625 557.851562 L 699.265625 539.566406 C 699.265625 538.273438 698.210938 537.21875 696.917969 537.21875 L 656.707031 537.21875 C 650.996094 537.21875 646.351562 532.578125 646.351562 526.867188 L 646.351562 327.21875 C 646.351562 321.511719 650.996094 316.867188 656.707031 316.867188 L 801.101562 316.867188 C 806.8125 316.867188 811.453125 321.511719 811.453125 327.21875 L 811.453125 351.726562 L 810.738281 352.484375 L 737.65625 333.417969 C 736.832031 333.203125 735.953125 333.4375 735.351562 334.042969 L 730.464844 338.925781 C 729.425781 339.964844 729.554688 341.6875 730.738281 342.558594 L 783.457031 381.339844 L 756.90625 409.421875 L 741.367188 405.167969 C 740.722656 404.992188 740.035156 405.101562 739.472656 405.460938 L 727.367188 413.34375 C 726.691406 413.785156 726.285156 414.550781 726.304688 415.359375 C 726.324219 416.171875 726.753906 416.914062 727.457031 417.332031 L 749.765625 430.542969 L 742.714844 437.59375 C 741.796875 438.511719 741.796875 439.992188 742.714844 440.910156 C 743.171875 441.367188 743.773438 441.59375 744.371094 441.59375 C 744.964844 441.59375 745.570312 441.367188 746.023438 440.910156 L 753.074219 433.863281 L 766.289062 456.167969 C 766.703125 456.867188 767.449219 457.300781 768.257812 457.324219 C 768.28125 457.324219 768.292969 457.324219 768.304688 457.324219 C 769.097656 457.324219 769.839844 456.921875 770.269531 456.257812 L 778.148438 444.15625 C 778.511719 443.59375 778.625 442.902344 778.445312 442.257812 L 774.191406 426.71875 L 802.269531 400.167969 L 841.027344 452.851562 C 841.898438 454.039062 843.621094 454.167969 844.660156 453.128906 L 849.542969 448.242188 C 850.148438 447.640625 850.382812 446.761719 850.167969 445.9375 L 831.109375 372.894531 L 850.085938 354.949219 C 856.9375 348.476562 861.371094 339.765625 862.578125 330.421875 C 862.917969 327.816406 862.046875 325.261719 860.199219 323.414062 Z M 674.175781 548.257812 C 677.171875 553.398438 682.738281 556.855469 689.117188 556.855469 L 691.449219 556.855469 C 692.609375 556.855469 693.6875 556.492188 694.574219 555.871094 L 694.574219 557.851562 C 694.574219 560.304688 692.578125 562.300781 690.125 562.300781 L 678.632812 562.300781 C 676.179688 562.300781 674.183594 560.304688 674.183594 557.851562 L 674.183594 548.257812 Z M 857.925781 329.804688 C 856.855469 338.082031 852.929688 345.796875 846.863281 351.53125 L 769.949219 424.257812 C 769.316406 424.855469 769.070312 425.746094 769.296875 426.585938 L 773.648438 442.464844 L 768.40625 450.519531 L 756.503906 430.425781 L 764.914062 422.015625 C 765.832031 421.097656 765.832031 419.613281 764.914062 418.695312 C 763.996094 417.777344 762.515625 417.777344 761.597656 418.695312 L 753.1875 427.105469 L 733.09375 415.207031 L 741.148438 409.964844 L 757.027344 414.316406 C 757.859375 414.542969 758.757812 414.292969 759.355469 413.664062 L 832.082031 336.742188 C 837.808594 330.675781 845.53125 326.75 853.804688 325.679688 C 854.953125 325.53125 856.070312 325.914062 856.886719 326.730469 C 857.691406 327.546875 858.074219 328.667969 857.925781 329.804688 Z M 857.925781 329.804688 " fill-opacity="1" fill-rule="nonzero"/></g><path fill="#5670ef" d="M 598.585938 447.574219 C 598.960938 447.792969 599.371094 447.902344 599.78125 447.902344 C 600.582031 447.902344 601.359375 447.492188 601.796875 446.75 C 606.855469 438.203125 612.773438 429.378906 619.378906 420.511719 C 620.15625 419.472656 619.941406 418.007812 618.90625 417.230469 C 617.867188 416.453125 616.398438 416.667969 615.621094 417.707031 C 608.914062 426.703125 602.902344 435.671875 597.761719 444.355469 C 597.105469 445.476562 597.472656 446.914062 598.585938 447.574219 Z M 598.585938 447.574219 " fill-opacity="1" fill-rule="nonzero"/><path fill="#5670ef" d="M 628.742188 520.894531 C 619.734375 524.039062 611.746094 525.628906 604.992188 525.628906 C 602.761719 525.628906 600.652344 525.445312 598.714844 525.097656 C 597.441406 524.871094 596.222656 525.714844 595.988281 526.988281 C 595.753906 528.261719 596.601562 529.480469 597.875 529.714844 C 600.082031 530.117188 602.480469 530.316406 604.992188 530.316406 C 612.277344 530.316406 620.789062 528.636719 630.28125 525.324219 C 631.507812 524.898438 632.152344 523.5625 631.722656 522.335938 C 631.300781 521.117188 629.960938 520.46875 628.742188 520.894531 Z M 628.742188 520.894531 " fill-opacity="1" fill-rule="nonzero"/><g clip-path="url(#99c6db40e4)"><path fill="#5670ef" d="M 586.523438 471.878906 C 585.320312 471.414062 583.957031 472.019531 583.496094 473.222656 C 579.242188 484.308594 577.082031 494.117188 577.082031 502.402344 C 577.082031 503.359375 577.109375 504.3125 577.167969 505.222656 C 577.25 506.460938 578.28125 507.421875 579.507812 507.421875 C 579.5625 507.421875 579.609375 507.421875 579.664062 507.414062 C 580.957031 507.332031 581.933594 506.214844 581.855469 504.921875 C 581.800781 504.109375 581.773438 503.257812 581.773438 502.402344 C 581.773438 494.703125 583.824219 485.453125 587.878906 474.90625 C 588.332031 473.699219 587.730469 472.347656 586.523438 471.878906 Z M 586.523438 471.878906 " fill-opacity="1" fill-rule="nonzero"/></g><path fill="#5670ef" d="M 683.628906 490.398438 C 674.652344 496.933594 665.746094 502.722656 657.160156 507.613281 C 656.035156 508.257812 655.648438 509.683594 656.285156 510.8125 C 656.71875 511.566406 657.507812 511.996094 658.320312 511.996094 C 658.714844 511.996094 659.109375 511.898438 659.480469 511.6875 C 668.210938 506.710938 677.265625 500.828125 686.386719 494.191406 C 687.429688 493.429688 687.664062 491.960938 686.902344 490.914062 C 686.152344 489.871094 684.683594 489.636719 683.628906 490.398438 Z M 683.628906 490.398438 " fill-opacity="1" fill-rule="nonzero"/><path fill="#5670ef" d="M 721.761719 464.996094 C 725.800781 461.257812 729.847656 457.363281 733.78125 453.421875 C 734.699219 452.503906 734.699219 451.023438 733.78125 450.105469 C 732.863281 449.1875 731.382812 449.1875 730.464844 450.105469 C 726.566406 454 722.5625 457.851562 718.570312 461.558594 C 717.617188 462.433594 717.566406 463.921875 718.441406 464.875 C 718.90625 465.378906 719.535156 465.625 720.164062 465.625 C 720.734375 465.617188 721.3125 465.410156 721.761719 464.996094 Z M 721.761719 464.996094 " fill-opacity="1" fill-rule="nonzero"/></svg>