<svg xmlns="http://www.w3.org/2000/svg" xmlns:xlink="http://www.w3.org/1999/xlink" width="1920" zoomAndPan="magnify" viewBox="0 0 1440 809.999993" height="1080" preserveAspectRatio="xMidYMid meet" version="1.0"><defs><clipPath id="9ed6dd7014"><path d="M 549 540 L 832 540 L 832 567 L 549 567 Z M 549 540 " clip-rule="nonzero"/></clipPath><clipPath id="b669f32102"><path d="M 794 545 L 930.359375 545 L 930.359375 563 L 794 563 Z M 794 545 " clip-rule="nonzero"/></clipPath></defs><path fill="#ffbcb0" d="M 736.253906 334.398438 L 644.871094 334.398438 L 644.871094 243.007812 L 736.253906 243.007812 L 736.253906 334.398438 " fill-opacity="1" fill-rule="nonzero"/><path fill="#ffffff" d="M 709.84375 315.445312 L 671.28125 315.445312 L 671.28125 261.960938 L 709.84375 261.960938 L 709.84375 315.445312 " fill-opacity="1" fill-rule="nonzero"/><path fill="#93582f" d="M 672.304688 314.421875 L 708.816406 314.421875 L 708.816406 262.984375 L 672.304688 262.984375 Z M 710.867188 316.46875 L 670.257812 316.46875 L 670.257812 260.9375 L 710.867188 260.9375 L 710.867188 316.46875 " fill-opacity="1" fill-rule="nonzero"/><path fill="#f6e3d3" d="M 641.484375 325.71875 L 567.457031 325.71875 L 567.457031 251.6875 L 641.484375 251.6875 L 641.484375 325.71875 " fill-opacity="1" fill-rule="nonzero"/><path fill="#ffffff" d="M 620.089844 310.363281 L 588.851562 310.363281 L 588.851562 267.042969 L 620.089844 267.042969 L 620.089844 310.363281 " fill-opacity="1" fill-rule="nonzero"/><path fill="#ffbcb0" d="M 589.683594 309.535156 L 619.261719 309.535156 L 619.261719 267.871094 L 589.683594 267.871094 Z M 620.921875 311.195312 L 588.023438 311.195312 L 588.023438 266.210938 L 620.921875 266.210938 L 620.921875 311.195312 " fill-opacity="1" fill-rule="nonzero"/><path fill="#f6e3d3" d="M 813.800781 325.71875 L 739.777344 325.71875 L 739.777344 251.6875 L 813.800781 251.6875 L 813.800781 325.71875 " fill-opacity="1" fill-rule="nonzero"/><path fill="#ffffff" d="M 792.410156 310.363281 L 761.171875 310.363281 L 761.171875 267.042969 L 792.410156 267.042969 L 792.410156 310.363281 " fill-opacity="1" fill-rule="nonzero"/><path fill="#ffbcb0" d="M 762 309.535156 L 791.582031 309.535156 L 791.582031 267.871094 L 762 267.871094 Z M 793.238281 311.195312 L 760.34375 311.195312 L 760.34375 266.210938 L 793.238281 266.210938 L 793.238281 311.195312 " fill-opacity="1" fill-rule="nonzero"/><g clip-path="url(#9ed6dd7014)"><path fill="#eb9e94" d="M 831.882812 553.84375 C 831.882812 561.117188 768.640625 567.007812 690.632812 567.007812 C 612.617188 567.007812 549.378906 561.117188 549.378906 553.84375 C 549.378906 546.574219 612.617188 540.679688 690.632812 540.679688 C 768.640625 540.679688 831.882812 546.574219 831.882812 553.84375 " fill-opacity="1" fill-rule="nonzero"/></g><g clip-path="url(#b669f32102)"><path fill="#eb9e94" d="M 930.105469 553.847656 C 930.105469 558.402344 899.851562 562.097656 862.53125 562.097656 C 825.210938 562.097656 794.960938 558.402344 794.960938 553.847656 C 794.960938 549.289062 825.210938 545.59375 862.53125 545.59375 C 899.851562 545.59375 930.105469 549.289062 930.105469 553.847656 " fill-opacity="1" fill-rule="nonzero"/></g><path fill="#7ca417" d="M 623.210938 417.085938 C 622.839844 416.074219 622.972656 415.832031 623.210938 414.910156 C 623.714844 412.960938 627.632812 412.085938 629.613281 408.265625 C 630.875 405.835938 635.171875 406.621094 637.710938 404.277344 C 639.519531 402.609375 637.304688 401.785156 641.820312 399.082031 C 648.679688 394.96875 647.664062 390.613281 647.378906 390.503906 C 646.925781 390.324219 647 391.632812 646.476562 392.300781 C 644.027344 395.414062 627.808594 389.804688 614.105469 398.980469 C 608.140625 402.976562 604.003906 408.492188 602.910156 415.394531 C 602.109375 420.453125 603.777344 423.011719 605.574219 422.539062 C 607.695312 421.976562 606.136719 423.402344 607.46875 425.296875 C 613.003906 433.171875 624.59375 420.867188 623.210938 417.085938 " fill-opacity="1" fill-rule="nonzero"/><path fill="#346e00" d="M 552.296875 430.410156 C 558.988281 436.835938 563.949219 431.800781 568.230469 426.664062 C 569.261719 425.425781 572.238281 429.84375 575.851562 425.179688 C 581.53125 417.835938 574.121094 407.625 566.394531 384.582031 C 565.445312 381.746094 556.765625 361.371094 551.535156 352.585938 C 548.96875 348.28125 546.097656 345.28125 543.65625 344.023438 C 537.445312 340.824219 533.085938 342.839844 532.628906 340.191406 C 532.292969 338.261719 533.863281 337.8125 532.910156 337.40625 C 531.6875 336.886719 528.757812 344.992188 529.355469 353.082031 C 529.824219 359.429688 532.089844 361.785156 534.523438 368.792969 C 536.902344 375.652344 536.40625 378.199219 538.015625 389.386719 C 541.066406 410.601562 542.589844 421.082031 552.296875 430.410156 " fill-opacity="1" fill-rule="nonzero"/><path fill="#346e00" d="M 582.617188 505.570312 C 583.167969 499.953125 583.746094 494.328125 584.484375 488.71875 C 585.222656 483.109375 586.101562 477.515625 587.207031 471.960938 C 588.3125 466.40625 589.632812 460.890625 591.253906 455.460938 C 592.871094 450.03125 594.796875 444.6875 597.117188 439.515625 C 599.4375 434.34375 602.15625 429.34375 605.375 424.671875 C 608.597656 420.007812 612.328125 415.683594 616.578125 411.933594 C 620.820312 408.183594 625.582031 405.019531 630.703125 402.617188 C 631.347656 402.324219 631.988281 402.027344 632.636719 401.746094 L 634.578125 400.90625 C 635.867188 400.339844 637.148438 399.753906 638.402344 399.109375 C 639.652344 398.460938 640.871094 397.75 642.015625 396.925781 C 643.15625 396.109375 644.222656 395.164062 645.089844 394.046875 C 644.238281 395.175781 643.1875 396.140625 642.054688 396.980469 C 640.917969 397.824219 639.707031 398.554688 638.460938 399.222656 C 637.21875 399.894531 635.941406 400.5 634.65625 401.085938 L 632.730469 401.953125 C 632.089844 402.25 631.457031 402.554688 630.816406 402.855469 C 625.757812 405.324219 621.078125 408.542969 616.929688 412.328125 C 612.773438 416.109375 609.148438 420.449219 606.03125 425.117188 C 602.917969 429.789062 600.300781 434.785156 598.085938 439.9375 C 595.867188 445.097656 594.042969 450.421875 592.523438 455.832031 C 591 461.238281 589.777344 466.726562 588.765625 472.257812 C 587.753906 477.785156 586.96875 483.359375 586.320312 488.945312 C 585.675781 494.535156 585.1875 500.140625 584.726562 505.765625 L 582.617188 505.570312 " fill-opacity="1" fill-rule="nonzero"/><path fill="#9fbc50" d="M 548.34375 364.226562 C 544.472656 370.234375 538.390625 371.5625 538.285156 371.375 C 538.148438 371.144531 543.675781 369.054688 546.707031 363.042969 C 544.097656 361.359375 541.03125 360.234375 537.453125 359.945312 C 530.625 359.394531 533.125 357.8125 527.5 355.917969 C 520.117188 353.4375 517.101562 353.253906 515.488281 353.769531 C 512.875 354.601562 512.785156 352.378906 512.367188 352.789062 C 512.09375 353.054688 509.871094 358.355469 513.425781 362.003906 C 515.304688 363.933594 517.566406 363.121094 520.121094 365.953125 C 521.480469 367.464844 521.367188 368.472656 522.351562 370.414062 C 524.480469 374.613281 529.539062 373.953125 530.246094 377.621094 C 534.425781 399.382812 542.179688 400.734375 549.179688 400.835938 C 553.03125 400.890625 552.421875 397.5625 554.832031 398.027344 C 561.144531 399.234375 561.203125 374.484375 548.34375 364.226562 " fill-opacity="1" fill-rule="nonzero"/><path fill="#346e00" d="M 582.65625 348.042969 C 588.296875 352.433594 594.472656 351.675781 594.515625 351.464844 C 594.566406 351.203125 588.660156 351.0625 583.8125 346.386719 C 585.714844 343.933594 588.238281 341.859375 591.519531 340.40625 C 597.777344 337.625 594.894531 336.957031 599.578125 333.3125 C 605.722656 328.527344 608.507812 327.355469 610.203125 327.308594 C 612.945312 327.230469 612.292969 325.097656 612.824219 325.347656 C 613.171875 325.511719 617.019531 329.777344 614.871094 334.402344 C 613.738281 336.835938 611.335938 336.824219 609.863281 340.339844 C 609.078125 342.214844 609.519531 343.128906 609.230469 345.285156 C 608.613281 349.953125 603.617188 351.003906 604.167969 354.699219 C 607.417969 376.621094 600.546875 380.457031 593.976562 382.867188 C 590.359375 384.195312 589.835938 380.855469 587.710938 382.089844 C 582.152344 385.316406 573.914062 361.980469 582.65625 348.042969 " fill-opacity="1" fill-rule="nonzero"/><path fill="#7ca417" d="M 583.617188 333.003906 C 576.78125 327.625 573.742188 322.378906 569.371094 321.847656 C 566.96875 321.554688 567.222656 322.578125 564.910156 320.816406 C 563.84375 320.007812 562.992188 318.742188 562.679688 318.929688 C 562.382812 319.105469 563.167969 320.199219 563.023438 321.503906 C 562.796875 323.542969 560.519531 324.140625 559.074219 325.964844 C 558 327.324219 557.785156 328.855469 557.785156 330.453125 C 561.996094 332.304688 569.3125 331.625 568.308594 332.066406 C 567.273438 332.519531 561.601562 333.675781 557.875 333.535156 C 557.917969 339.980469 555.167969 341.789062 553.414062 349.308594 C 552.070312 355.046875 552.773438 357.867188 552.898438 365.78125 C 553.277344 389.871094 547.285156 395.203125 552.554688 404.910156 C 553.140625 405.992188 560.191406 414.457031 566.550781 414.519531 C 570.371094 414.558594 571.5 411.53125 576.503906 411.261719 C 581.390625 410.996094 582.867188 413.742188 587.832031 414.179688 C 587.832031 414.179688 591.1875 414.675781 597.6875 410.402344 C 614.09375 399.609375 601.292969 346.902344 583.617188 333.003906 " fill-opacity="1" fill-rule="nonzero"/><path fill="#9fbc50" d="M 629.492188 372.648438 C 629.046875 369.984375 627.703125 368.917969 628.164062 366.484375 C 628.332031 365.613281 628.695312 364.738281 628.40625 364.550781 C 628.019531 364.300781 626.832031 365.535156 626.472656 365.878906 C 623.441406 368.765625 616.550781 367.726562 615.113281 367.570312 C 606.425781 366.636719 595.046875 376.335938 589.738281 382.558594 C 587.277344 385.4375 577.480469 396.910156 580.3125 409.265625 C 580.417969 409.71875 581.164062 418.636719 587.441406 419.535156 C 591.421875 420.101562 593.132812 415.523438 597.5 416.667969 C 600.363281 417.414062 601.566406 419.410156 604.238281 419.65625 C 607.796875 419.984375 610.902344 415.632812 611.609375 414.578125 C 614.15625 410.773438 612.78125 408.933594 615.113281 402.132812 C 616.207031 398.945312 617.125 396.273438 619.34375 393.3125 C 621.378906 390.589844 623.097656 389.527344 624.152344 388.113281 C 622.089844 388.773438 619.507812 388.640625 616.65625 387.699219 C 614.707031 387.058594 613.023438 385.695312 613.222656 385.46875 C 613.390625 385.277344 615.585938 386.679688 618.429688 386.472656 C 622.285156 386.199219 624.152344 384.992188 625.257812 384.039062 C 625.15625 381.644531 624.191406 379.664062 625.023438 379.171875 C 625.699219 378.773438 626.515625 379.976562 627.558594 379.65625 C 629.128906 379.171875 629.996094 375.628906 629.492188 372.648438 " fill-opacity="1" fill-rule="nonzero"/><path fill="#7ca417" d="M 561.347656 418.34375 C 554.574219 414.886719 553.445312 415.523438 549.253906 411.164062 C 547.902344 409.761719 547.105469 407.398438 538.382812 403.886719 C 536.375 403.074219 537.761719 401.726562 537.476562 401.429688 C 537.003906 400.933594 534.984375 402.710938 534.054688 404.890625 C 531.878906 410 532.691406 414.054688 534.234375 417.402344 C 539.898438 420.667969 543.660156 418.820312 543.925781 419.523438 C 544.019531 419.777344 539.566406 420.941406 536.054688 420.71875 C 536.765625 421.878906 537.46875 422.941406 538.011719 423.929688 C 539.578125 426.78125 539.386719 432 541.113281 437.199219 C 548.179688 433.789062 553.835938 434.652344 553.835938 434.761719 C 553.835938 434.777344 553.257812 434.789062 552.773438 434.882812 C 546.878906 436.015625 544.238281 438.695312 542.5 440.472656 C 543.921875 443.15625 546.097656 445.695312 549.566406 447.742188 C 550.316406 448.179688 553.363281 450.1875 557.46875 449.355469 C 561.347656 448.566406 560.207031 444.007812 563.105469 444.214844 C 576.378906 445.152344 573.109375 424.347656 561.347656 418.34375 " fill-opacity="1" fill-rule="nonzero"/><path fill="#7ca417" d="M 584.707031 502.5625 C 589.070312 491.441406 592.710938 480.015625 594.925781 468.289062 C 596.023438 462.429688 596.753906 456.5 596.949219 450.550781 C 597.042969 447.574219 597.011719 444.597656 596.820312 441.628906 C 596.621094 438.660156 596.273438 435.707031 595.738281 432.78125 C 595.601562 432.046875 595.464844 431.324219 595.308594 430.585938 C 595.152344 429.851562 595 429.105469 594.859375 428.359375 C 594.578125 426.867188 594.339844 425.363281 594.164062 423.847656 C 593.804688 420.828125 593.675781 417.773438 593.792969 414.734375 C 593.917969 411.695312 594.292969 408.667969 594.933594 405.695312 L 595.1875 404.582031 L 595.46875 403.480469 C 595.65625 402.75 595.855469 402.019531 596.066406 401.292969 C 596.484375 399.839844 596.957031 398.394531 597.488281 396.976562 C 598.554688 394.136719 599.863281 391.386719 601.453125 388.808594 C 603.042969 386.226562 604.917969 383.820312 607.074219 381.695312 C 608.152344 380.636719 609.300781 379.644531 610.507812 378.738281 L 611.429688 378.074219 C 611.734375 377.855469 612.054688 377.652344 612.367188 377.441406 C 613.003906 377.035156 613.644531 376.640625 614.304688 376.273438 C 616.933594 374.789062 619.746094 373.652344 622.644531 372.855469 C 619.761719 373.71875 616.984375 374.921875 614.410156 376.457031 C 613.761719 376.835938 613.132812 377.242188 612.511719 377.660156 C 612.207031 377.878906 611.894531 378.085938 611.597656 378.308594 L 610.699219 378.984375 C 609.523438 379.914062 608.414062 380.917969 607.371094 381.992188 C 605.289062 384.140625 603.5 386.554688 601.992188 389.132812 C 600.484375 391.707031 599.257812 394.445312 598.277344 397.261719 C 597.785156 398.667969 597.355469 400.101562 596.972656 401.542969 C 596.78125 402.265625 596.601562 402.992188 596.429688 403.722656 L 596.179688 404.808594 L 595.960938 405.90625 C 595.398438 408.828125 595.101562 411.796875 595.054688 414.769531 C 595.007812 417.742188 595.203125 420.71875 595.625 423.660156 C 595.832031 425.128906 596.097656 426.59375 596.40625 428.050781 C 596.5625 428.777344 596.730469 429.5 596.898438 430.234375 C 597.074219 430.964844 597.238281 431.714844 597.390625 432.457031 C 598.007812 435.4375 598.4375 438.453125 598.710938 441.480469 C 598.980469 444.511719 599.082031 447.554688 599.058594 450.59375 C 599.003906 456.675781 598.398438 462.738281 597.421875 468.726562 C 595.449219 480.714844 592.027344 492.398438 587.875 503.769531 L 584.707031 502.5625 " fill-opacity="1" fill-rule="nonzero"/><path fill="#7ca417" d="M 575.019531 506.3125 C 574.484375 492.070312 572.964844 477.84375 570.730469 463.730469 C 568.476562 449.625 565.503906 435.613281 561.558594 421.878906 C 560.566406 418.441406 559.507812 415.03125 558.371094 411.644531 C 557.238281 408.257812 556.023438 404.898438 554.703125 401.582031 C 553.390625 398.261719 551.960938 394.984375 550.40625 391.773438 C 549.621094 390.171875 548.8125 388.582031 547.949219 387.023438 C 547.085938 385.464844 546.179688 383.925781 545.222656 382.425781 C 543.292969 379.4375 541.160156 376.5625 538.640625 374.054688 C 538.316406 373.75 538.007812 373.429688 537.675781 373.136719 L 536.675781 372.257812 L 535.640625 371.421875 C 535.292969 371.148438 534.925781 370.898438 534.570312 370.636719 C 534.199219 370.390625 533.828125 370.152344 533.449219 369.921875 C 533.066406 369.703125 532.6875 369.476562 532.285156 369.28125 C 531.5 368.875 530.679688 368.535156 529.855469 368.15625 C 529.035156 367.78125 528.226562 367.320312 527.539062 366.710938 C 526.851562 366.109375 526.25 365.414062 525.746094 364.664062 C 525.484375 364.292969 525.234375 363.925781 524.984375 363.554688 C 524.722656 363.195312 524.460938 362.835938 524.179688 362.492188 C 523.621094 361.804688 523.003906 361.15625 522.328125 360.578125 C 521.648438 360.007812 520.90625 359.511719 520.113281 359.105469 C 519.320312 358.699219 518.480469 358.386719 517.640625 358.078125 C 516.800781 357.773438 515.949219 357.460938 515.1875 356.980469 C 514.804688 356.742188 514.445312 356.464844 514.121094 356.15625 C 513.800781 355.839844 513.519531 355.492188 513.257812 355.125 C 513.523438 355.488281 513.816406 355.828125 514.140625 356.136719 C 514.46875 356.441406 514.832031 356.707031 515.214844 356.933594 C 515.980469 357.398438 516.832031 357.691406 517.675781 357.980469 C 518.523438 358.269531 519.371094 358.566406 520.183594 358.964844 C 520.992188 359.359375 521.761719 359.847656 522.464844 360.417969 C 523.164062 360.988281 523.800781 361.632812 524.382812 362.324219 C 524.675781 362.667969 524.949219 363.023438 525.222656 363.386719 C 525.480469 363.757812 525.742188 364.125 526.003906 364.476562 C 526.515625 365.203125 527.109375 365.867188 527.777344 366.429688 C 528.445312 366.996094 529.21875 367.417969 530.03125 367.773438 C 530.84375 368.125 531.6875 368.457031 532.5 368.855469 C 532.910156 369.046875 533.304688 369.273438 533.703125 369.488281 C 534.09375 369.714844 534.480469 369.953125 534.863281 370.199219 C 535.234375 370.460938 535.613281 370.707031 535.976562 370.976562 L 537.050781 371.808594 L 538.082031 372.683594 C 538.425781 372.976562 538.746094 373.296875 539.082031 373.597656 C 541.699219 376.101562 543.917969 378.976562 545.933594 381.960938 C 546.929688 383.464844 547.875 385 548.777344 386.558594 C 549.679688 388.113281 550.527344 389.703125 551.355469 391.300781 C 552.984375 394.511719 554.488281 397.78125 555.878906 401.097656 C 557.273438 404.417969 558.5625 407.773438 559.769531 411.160156 C 560.980469 414.546875 562.113281 417.957031 563.179688 421.390625 C 567.421875 435.132812 570.6875 449.15625 573.234375 463.308594 C 575.761719 477.464844 577.578125 491.757812 578.402344 506.15625 L 575.019531 506.3125 " fill-opacity="1" fill-rule="nonzero"/><path fill="#7ca417" d="M 582.511719 500.378906 C 579.546875 486.4375 577.539062 472.269531 576.25 458.042969 C 574.984375 443.8125 574.4375 429.5 574.902344 415.214844 C 575.023438 411.644531 575.214844 408.074219 575.488281 404.515625 C 575.757812 400.953125 576.117188 397.398438 576.582031 393.859375 C 577.042969 390.316406 577.625 386.792969 578.347656 383.300781 C 578.71875 381.554688 579.113281 379.816406 579.570312 378.09375 C 580.023438 376.367188 580.527344 374.660156 581.085938 372.964844 C 582.226562 369.597656 583.589844 366.285156 585.421875 363.238281 C 585.660156 362.863281 585.878906 362.480469 586.132812 362.113281 L 586.882812 361.011719 L 587.683594 359.953125 C 587.957031 359.601562 588.25 359.269531 588.53125 358.929688 C 588.828125 358.601562 589.132812 358.277344 589.441406 357.960938 C 589.761719 357.65625 590.074219 357.339844 590.414062 357.058594 C 591.074219 356.46875 591.789062 355.9375 592.496094 355.371094 C 593.199219 354.804688 593.871094 354.160156 594.386719 353.402344 C 594.90625 352.648438 595.316406 351.828125 595.625 350.980469 C 595.789062 350.554688 595.941406 350.132812 596.09375 349.71875 C 596.253906 349.304688 596.421875 348.890625 596.613281 348.488281 C 596.988281 347.683594 597.421875 346.90625 597.941406 346.183594 C 598.457031 345.460938 599.058594 344.796875 599.726562 344.210938 C 600.394531 343.621094 601.132812 343.113281 601.875 342.613281 C 602.613281 342.105469 603.359375 341.59375 603.984375 340.941406 C 604.292969 340.617188 604.574219 340.265625 604.8125 339.882812 C 605.046875 339.5 605.238281 339.09375 605.398438 338.675781 C 605.226562 339.089844 605.03125 339.492188 604.789062 339.867188 C 604.542969 340.246094 604.261719 340.589844 603.945312 340.90625 C 603.316406 341.539062 602.5625 342.035156 601.816406 342.523438 C 601.0625 343.011719 600.3125 343.507812 599.625 344.089844 C 598.933594 344.671875 598.308594 345.332031 597.769531 346.058594 C 597.230469 346.78125 596.769531 347.566406 596.375 348.375 C 596.171875 348.78125 595.996094 349.195312 595.820312 349.609375 C 595.660156 350.035156 595.496094 350.453125 595.332031 350.863281 C 595.011719 351.6875 594.597656 352.476562 594.085938 353.1875 C 593.578125 353.898438 592.933594 354.5 592.230469 355.039062 C 591.53125 355.582031 590.792969 356.109375 590.101562 356.695312 C 589.75 356.976562 589.425781 357.292969 589.089844 357.601562 C 588.765625 357.921875 588.449219 358.242188 588.140625 358.574219 C 587.84375 358.917969 587.535156 359.25 587.25 359.601562 L 586.414062 360.667969 L 585.628906 361.773438 C 585.363281 362.140625 585.132812 362.527344 584.882812 362.90625 C 582.957031 365.972656 581.507812 369.304688 580.285156 372.691406 C 579.683594 374.390625 579.144531 376.109375 578.648438 377.839844 C 578.15625 379.574219 577.722656 381.320312 577.3125 383.074219 C 576.515625 386.585938 575.859375 390.125 575.324219 393.679688 C 574.785156 397.234375 574.355469 400.808594 574.011719 404.386719 C 573.667969 407.964844 573.402344 411.550781 573.210938 415.140625 C 572.460938 429.5 572.726562 443.898438 573.722656 458.246094 C 574.734375 472.589844 576.472656 486.894531 579.195312 501.054688 L 582.511719 500.378906 " fill-opacity="1" fill-rule="nonzero"/><path fill="#346e00" d="M 578.554688 506.019531 C 579.199219 498.425781 579.511719 490.773438 579.667969 483.113281 C 579.820312 475.453125 579.824219 467.785156 579.742188 460.113281 C 579.574219 444.769531 579.066406 429.421875 578.367188 414.082031 C 577.652344 398.742188 576.757812 383.410156 575.566406 368.097656 C 575.261719 364.269531 574.945312 360.441406 574.582031 356.621094 L 574.296875 353.757812 L 573.984375 350.898438 C 573.871094 349.953125 573.726562 349.011719 573.496094 348.09375 C 573.273438 347.171875 572.925781 346.304688 572.507812 345.4375 C 572.300781 345.003906 572.109375 344.558594 571.933594 344.101562 C 571.761719 343.648438 571.613281 343.183594 571.488281 342.714844 C 571.226562 341.78125 571.0625 340.824219 570.902344 339.875 C 570.601562 337.976562 570.347656 336.074219 569.960938 334.199219 C 569.578125 332.324219 569.039062 330.476562 568.234375 328.734375 C 567.429688 326.996094 566.347656 325.386719 565.054688 323.964844 C 566.375 325.359375 567.488281 326.957031 568.328125 328.691406 C 569.171875 330.421875 569.746094 332.277344 570.167969 334.152344 C 570.59375 336.03125 570.882812 337.9375 571.214844 339.824219 C 571.390625 340.761719 571.570312 341.703125 571.84375 342.613281 C 571.976562 343.070312 572.128906 343.519531 572.300781 343.960938 C 572.480469 344.398438 572.675781 344.828125 572.890625 345.261719 C 573.324219 346.113281 573.710938 347.027344 573.957031 347.972656 C 574.210938 348.914062 574.375 349.871094 574.511719 350.832031 L 574.875 353.695312 L 575.210938 356.558594 C 575.648438 360.375 576.035156 364.199219 576.410156 368.023438 C 577.882812 383.320312 579.058594 398.648438 580.054688 413.988281 C 581.042969 429.332031 581.828125 444.683594 582.28125 460.0625 C 582.503906 467.75 582.640625 475.445312 582.628906 483.148438 C 582.613281 490.851562 582.441406 498.5625 581.929688 506.289062 L 578.554688 506.019531 " fill-opacity="1" fill-rule="nonzero"/><path fill="#346e00" d="M 573.515625 506.460938 C 573.226562 497.46875 572.441406 488.488281 571.039062 479.597656 C 569.628906 470.710938 567.621094 461.90625 564.8125 453.347656 C 563.40625 449.074219 561.808594 444.855469 559.960938 440.753906 C 558.117188 436.644531 556.027344 432.640625 553.640625 428.824219 C 551.25 425.007812 548.550781 421.371094 545.433594 418.113281 C 544.652344 417.304688 543.828125 416.523438 543.070312 415.683594 C 542.308594 414.847656 541.578125 413.980469 540.890625 413.078125 C 540.207031 412.179688 539.558594 411.246094 539 410.261719 C 538.722656 409.769531 538.464844 409.265625 538.257812 408.738281 C 538.058594 408.214844 537.882812 407.660156 537.890625 407.089844 C 537.894531 407.660156 538.078125 408.207031 538.289062 408.726562 C 538.503906 409.246094 538.773438 409.742188 539.058594 410.230469 C 539.632812 411.199219 540.296875 412.117188 540.996094 413 C 541.695312 413.882812 542.4375 414.730469 543.214844 415.546875 C 543.984375 416.371094 544.820312 417.128906 545.621094 417.933594 C 548.820312 421.144531 551.605469 424.746094 554.085938 428.535156 C 556.5625 432.335938 558.746094 436.320312 560.679688 440.421875 C 562.621094 444.519531 564.3125 448.730469 565.816406 453.007812 C 568.808594 461.574219 571.007812 470.402344 572.605469 479.335938 C 574.191406 488.269531 575.164062 497.308594 575.628906 506.375 L 573.515625 506.460938 " fill-opacity="1" fill-rule="nonzero"/><path fill="#93582f" d="M 601.371094 501.550781 L 557.269531 501.550781 C 555.988281 501.550781 554.949219 502.589844 554.949219 503.871094 L 554.949219 509.578125 C 554.949219 510.859375 555.988281 511.898438 557.269531 511.898438 L 558.238281 511.898438 L 560.714844 548.078125 C 560.714844 550 562.269531 551.558594 564.195312 551.558594 L 594.445312 551.558594 C 596.367188 551.558594 597.925781 550 597.925781 548.078125 L 600.402344 511.898438 L 601.371094 511.898438 C 602.652344 511.898438 603.691406 510.859375 603.691406 509.578125 L 603.691406 503.871094 C 603.691406 502.589844 602.652344 501.550781 601.371094 501.550781 " fill-opacity="1" fill-rule="nonzero"/><path fill="#312553" d="M 599.914062 518.851562 L 600.394531 511.859375 L 558.363281 511.859375 Z M 599.914062 518.851562 " fill-opacity="1" fill-rule="nonzero"/><path fill="#eb9e94" d="M 792.53125 420.164062 C 778.414062 410.746094 769.449219 415.929688 768.179688 412.207031 C 766.683594 407.804688 768.355469 392.769531 766.570312 385.882812 C 765.523438 381.839844 763.148438 378.117188 748.179688 375.664062 C 730.167969 372.714844 710.546875 371.40625 690.632812 371.507812 C 670.714844 371.40625 651.09375 372.714844 633.082031 375.664062 C 618.113281 378.117188 615.738281 381.839844 614.691406 385.882812 C 612.90625 392.769531 614.578125 407.804688 613.082031 412.207031 C 611.8125 415.929688 602.851562 410.746094 588.730469 420.164062 C 566.542969 434.960938 597.878906 509.804688 614.546875 522.769531 C 619.789062 526.847656 628.347656 526.242188 629.957031 526.304688 C 659.625 527.398438 675.847656 527.957031 690.449219 527.957031 C 690.511719 527.957031 690.570312 527.957031 690.632812 527.957031 C 690.691406 527.957031 690.753906 527.957031 690.8125 527.957031 C 705.414062 527.957031 721.640625 527.398438 751.308594 526.304688 C 752.917969 526.242188 761.472656 526.847656 766.714844 522.769531 C 783.382812 509.804688 814.71875 434.960938 792.53125 420.164062 " fill-opacity="1" fill-rule="nonzero"/><path fill="#512618" d="M 623.824219 556.273438 L 628.1875 556.273438 C 629.121094 556.273438 629.886719 555.507812 629.886719 554.574219 L 641.082031 512.589844 C 641.082031 511.652344 640.316406 510.886719 639.378906 510.886719 L 629.347656 510.886719 C 628.410156 510.886719 627.644531 511.652344 627.644531 512.589844 L 622.125 554.574219 C 622.125 555.507812 622.890625 556.273438 623.824219 556.273438 " fill-opacity="1" fill-rule="nonzero"/><path fill="#512618" d="M 650.523438 544.109375 L 653.058594 544.109375 C 653.605469 544.109375 654.046875 543.664062 654.046875 543.121094 L 660.550781 518.722656 C 660.550781 518.179688 660.109375 517.738281 659.566406 517.738281 L 653.734375 517.738281 C 653.191406 517.738281 652.746094 518.179688 652.746094 518.722656 L 649.539062 543.121094 C 649.539062 543.664062 649.980469 544.109375 650.523438 544.109375 " fill-opacity="1" fill-rule="nonzero"/><path fill="#512618" d="M 757.4375 556.273438 L 753.074219 556.273438 C 752.140625 556.273438 751.375 555.507812 751.375 554.574219 L 740.183594 512.589844 C 740.183594 511.652344 740.945312 510.886719 741.882812 510.886719 L 751.917969 510.886719 C 752.851562 510.886719 753.617188 511.652344 753.617188 512.589844 L 759.140625 554.574219 C 759.140625 555.507812 758.375 556.273438 757.4375 556.273438 " fill-opacity="1" fill-rule="nonzero"/><path fill="#512618" d="M 730.738281 544.109375 L 728.203125 544.109375 C 727.660156 544.109375 727.214844 543.664062 727.214844 543.121094 L 720.710938 518.722656 C 720.710938 518.179688 721.152344 517.738281 721.695312 517.738281 L 727.53125 517.738281 C 728.074219 517.738281 728.519531 518.179688 728.519531 518.722656 L 731.726562 543.121094 C 731.726562 543.664062 731.28125 544.109375 730.738281 544.109375 " fill-opacity="1" fill-rule="nonzero"/><path fill="#ffbcb0" d="M 796.578125 425.199219 C 795.488281 424.617188 794.320312 424.085938 793.066406 423.628906 C 789.058594 422.167969 785.011719 422.609375 783.5625 422.777344 C 783.5625 422.777344 776.746094 423.550781 770.398438 429.15625 C 751.925781 445.476562 762.242188 491.085938 750.472656 494.253906 C 737.929688 497.628906 714.394531 497.441406 691.074219 497.351562 C 690.925781 497.351562 690.777344 497.351562 690.632812 497.351562 C 690.484375 497.351562 690.335938 497.351562 690.1875 497.351562 C 666.867188 497.441406 643.332031 497.628906 630.789062 494.253906 C 619.019531 491.085938 629.335938 445.476562 610.867188 429.15625 C 604.515625 423.550781 597.699219 422.777344 597.699219 422.777344 C 596.253906 422.609375 592.203125 422.167969 588.195312 423.628906 C 586.941406 424.085938 585.773438 424.617188 584.6875 425.199219 C 571.6875 446.886719 599.460938 511.269531 614.808594 523.203125 C 620.050781 527.28125 628.605469 526.667969 630.21875 526.738281 C 655.71875 527.824219 672.664062 528.625 690.1875 528.679688 C 690.335938 528.679688 690.484375 528.679688 690.632812 528.679688 C 690.777344 528.679688 690.925781 528.679688 691.074219 528.679688 C 708.597656 528.625 725.546875 527.824219 751.046875 526.738281 C 752.65625 526.667969 761.210938 527.28125 766.453125 523.203125 C 781.800781 511.269531 809.578125 446.886719 796.578125 425.199219 " fill-opacity="1" fill-rule="nonzero"/><path fill="#eb9e94" d="M 768.179688 412.207031 C 766.683594 407.804688 768.355469 392.769531 766.570312 385.882812 C 765.523438 381.839844 763.148438 378.117188 748.179688 375.664062 C 730.167969 372.714844 710.546875 371.40625 690.632812 371.507812 C 670.714844 371.40625 651.09375 372.714844 633.082031 375.664062 C 618.113281 378.117188 615.738281 381.839844 614.691406 385.882812 C 612.90625 392.769531 614.578125 407.804688 613.082031 412.207031 C 612.78125 413.085938 612.046875 413.46875 610.917969 413.664062 C 613.867188 413.777344 619.527344 414.507812 625.175781 418.105469 C 639.359375 427.132812 639.707031 461.792969 639.808594 461.777344 C 639.8125 461.777344 639.800781 461.726562 639.804688 461.699219 C 639.871094 461.25 741.1875 461.25 741.257812 461.699219 C 741.261719 461.726562 741.25 461.777344 741.253906 461.777344 C 741.355469 461.792969 741.703125 427.132812 755.886719 418.105469 C 761.648438 414.4375 767.417969 413.746094 770.3125 413.65625 C 769.203125 413.460938 768.476562 413.078125 768.179688 412.207031 " fill-opacity="1" fill-rule="nonzero"/><path fill="#eb9e94" d="M 690.632812 496.441406 C 668.496094 496.441406 640.085938 495.953125 632.878906 494.582031 C 632.234375 494.457031 630 493.847656 628.441406 491.160156 C 626.785156 488.304688 620.441406 469.96875 624.542969 463.136719 C 628.824219 456.003906 638.839844 454.019531 644.429688 453.472656 C 652.414062 452.691406 670.121094 452.203125 690.632812 452.203125 C 711.140625 452.203125 728.847656 452.691406 736.835938 453.472656 C 742.421875 454.019531 752.4375 456.003906 756.71875 463.136719 C 760.824219 469.96875 754.480469 488.304688 752.820312 491.160156 C 751.261719 493.847656 749.027344 494.457031 748.382812 494.582031 C 741.175781 495.953125 712.769531 496.441406 690.632812 496.441406 " fill-opacity="1" fill-rule="nonzero"/><path fill="#ffbcb0" d="M 754.882812 464.238281 C 751.117188 457.964844 741.90625 456.121094 736.625 455.605469 C 719.5 453.929688 661.765625 453.929688 644.636719 455.605469 C 639.355469 456.121094 630.144531 457.964844 626.378906 464.238281 C 622.929688 469.988281 628.652344 487.261719 630.292969 490.085938 C 631.34375 491.890625 632.734375 492.375 633.28125 492.476562 C 646.035156 494.910156 735.226562 494.910156 747.980469 492.476562 C 748.527344 492.375 749.917969 491.890625 750.96875 490.085938 C 752.609375 487.261719 758.335938 469.988281 754.882812 464.238281 " fill-opacity="1" fill-rule="nonzero"/><path fill="#ec7d40" d="M 760.492188 447.179688 C 759.15625 441.761719 750.121094 434.523438 742.550781 433.261719 C 735.113281 432.019531 731.269531 433.089844 724.886719 433.773438 C 702.433594 436.179688 680.695312 457.332031 657.039062 458.027344 C 656.644531 458.042969 655.988281 457.941406 655.238281 458.246094 C 652.566406 459.332031 651.285156 466.0625 652.527344 467.160156 C 652.816406 467.417969 653.1875 467.445312 653.289062 467.433594 C 685.308594 463.738281 716.070312 469.894531 744.085938 466.148438 C 752.144531 465.070312 754.414062 462.949219 756.707031 461.0625 C 760.558594 457.882812 761.652344 451.902344 760.492188 447.179688 " fill-opacity="1" fill-rule="nonzero"/><path fill="#000000" d="M 719.074219 447.113281 C 720.535156 445.957031 722.15625 445.046875 723.839844 444.292969 C 725.53125 443.539062 727.292969 442.957031 729.097656 442.53125 C 730.898438 442.109375 732.738281 441.855469 734.585938 441.777344 C 736.429688 441.710938 738.289062 441.804688 740.105469 442.199219 C 738.300781 442.636719 736.527344 442.96875 734.773438 443.335938 C 733.019531 443.695312 731.28125 444.070312 729.550781 444.472656 C 727.820312 444.878906 726.09375 445.308594 724.363281 445.765625 C 722.625 446.214844 720.890625 446.703125 719.074219 447.113281 " fill-opacity="1" fill-rule="nonzero"/><path fill="#312553" d="M 749.089844 509.367188 C 740.953125 491.566406 732.054688 452.4375 728.871094 445.546875 C 725.777344 438.855469 723.898438 436.722656 722.558594 435.449219 C 718.496094 431.582031 713.867188 430.320312 708.679688 429.140625 C 695.503906 426.148438 688.101562 426.519531 671.539062 424.09375 C 669.234375 423.757812 660.910156 422.515625 650.089844 422.832031 C 644.261719 423.003906 642.355469 424.511719 640.625 425.75 C 633.261719 431.015625 636.046875 443.742188 636.839844 446.175781 C 637.472656 448.113281 640.042969 454.441406 646.933594 457.257812 C 649.671875 458.371094 653.804688 459.027344 662.074219 458.28125 C 667.960938 457.753906 671.257812 457.40625 676.507812 457.019531 C 681.222656 456.667969 700.304688 455.148438 704.816406 460.292969 C 707.117188 462.910156 707.105469 467 707.339844 470.148438 C 708.613281 487.085938 721.90625 500.351562 732.070312 513.652344 C 738.125 513.222656 744.132812 512.070312 749.089844 509.367188 " fill-opacity="1" fill-rule="nonzero"/><path fill="#3a4a1d" d="M 722.300781 467.410156 C 715.144531 467.410156 707.996094 467.121094 700.429688 466.820312 C 692.835938 466.515625 684.984375 466.203125 677.097656 466.203125 L 676.042969 466.207031 L 675.996094 466.003906 C 675.125 462.105469 674.882812 457.929688 675.28125 453.597656 L 675.296875 453.4375 L 675.445312 453.382812 C 681.433594 451.074219 687.421875 448.027344 693.214844 445.082031 C 703.546875 439.832031 714.226562 434.402344 724.855469 433.261719 C 726.160156 433.125 727.351562 432.96875 728.503906 432.820312 C 731.144531 432.476562 733.421875 432.179688 736.085938 432.179688 C 738.148438 432.179688 740.277344 432.367188 742.589844 432.75 C 750.027344 433.992188 759.355469 441.246094 760.738281 446.863281 C 761.820312 451.246094 761.066406 457.539062 756.867188 461.003906 L 756.585938 461.238281 C 754.398438 463.046875 751.921875 465.105469 744.121094 466.144531 C 737.667969 467.007812 730.734375 467.410156 722.300781 467.410156 " fill-opacity="1" fill-rule="nonzero"/><path fill="#f79556" d="M 764.582031 531.542969 C 763.363281 528.4375 756.882812 525.449219 749.304688 509.847656 C 749.285156 509.800781 749.269531 509.753906 749.25 509.710938 C 741.066406 492.070312 732.074219 452.480469 728.871094 445.546875 C 725.777344 438.855469 723.898438 436.722656 722.558594 435.449219 C 718.496094 431.582031 713.867188 430.320312 708.679688 429.140625 C 695.503906 426.148438 688.101562 426.519531 671.539062 424.09375 C 669.234375 423.757812 660.910156 422.515625 650.089844 422.832031 C 644.261719 423.003906 642.355469 424.511719 640.625 425.75 C 633.261719 431.015625 636.046875 443.742188 636.839844 446.175781 C 637.472656 448.113281 640.042969 454.441406 646.933594 457.257812 C 649.671875 458.371094 653.804688 459.027344 662.074219 458.28125 C 667.960938 457.753906 671.257812 457.40625 676.507812 457.019531 C 681.222656 456.667969 700.304688 455.148438 704.816406 460.292969 C 707.117188 462.910156 707.105469 467 707.339844 470.148438 C 709.148438 494.246094 735.296875 510.910156 742.140625 530.828125 C 744.160156 536.707031 746.71875 538.179688 748.90625 539.984375 C 754.109375 544.285156 763.078125 545.753906 765.789062 542.398438 C 767.839844 539.859375 765.945312 535.015625 764.582031 531.542969 " fill-opacity="1" fill-rule="nonzero"/><path fill="#ffffff" d="M 741.675781 530.121094 C 740.546875 530.320312 738.054688 540.933594 740.46875 544.554688 C 741.3125 545.816406 752.214844 553.378906 757.347656 556.613281 C 758.308594 557.21875 760.992188 558.851562 764.582031 560.226562 C 766.265625 560.875 770.886719 563.078125 778.789062 562.640625 C 781.597656 562.488281 785.976562 561.027344 788.699219 559.25 C 790.414062 558.128906 790.898438 557.226562 791.109375 556.839844 C 792.25 554.757812 790.316406 551.242188 789.90625 550.582031 C 788.097656 547.675781 785.886719 547.074219 781.464844 544.554688 C 774.253906 540.445312 770.191406 535.632812 765.789062 530.082031 C 764.566406 528.542969 765.171875 527.558594 764.089844 526.957031 C 762.308594 525.953125 757.503906 529.4375 753.242188 533.699219 C 752.035156 534.90625 750.332031 536.207031 747.703125 535.398438 C 743.644531 534.148438 743.003906 529.886719 741.675781 530.121094 " fill-opacity="1" fill-rule="nonzero"/><path fill="#eb9e94" d="M 740.46875 539.730469 C 742.414062 540.984375 744.410156 542.140625 746.402344 543.304688 L 752.390625 546.785156 L 758.375 550.257812 C 760.367188 551.421875 762.359375 552.589844 764.359375 553.722656 C 764.855469 554.003906 765.363281 554.300781 765.847656 554.554688 C 766.097656 554.695312 766.316406 554.804688 766.570312 554.914062 C 766.816406 555.023438 767.078125 555.125 767.335938 555.222656 C 768.378906 555.613281 769.460938 555.914062 770.554688 556.171875 C 772.746094 556.691406 775 556.910156 777.246094 556.851562 C 779.488281 556.765625 781.730469 556.363281 783.847656 555.554688 C 784.117188 555.460938 784.375 555.347656 784.636719 555.238281 C 784.902344 555.128906 785.152344 555.015625 785.40625 554.886719 C 785.910156 554.628906 786.402344 554.339844 786.894531 554.042969 C 787.386719 553.746094 787.867188 553.429688 788.335938 553.097656 C 788.804688 552.765625 789.277344 552.433594 789.679688 552.015625 C 788.964844 552.9375 788.054688 553.679688 787.140625 554.402344 C 786.683594 554.761719 786.203125 555.097656 785.707031 555.414062 C 785.457031 555.574219 785.195312 555.71875 784.9375 555.855469 C 784.675781 555.996094 784.421875 556.136719 784.152344 556.261719 C 782.019531 557.277344 779.683594 557.878906 777.320312 558.078125 C 774.953125 558.285156 772.566406 558.085938 770.238281 557.625 C 769.074219 557.386719 767.933594 557.066406 766.804688 556.664062 C 766.523438 556.558594 766.242188 556.453125 765.960938 556.332031 C 765.679688 556.21875 765.382812 556.074219 765.125 555.933594 C 764.585938 555.65625 764.09375 555.371094 763.582031 555.085938 C 761.578125 553.921875 759.589844 552.742188 757.613281 551.535156 C 755.652344 550.308594 753.679688 549.097656 751.75 547.828125 C 749.808594 546.566406 747.886719 545.273438 745.988281 543.953125 C 744.105469 542.605469 742.210938 541.261719 740.46875 539.730469 " fill-opacity="1" fill-rule="nonzero"/><path fill="#512618" d="M 759.910156 538.691406 C 760.636719 538.167969 761.355469 537.761719 762.0625 537.355469 L 764.152344 536.167969 C 764.84375 535.773438 765.527344 535.386719 766.207031 534.972656 C 766.890625 534.550781 767.5625 534.15625 768.242188 533.585938 C 768.203125 534.035156 768.011719 534.460938 767.796875 534.855469 C 767.570312 535.242188 767.300781 535.605469 766.996094 535.921875 C 766.390625 536.570312 765.683594 537.105469 764.925781 537.535156 C 764.167969 537.960938 763.355469 538.289062 762.515625 538.5 C 761.667969 538.699219 760.796875 538.800781 759.910156 538.691406 " fill-opacity="1" fill-rule="nonzero"/><path fill="#512618" d="M 762.484375 541.265625 C 763.210938 540.742188 763.929688 540.332031 764.632812 539.925781 L 766.722656 538.738281 C 767.414062 538.34375 768.097656 537.957031 768.78125 537.542969 C 769.460938 537.125 770.136719 536.726562 770.8125 536.15625 C 770.773438 536.613281 770.582031 537.03125 770.371094 537.429688 C 770.140625 537.8125 769.871094 538.175781 769.566406 538.496094 C 768.964844 539.144531 768.257812 539.679688 767.5 540.109375 C 766.742188 540.535156 765.929688 540.863281 765.085938 541.074219 C 764.242188 541.273438 763.371094 541.371094 762.484375 541.265625 " fill-opacity="1" fill-rule="nonzero"/><path fill="#512618" d="M 765.054688 543.835938 C 765.785156 543.3125 766.5 542.90625 767.203125 542.496094 L 769.296875 541.3125 C 769.984375 540.921875 770.671875 540.527344 771.351562 540.117188 C 772.035156 539.695312 772.707031 539.300781 773.386719 538.730469 C 773.34375 539.183594 773.15625 539.605469 772.941406 540 C 772.710938 540.386719 772.441406 540.75 772.140625 541.066406 C 771.535156 541.71875 770.832031 542.25 770.070312 542.679688 C 769.3125 543.105469 768.5 543.4375 767.660156 543.644531 C 766.816406 543.84375 765.945312 543.945312 765.054688 543.835938 " fill-opacity="1" fill-rule="nonzero"/><path fill="#512618" d="M 767.628906 546.410156 C 768.355469 545.882812 769.070312 545.480469 769.777344 545.070312 L 771.871094 543.882812 C 772.558594 543.492188 773.242188 543.101562 773.921875 542.691406 C 774.609375 542.269531 775.277344 541.871094 775.960938 541.304688 C 775.917969 541.753906 775.726562 542.179688 775.511719 542.574219 C 775.285156 542.957031 775.015625 543.320312 774.714844 543.640625 C 774.109375 544.289062 773.402344 544.824219 772.640625 545.25 C 771.886719 545.679688 771.074219 546.007812 770.230469 546.214844 C 769.386719 546.417969 768.515625 546.515625 767.628906 546.410156 " fill-opacity="1" fill-rule="nonzero"/><path fill="#516123" d="M 731.867188 513.808594 C 730.097656 511.492188 728.195312 509.132812 726.355469 506.847656 C 717.398438 495.730469 708.140625 484.234375 707.085938 470.167969 C 707.058594 469.808594 707.035156 469.441406 707.011719 469.058594 C 706.820312 466.085938 706.605469 462.714844 704.625 460.460938 C 702.519531 458.0625 696.59375 456.796875 687.488281 456.796875 C 682.945312 456.796875 678.773438 457.105469 676.765625 457.257812 L 676.527344 457.273438 C 672.746094 457.554688 670 457.808594 666.523438 458.132812 C 665.183594 458.253906 663.742188 458.386719 662.097656 458.535156 C 659.746094 458.75 657.613281 458.855469 655.753906 458.855469 C 651.949219 458.855469 649.113281 458.421875 646.835938 457.492188 C 639.800781 454.621094 637.21875 448.164062 636.597656 446.253906 C 636.226562 445.117188 635.289062 441.246094 635.417969 437.019531 C 635.578125 431.765625 637.324219 427.796875 640.476562 425.542969 L 640.652344 425.414062 C 642.398438 424.160156 644.375 422.742188 650.082031 422.574219 C 651.242188 422.539062 652.425781 422.527344 653.601562 422.527344 C 662.605469 422.527344 669.300781 423.507812 671.503906 423.828125 L 671.574219 423.839844 C 678.238281 424.816406 683.476562 425.34375 688.09375 425.8125 C 694.9375 426.503906 700.851562 427.097656 708.738281 428.890625 C 713.988281 430.082031 718.664062 431.386719 722.738281 435.265625 C 724.203125 436.664062 726.109375 438.964844 729.101562 445.4375 C 730.34375 448.121094 732.398438 455.5 735.003906 464.84375 C 739.164062 479.777344 744.339844 498.363281 749.324219 509.261719 L 749.425781 509.476562 L 749.214844 509.59375 C 744.816406 511.992188 739.210938 513.402344 732.085938 513.910156 L 731.949219 513.917969 L 731.867188 513.808594 " fill-opacity="1" fill-rule="nonzero"/><path fill="#ffffff" d="M 648.195312 449.703125 C 646.46875 449.714844 646.101562 450.632812 643.148438 450.964844 C 642.121094 451.082031 642.503906 451.078125 641.652344 450.964844 C 640.320312 450.792969 639.191406 449.210938 636.21875 449 C 629.039062 448.484375 621.757812 459.800781 621.699219 462.324219 C 621.605469 466.429688 625.023438 468.039062 628.007812 468.632812 C 632.042969 469.429688 635.3125 468.867188 636.839844 468.632812 C 648.308594 466.855469 654.367188 469.148438 655.765625 466.109375 C 656.378906 464.777344 655.664062 463.355469 657.027344 461.0625 C 657.714844 459.902344 658.40625 459.40625 658.289062 458.535156 C 658.15625 457.535156 657.125 457.351562 655.765625 456.011719 C 654.140625 454.414062 654.636719 453.71875 653.242188 452.226562 C 652.917969 451.882812 650.867188 449.6875 648.195312 449.703125 " fill-opacity="1" fill-rule="nonzero"/><path fill="#eb9e94" d="M 643.148438 453.488281 C 642.300781 453.703125 641.453125 453.882812 640.652344 454.152344 C 639.84375 454.40625 639.078125 454.742188 638.378906 455.15625 C 636.941406 456.039062 635.589844 457.042969 634.339844 458.167969 C 633.089844 459.289062 631.953125 460.535156 630.890625 461.855469 C 630.367188 462.519531 629.855469 463.203125 629.382812 463.914062 C 628.894531 464.617188 628.441406 465.347656 628.007812 466.109375 C 628.179688 465.25 628.492188 464.421875 628.839844 463.617188 C 629.015625 463.214844 629.222656 462.824219 629.417969 462.425781 C 629.636719 462.042969 629.847656 461.65625 630.089844 461.289062 C 631.03125 459.796875 632.175781 458.417969 633.5 457.230469 C 634.824219 456.042969 636.3125 455.039062 637.925781 454.292969 C 638.753906 453.902344 639.636719 453.675781 640.515625 453.550781 C 641.402344 453.441406 642.277344 453.429688 643.148438 453.488281 " fill-opacity="1" fill-rule="nonzero"/><path fill="#512618" d="M 644.675781 460.789062 C 644.734375 461.53125 644.609375 462.261719 644.394531 462.957031 C 644.171875 463.648438 643.847656 464.3125 643.4375 464.914062 C 643.027344 465.519531 642.535156 466.070312 641.96875 466.53125 C 641.402344 466.988281 640.769531 467.371094 640.058594 467.585938 C 640.449219 466.953125 640.859375 466.402344 641.25 465.847656 C 641.644531 465.296875 642.023438 464.753906 642.398438 464.210938 C 642.769531 463.660156 643.132812 463.109375 643.5 462.539062 C 643.871094 461.972656 644.234375 461.386719 644.675781 460.789062 " fill-opacity="1" fill-rule="nonzero"/><path fill="#512618" d="M 647.496094 460.789062 C 647.554688 461.53125 647.429688 462.261719 647.214844 462.957031 C 646.992188 463.648438 646.667969 464.3125 646.257812 464.914062 C 645.847656 465.519531 645.351562 466.070312 644.789062 466.53125 C 644.222656 466.988281 643.589844 467.371094 642.878906 467.585938 C 643.269531 466.953125 643.679688 466.402344 644.070312 465.847656 C 644.464844 465.296875 644.84375 464.753906 645.21875 464.210938 C 645.589844 463.660156 645.953125 463.109375 646.320312 462.539062 C 646.691406 461.972656 647.054688 461.386719 647.496094 460.789062 " fill-opacity="1" fill-rule="nonzero"/><path fill="#512618" d="M 650.316406 460.789062 C 650.375 461.53125 650.25 462.261719 650.035156 462.957031 C 649.8125 463.648438 649.488281 464.3125 649.078125 464.914062 C 648.667969 465.519531 648.171875 466.070312 647.609375 466.53125 C 647.042969 466.988281 646.410156 467.371094 645.699219 467.585938 C 646.089844 466.953125 646.5 466.402344 646.890625 465.847656 C 647.285156 465.296875 647.664062 464.753906 648.035156 464.210938 C 648.410156 463.660156 648.773438 463.109375 649.140625 462.539062 C 649.511719 461.972656 649.875 461.386719 650.316406 460.789062 " fill-opacity="1" fill-rule="nonzero"/><path fill="#512618" d="M 653.136719 460.789062 C 653.195312 461.53125 653.070312 462.261719 652.855469 462.957031 C 652.632812 463.648438 652.308594 464.3125 651.898438 464.914062 C 651.484375 465.519531 650.992188 466.070312 650.429688 466.53125 C 649.863281 466.988281 649.230469 467.371094 648.515625 467.585938 C 648.910156 466.953125 649.320312 466.402344 649.710938 465.847656 C 650.105469 465.296875 650.484375 464.753906 650.855469 464.210938 C 651.230469 463.660156 651.59375 463.109375 651.960938 462.539062 C 652.332031 461.972656 652.695312 461.386719 653.136719 460.789062 " fill-opacity="1" fill-rule="nonzero"/><path fill="#ffbcb0" d="M 696.71875 373.332031 C 695.871094 365.949219 696.84375 357.28125 700.902344 357.535156 C 701.804688 357.59375 708.378906 360.867188 711.941406 379.0625 C 715.25 395.960938 716.199219 402.476562 711.167969 407.027344 C 707.054688 410.746094 700.34375 411.785156 696.375 408.585938 C 690.242188 403.636719 698.878906 392.125 696.71875 373.332031 " fill-opacity="1" fill-rule="nonzero"/><path fill="#fccc44" d="M 645.445312 385.863281 C 643.53125 377.457031 637.628906 364.457031 643.394531 353.816406 C 645.730469 349.515625 650.851562 348.304688 658.777344 348.949219 C 663.519531 349.332031 666.851562 346.769531 672.621094 346.382812 C 678.128906 346.015625 682.125 347.386719 692.359375 352.023438 C 710.945312 360.449219 695.304688 360.945312 703.382812 378.941406 C 709.914062 393.492188 684.796875 401.375 694.152344 421.242188 C 697.695312 428.765625 686.1875 426.621094 671.785156 427.71875 C 650.703125 429.320312 643.011719 437.265625 636.34375 431.625 C 633.199219 428.964844 636.785156 419.976562 640.441406 411.847656 C 643.855469 404.246094 648.109375 397.566406 645.445312 385.863281 " fill-opacity="1" fill-rule="nonzero"/><path fill="#512618" d="M 686.414062 340.933594 C 685.195312 344.648438 683.835938 348.992188 685.648438 353.175781 C 685.789062 353.503906 687.273438 355.945312 690.238281 360.832031 C 692.046875 363.808594 692.851562 365.113281 692.726562 366.953125 C 692.566406 369.316406 691.070312 369.691406 691.003906 371.734375 C 690.886719 375.503906 695.820312 379.132812 696.933594 378.433594 C 697.703125 377.949219 695.964844 375.847656 696.933594 373.265625 C 697.949219 370.574219 700.710938 370.558594 703.058594 367.910156 C 703.339844 367.589844 705.808594 364.503906 705.734375 360.449219 C 705.726562 359.832031 705.640625 358.414062 703.25 353.5625 C 700.3125 347.605469 699.070312 346.964844 698.464844 344.183594 C 697.6875 340.597656 698.90625 337.742188 699.613281 335.578125 C 700.554688 332.6875 703.332031 331.082031 703.027344 328.046875 C 702.21875 319.972656 699.992188 310.5 698.082031 310.128906 C 696.601562 309.839844 693.203125 320.203125 686.414062 340.933594 " fill-opacity="1" fill-rule="nonzero"/><path fill="#ec7d40" d="M 687.847656 338.617188 C 687.320312 342.25 686.4375 346.84375 683.554688 351.320312 C 682.722656 352.617188 682.097656 353.320312 681.152344 353.726562 C 678.152344 355.015625 673.691406 352.542969 671.710938 349.261719 C 670.375 347.050781 670.382812 344.832031 670.507812 342.050781 C 671.050781 330.070312 674.296875 324.078125 677.089844 322.480469 C 681.285156 320.074219 685.898438 322.679688 688.363281 327.457031 C 689.226562 329.132812 688.765625 332.292969 687.847656 338.617188 " fill-opacity="1" fill-rule="nonzero"/><path fill="#f79556" d="M 668.792969 318.253906 C 667.402344 315.109375 663.90625 306.785156 672.367188 300.957031 C 677.46875 297.441406 684.066406 297.0625 689.289062 299.265625 C 695.675781 301.960938 698.265625 307.582031 698.875 309.042969 C 700.722656 313.441406 700.921875 318.917969 699.628906 321.828125 C 699.4375 322.253906 698.820312 323.152344 698.875 324.457031 C 699.253906 333.296875 692.902344 342.925781 692.109375 343.828125 C 691.070312 345 689.410156 345.101562 688.722656 345.140625 C 684.703125 345.382812 677.0625 341.371094 674.621094 335.550781 C 673.136719 332.011719 674.851562 331.417969 673.304688 326.902344 C 671.824219 322.582031 671.148438 323.570312 668.792969 318.253906 " fill-opacity="1" fill-rule="nonzero"/><path fill="#512618" d="M 680.101562 321.035156 C 678.253906 327.058594 676.039062 326.585938 673.9375 330.410156 C 671.527344 334.792969 673.5 338.617188 671.875 343.417969 C 670.789062 346.621094 667.855469 350.5 662.691406 350.882812 C 656.824219 351.316406 651.238281 345.644531 648.339844 348.011719 C 647.644531 348.582031 647.082031 349.675781 646.8125 349.542969 C 646.503906 349.390625 646.730469 347.761719 647.386719 346.671875 C 649.679688 342.847656 651.210938 343.804688 653.699219 341.699219 C 656.988281 338.914062 657.863281 335.972656 658.097656 334.808594 C 658.894531 330.910156 657.140625 329.644531 658.289062 325.628906 C 659.347656 321.925781 662.53125 321.269531 662.691406 315.871094 C 663.074219 303.050781 672.066406 294.058594 686.605469 296.355469 C 691.421875 297.117188 693.535156 298.886719 695.980469 300.945312 C 700.160156 304.46875 701.386719 312.421875 701.527344 315.488281 C 701.910156 323.90625 704.398438 323.332031 704.015625 328.113281 C 703.617188 333.0625 698.957031 336.542969 698.847656 341.503906 C 698.65625 350.308594 707.648438 349.925781 708.03125 359.109375 C 708.492188 370.203125 698.847656 370.207031 698.65625 376.519531 C 698.570312 379.367188 700.667969 381.550781 699.996094 382.066406 C 699.453125 382.484375 694.832031 379.195312 694.640625 375.945312 C 694.308594 370.277344 704.136719 368.234375 704.015625 361.019531 C 703.824219 349.925781 691.765625 347.191406 700.992188 330.601562 C 704.398438 324.476562 699.679688 324.070312 700.160156 319.679688 C 700.953125 312.425781 696.171875 312.234375 695.023438 306.878906 C 694.679688 305.277344 693.847656 302.933594 693.945312 305.527344 C 694.257812 314.148438 683.734375 309.171875 680.101562 321.035156 " fill-opacity="1" fill-rule="nonzero"/><path fill="#512618" d="M 651.753906 341.828125 C 652.222656 341.347656 652.691406 340.875 653.101562 340.351562 C 653.519531 339.839844 653.910156 339.308594 654.246094 338.75 C 654.917969 337.636719 655.449219 336.441406 655.699219 335.210938 C 655.761719 334.910156 655.796875 334.59375 655.84375 334.28125 C 655.867188 333.972656 655.902344 333.664062 655.898438 333.351562 C 655.90625 332.734375 655.851562 332.121094 655.753906 331.484375 C 655.652344 330.851562 655.523438 330.179688 655.460938 329.457031 C 655.394531 328.742188 655.390625 327.984375 655.5 327.253906 C 655.515625 327.070312 655.558594 326.894531 655.589844 326.710938 C 655.625 326.53125 655.65625 326.351562 655.703125 326.175781 L 655.835938 325.648438 C 655.886719 325.46875 655.953125 325.289062 656.011719 325.109375 C 656.265625 324.394531 656.621094 323.703125 657.035156 323.101562 C 657.441406 322.488281 657.878906 321.945312 658.277344 321.433594 C 658.683594 320.921875 659.023438 320.433594 659.304688 319.925781 C 659.878906 318.921875 660.160156 317.804688 660.257812 316.601562 L 660.296875 316.140625 L 660.339844 315.617188 C 660.367188 315.273438 660.390625 314.921875 660.4375 314.574219 C 660.507812 313.882812 660.625 313.191406 660.75 312.503906 C 661.023438 311.125 661.417969 309.773438 661.929688 308.457031 C 662.453125 307.148438 663.09375 305.875 663.875 304.691406 C 665.429688 302.320312 667.539062 300.292969 670 298.902344 C 672.457031 297.5 675.214844 296.734375 677.957031 296.5625 C 679.332031 296.488281 680.699219 296.515625 682.046875 296.675781 C 682.71875 296.777344 683.390625 296.859375 684.050781 297.007812 C 684.710938 297.136719 685.359375 297.316406 686.007812 297.492188 C 685.335938 297.460938 684.671875 297.386719 684.003906 297.378906 C 683.339844 297.34375 682.675781 297.355469 682.015625 297.363281 C 680.695312 297.410156 679.386719 297.527344 678.109375 297.773438 C 675.550781 298.238281 673.117188 299.164062 671.019531 300.566406 C 668.917969 301.960938 667.160156 303.816406 665.859375 305.957031 C 665.207031 307.023438 664.652344 308.15625 664.214844 309.335938 C 663.769531 310.515625 663.425781 311.734375 663.183594 312.980469 C 663.066406 313.605469 662.957031 314.234375 662.886719 314.867188 C 662.839844 315.179688 662.816406 315.5 662.789062 315.816406 L 662.746094 316.292969 L 662.691406 316.832031 L 662.632812 317.378906 C 662.601562 317.558594 662.566406 317.742188 662.53125 317.929688 C 662.492188 318.109375 662.472656 318.296875 662.417969 318.476562 L 662.265625 319.023438 C 662.21875 319.203125 662.144531 319.382812 662.078125 319.5625 C 662.007812 319.742188 661.949219 319.921875 661.867188 320.09375 L 661.617188 320.613281 C 661.535156 320.785156 661.429688 320.941406 661.335938 321.105469 C 660.945312 321.753906 660.488281 322.339844 660.046875 322.859375 C 659.605469 323.386719 659.183594 323.867188 658.824219 324.347656 C 658.453125 324.828125 658.175781 325.328125 657.949219 325.855469 C 657.894531 325.992188 657.835938 326.117188 657.785156 326.257812 L 657.644531 326.695312 C 657.59375 326.839844 657.558594 326.984375 657.523438 327.128906 C 657.488281 327.277344 657.441406 327.425781 657.417969 327.570312 C 657.292969 328.15625 657.246094 328.746094 657.25 329.359375 C 657.257812 329.972656 657.328125 330.625 657.367188 331.316406 C 657.410156 332.007812 657.414062 332.738281 657.324219 333.449219 C 657.292969 333.808594 657.214844 334.160156 657.148438 334.507812 C 657.054688 334.847656 656.988281 335.191406 656.867188 335.535156 C 655.925781 338.230469 654 340.378906 651.753906 341.828125 " fill-opacity="1" fill-rule="nonzero"/><path fill="#512618" d="M 713.097656 424.867188 L 661.507812 428.339844 C 660.828125 428.386719 660.59375 429.714844 661.15625 430.101562 L 678.714844 439.804688 C 679.414062 440.289062 680.269531 440.492188 681.113281 440.382812 L 734.144531 433.390625 C 734.882812 433.292969 735.003906 432.269531 734.304688 432 L 714.550781 425.082031 C 714.089844 424.902344 713.589844 424.832031 713.097656 424.867188 " fill-opacity="1" fill-rule="nonzero"/><path fill="#ffffff" d="M 712.839844 424.382812 L 661.730469 427.855469 C 661.054688 427.902344 660.8125 428.78125 661.375 429.164062 L 678.449219 438.390625 C 679.152344 438.875 680.003906 439.078125 680.847656 438.96875 L 733.882812 432.457031 C 734.621094 432.359375 734.742188 431.332031 734.042969 431.066406 L 714.296875 424.601562 C 713.832031 424.425781 713.335938 424.351562 712.839844 424.382812 " fill-opacity="1" fill-rule="nonzero"/><path fill="#f79556" d="M 640.171875 415.945312 C 638.964844 412.277344 652.222656 407.238281 655.238281 408.375 C 657.34375 409.171875 661.996094 414.21875 665.882812 416.421875 C 679.941406 424.382812 683.257812 420.34375 684.597656 426.644531 C 685.847656 432.519531 680.480469 433.578125 660.941406 428.542969 C 658.230469 427.84375 641.726562 420.6875 640.171875 415.945312 " fill-opacity="1" fill-rule="nonzero"/><path fill="#fccc44" d="M 655.699219 374.074219 C 654.070312 365.625 651.070312 347.746094 644.550781 352.152344 C 639.804688 355.355469 628.140625 377.53125 630.832031 391.761719 C 630.988281 394.613281 631.683594 397.683594 630.0625 401.246094 C 629.421875 402.65625 627.960938 404.730469 627.757812 407.144531 C 627.507812 410.140625 628.910156 412.484375 630.320312 414.835938 C 632.234375 418.023438 634.246094 421.378906 638.011719 422.269531 C 641.894531 423.1875 645.789062 422.078125 645.703125 421.5 C 645.632812 421.027344 642.902344 420.574219 642.371094 419.449219 C 641.859375 418.371094 644 417.0625 646.472656 413.296875 C 648.808594 409.734375 649.542969 409.199219 650.828125 407.910156 C 653.265625 405.476562 656.726562 407.65625 657.496094 407.65625 C 658.441406 407.65625 657.625 405.207031 657.496094 404.835938 C 656.683594 402.558594 654.199219 402.730469 653.136719 400.734375 C 652.855469 400.203125 652.546875 399.289062 653.394531 395.863281 C 654.359375 391.957031 654.550781 387.792969 655.1875 386.121094 C 656.390625 382.960938 656.84375 379.996094 655.699219 374.074219 " fill-opacity="1" fill-rule="nonzero"/><path fill="#ea9a26" d="M 634.421875 419.195312 C 634.542969 418.078125 634.71875 416.992188 634.898438 415.894531 C 634.988281 415.351562 635.089844 414.804688 635.203125 414.261719 L 635.285156 413.855469 C 635.308594 413.71875 635.339844 413.585938 635.382812 413.429688 C 635.421875 413.28125 635.464844 413.128906 635.515625 412.988281 C 635.566406 412.84375 635.609375 412.699219 635.671875 412.5625 C 636.132812 411.445312 636.789062 410.476562 637.496094 409.574219 C 638.210938 408.679688 638.996094 407.855469 639.816406 407.082031 C 640.640625 406.308594 641.503906 405.589844 642.40625 404.914062 C 642.859375 404.578125 643.316406 404.25 643.792969 403.941406 C 644.269531 403.632812 644.746094 403.335938 645.285156 403.0625 L 645.503906 402.957031 C 645.585938 402.921875 645.675781 402.882812 645.746094 402.863281 C 645.890625 402.816406 646.039062 402.765625 646.183594 402.730469 C 646.476562 402.648438 646.769531 402.589844 647.058594 402.542969 C 647.632812 402.457031 648.199219 402.414062 648.761719 402.394531 C 649.890625 402.375 650.996094 402.414062 652.109375 402.527344 C 651.035156 402.835938 649.945312 403.046875 648.890625 403.320312 C 648.363281 403.453125 647.84375 403.59375 647.351562 403.757812 C 647.105469 403.847656 646.863281 403.929688 646.636719 404.035156 C 646.519531 404.082031 646.410156 404.132812 646.304688 404.191406 C 646.242188 404.21875 646.210938 404.242188 646.167969 404.265625 L 646.023438 404.359375 C 645.195312 404.933594 644.335938 405.632812 643.519531 406.320312 C 642.695312 407.011719 641.886719 407.722656 641.101562 408.457031 C 640.316406 409.183594 639.5625 409.941406 638.851562 410.71875 C 638.152344 411.507812 637.480469 412.316406 636.984375 413.191406 C 636.859375 413.40625 636.742188 413.625 636.652344 413.847656 C 636.601562 413.953125 636.554688 414.082031 636.507812 414.210938 L 636.359375 414.597656 L 635.757812 416.136719 C 635.34375 417.164062 634.925781 418.195312 634.421875 419.195312 " fill-opacity="1" fill-rule="nonzero"/><path fill="#512618" d="M 747.789062 388.582031 L 691.234375 391.996094 C 689.710938 392.085938 688.433594 393.175781 688.09375 394.660156 L 678.414062 437.21875 C 678.152344 438.363281 679.117188 440.382812 680.285156 440.234375 L 736.191406 433.261719 C 737.546875 433.089844 738.667969 431.171875 739.046875 429.859375 L 750.476562 390.738281 C 750.804688 389.613281 748.957031 388.507812 747.789062 388.582031 " fill-opacity="1" fill-rule="nonzero"/><path fill="#ffffff" d="M 748.753906 389.535156 L 692.199219 392.953125 C 690.679688 393.042969 689.398438 394.128906 689.0625 395.617188 L 679.382812 438.171875 C 679.121094 439.320312 680.078125 440.375 681.246094 440.226562 L 736.191406 433.261719 C 737.546875 433.089844 738.671875 432.132812 739.054688 430.824219 L 750.480469 391.703125 C 750.8125 390.578125 749.925781 389.464844 748.753906 389.535156 " fill-opacity="1" fill-rule="nonzero"/><path fill="#ea9a26" d="M 658.1875 407.675781 C 658.1875 407.117188 658.007812 406.585938 657.828125 406.070312 C 657.640625 405.542969 657.433594 405.046875 657.105469 404.644531 C 656.457031 403.816406 655.492188 403.332031 654.535156 402.679688 C 654.058594 402.351562 653.585938 401.953125 653.199219 401.449219 C 653.101562 401.324219 653.011719 401.191406 652.929688 401.054688 L 652.816406 400.867188 C 652.777344 400.796875 652.734375 400.714844 652.695312 400.632812 C 652.535156 400.277344 652.492188 399.910156 652.480469 399.59375 C 652.457031 398.953125 652.542969 398.378906 652.632812 397.808594 C 652.71875 397.238281 652.835938 396.6875 652.949219 396.132812 L 653.640625 392.878906 C 653.863281 391.792969 654.074219 390.710938 654.261719 389.621094 C 654.65625 387.453125 654.996094 385.28125 655.167969 383.109375 C 655.269531 382.019531 655.320312 380.941406 655.316406 379.863281 C 655.320312 378.785156 655.238281 377.738281 655.0625 376.703125 C 654.691406 374.507812 654.269531 372.335938 653.851562 370.160156 C 653.410156 367.992188 652.953125 365.828125 652.382812 363.691406 C 651.820312 361.550781 651.171875 359.433594 650.230469 357.402344 C 651.539062 359.230469 652.445312 361.320312 653.261719 363.40625 C 654.050781 365.511719 654.714844 367.660156 655.285156 369.828125 C 655.875 371.988281 656.339844 374.183594 656.8125 376.363281 C 657.292969 378.6875 657.230469 381.007812 657.050781 383.269531 C 656.832031 385.53125 656.472656 387.761719 656.015625 389.964844 C 655.535156 392.160156 655.003906 394.34375 654.382812 396.488281 C 654.234375 397.015625 654.089844 397.542969 653.96875 398.066406 C 653.851562 398.589844 653.75 399.121094 653.71875 399.59375 C 653.703125 399.832031 653.714844 400.027344 653.769531 400.191406 C 653.785156 400.238281 653.804688 400.28125 653.828125 400.335938 L 653.914062 400.511719 C 653.964844 400.617188 654.023438 400.722656 654.085938 400.824219 C 654.339844 401.234375 654.699219 401.597656 655.101562 401.945312 C 655.503906 402.300781 655.953125 402.636719 656.386719 403.019531 C 656.820312 403.398438 657.242188 403.832031 657.539062 404.351562 C 657.847656 404.871094 657.992188 405.449219 658.097656 405.996094 C 658.195312 406.546875 658.292969 407.121094 658.1875 407.675781 " fill-opacity="1" fill-rule="nonzero"/><path fill="#512618" d="M 695.066406 300.433594 C 695.773438 300.957031 696.453125 301.542969 697.027344 302.230469 C 697.625 302.894531 698.125 303.644531 698.605469 304.398438 C 698.835938 304.78125 699.058594 305.171875 699.269531 305.570312 C 699.460938 305.972656 699.679688 306.367188 699.855469 306.777344 C 700.039062 307.1875 700.222656 307.597656 700.382812 308.015625 C 700.554688 308.429688 700.703125 308.851562 700.855469 309.273438 C 701.011719 309.695312 701.132812 310.128906 701.269531 310.554688 C 701.390625 310.988281 701.523438 311.417969 701.625 311.855469 C 701.851562 312.730469 702.03125 313.613281 702.160156 314.527344 C 702.40625 316.242188 702.695312 317.933594 703.238281 319.503906 C 703.5 320.296875 703.828125 321.035156 704.21875 321.800781 L 704.515625 322.386719 C 704.613281 322.597656 704.71875 322.792969 704.8125 323.019531 C 704.910156 323.242188 705.011719 323.457031 705.09375 323.703125 L 705.21875 324.054688 L 705.320312 324.421875 C 705.394531 324.664062 705.4375 324.914062 705.484375 325.160156 C 705.535156 325.410156 705.554688 325.65625 705.578125 325.902344 L 705.613281 326.269531 L 705.621094 326.632812 C 705.621094 326.875 705.644531 327.109375 705.621094 327.355469 L 705.566406 328.101562 C 705.546875 328.351562 705.492188 328.589844 705.457031 328.832031 L 705.390625 329.195312 C 705.367188 329.316406 705.332031 329.433594 705.304688 329.550781 C 705.238281 329.785156 705.183594 330.023438 705.113281 330.25 C 704.828125 331.167969 704.457031 332.027344 704.066406 332.851562 C 703.671875 333.671875 703.265625 334.460938 702.886719 335.230469 C 702.511719 336.003906 702.140625 336.761719 701.871094 337.515625 C 701.789062 337.703125 701.742188 337.894531 701.679688 338.082031 C 701.621094 338.273438 701.554688 338.460938 701.519531 338.648438 L 701.390625 339.214844 L 701.316406 339.777344 C 701.28125 339.964844 701.289062 340.152344 701.28125 340.339844 C 701.28125 340.527344 701.253906 340.707031 701.277344 340.90625 L 701.3125 341.496094 L 701.390625 342.074219 C 701.511719 342.839844 701.734375 343.570312 702.058594 344.261719 C 702.375 344.953125 702.796875 345.605469 703.304688 346.222656 C 703.8125 346.839844 704.402344 347.421875 705.023438 348.007812 C 706.261719 349.179688 707.6875 350.332031 708.871094 351.855469 C 709.460938 352.613281 709.976562 353.460938 710.347656 354.375 C 710.714844 355.292969 710.933594 356.257812 711.023438 357.21875 C 711.039062 357.457031 711.066406 357.699219 711.070312 357.933594 L 711.078125 358.625 C 711.085938 358.859375 711.070312 359.089844 711.058594 359.320312 C 711.042969 359.554688 711.042969 359.785156 711.015625 360.015625 C 710.9375 360.945312 710.773438 361.875 710.511719 362.773438 C 710.253906 363.675781 709.890625 364.554688 709.421875 365.363281 C 708.960938 366.175781 708.40625 366.925781 707.800781 367.613281 C 706.585938 368.980469 705.1875 370.082031 703.949219 371.28125 C 703.335938 371.886719 702.769531 372.539062 702.355469 373.285156 C 701.941406 374.035156 701.703125 374.886719 701.648438 375.769531 C 701.558594 374.886719 701.691406 373.976562 702.015625 373.125 C 702.355469 372.285156 702.878906 371.523438 703.4375 370.820312 C 704 370.121094 704.617188 369.476562 705.203125 368.828125 C 705.789062 368.179688 706.359375 367.53125 706.855469 366.84375 C 707.867188 365.484375 708.597656 363.980469 708.933594 362.367188 C 709.101562 361.5625 709.199219 360.746094 709.21875 359.914062 C 709.230469 359.710938 709.21875 359.5 709.21875 359.289062 C 709.214844 359.085938 709.21875 358.875 709.199219 358.667969 L 709.15625 358.042969 C 709.140625 357.835938 709.109375 357.644531 709.085938 357.445312 C 708.867188 355.859375 708.203125 354.445312 707.167969 353.226562 C 706.132812 352.003906 704.789062 350.945312 703.433594 349.746094 C 702.757812 349.148438 702.085938 348.496094 701.460938 347.765625 C 700.835938 347.035156 700.273438 346.210938 699.84375 345.3125 C 699.410156 344.410156 699.117188 343.445312 698.957031 342.472656 L 698.855469 341.742188 C 698.835938 341.5 698.820312 341.257812 698.804688 341.015625 C 698.78125 340.777344 698.804688 340.515625 698.804688 340.265625 C 698.8125 340.011719 698.808594 339.757812 698.851562 339.511719 L 698.957031 338.765625 L 699.121094 338.046875 C 699.171875 337.800781 699.25 337.574219 699.324219 337.34375 C 699.402344 337.113281 699.464844 336.878906 699.558594 336.660156 L 699.820312 336 C 699.910156 335.78125 700.007812 335.574219 700.101562 335.363281 C 700.289062 334.9375 700.496094 334.535156 700.699219 334.132812 C 701.113281 333.332031 701.523438 332.566406 701.90625 331.804688 C 702.28125 331.042969 702.617188 330.289062 702.878906 329.53125 C 702.945312 329.34375 702.992188 329.152344 703.046875 328.964844 L 703.132812 328.679688 L 703.1875 328.394531 C 703.21875 328.203125 703.273438 328.015625 703.292969 327.824219 L 703.347656 327.253906 C 703.390625 326.460938 703.371094 325.667969 703.207031 324.949219 C 703.050781 324.230469 702.714844 323.515625 702.34375 322.6875 C 701.972656 321.863281 701.625 320.972656 701.382812 320.078125 L 701.285156 319.742188 L 701.207031 319.402344 L 701.050781 318.730469 C 700.976562 318.28125 700.882812 317.828125 700.820312 317.378906 C 700.765625 316.929688 700.695312 316.480469 700.65625 316.03125 L 700.546875 314.6875 C 700.492188 313.855469 700.371094 313 700.226562 312.152344 C 700.160156 311.726562 700.066406 311.308594 699.988281 310.882812 C 699.890625 310.464844 699.804688 310.039062 699.695312 309.621094 C 699.28125 307.945312 698.730469 306.296875 698.003906 304.722656 C 697.628906 303.945312 697.230469 303.167969 696.734375 302.457031 C 696.269531 301.714844 695.683594 301.066406 695.066406 300.433594 " fill-opacity="1" fill-rule="nonzero"/><path fill="#d65b5b" d="M 684.972656 337.453125 C 684.882812 337.300781 684.984375 337.113281 685.160156 337.101562 C 685.90625 337.054688 687.726562 336.984375 689.789062 337.191406 C 691.207031 337.335938 692.53125 337.699219 693.082031 337.863281 C 693.226562 337.910156 693.289062 338.078125 693.214844 338.207031 C 692.824219 338.886719 691.554688 340.652344 689.035156 340.371094 C 686.769531 340.117188 685.429688 338.222656 684.972656 337.453125 " fill-opacity="1" fill-rule="nonzero"/><path fill="#512618" d="M 694.847656 321.433594 C 695.011719 321.011719 695.277344 320.664062 695.585938 320.359375 C 695.890625 320.050781 696.25 319.800781 696.636719 319.601562 C 697.417969 319.1875 698.355469 319.183594 699.210938 319.273438 C 699.425781 319.296875 699.640625 319.316406 699.851562 319.367188 L 700.164062 319.429688 C 700.273438 319.457031 700.390625 319.496094 700.5 319.53125 C 700.933594 319.691406 701.308594 319.941406 701.628906 320.222656 C 702.265625 320.785156 702.703125 321.476562 703.152344 322.097656 L 703.050781 322.207031 C 702.714844 321.96875 702.433594 321.695312 702.132812 321.457031 C 701.832031 321.214844 701.519531 321 701.199219 320.828125 C 700.882812 320.65625 700.554688 320.53125 700.230469 320.484375 L 699.992188 320.457031 L 699.726562 320.449219 C 699.546875 320.4375 699.371094 320.457031 699.195312 320.464844 C 699.019531 320.472656 698.84375 320.515625 698.675781 320.546875 C 698.503906 320.597656 698.335938 320.632812 698.171875 320.699219 C 697.839844 320.800781 697.519531 320.910156 697.175781 320.988281 L 696.121094 321.261719 C 695.753906 321.359375 695.375 321.457031 694.945312 321.542969 L 694.847656 321.433594 " fill-opacity="1" fill-rule="nonzero"/><path fill="#512618" d="M 678.425781 318.867188 C 679.222656 318.273438 680.144531 317.847656 681.125 317.546875 C 682.113281 317.257812 683.175781 317.160156 684.242188 317.277344 C 684.511719 317.300781 684.773438 317.359375 685.042969 317.386719 C 685.3125 317.4375 685.578125 317.5 685.847656 317.5625 C 686.375 317.710938 686.875 317.964844 687.296875 318.316406 C 688.136719 319.011719 688.789062 319.949219 688.9375 321.058594 L 688.78125 321.175781 C 687.789062 320.71875 687.019531 320.292969 686.242188 319.929688 C 685.855469 319.746094 685.492188 319.550781 685.125 319.332031 C 684.941406 319.234375 684.75 319.121094 684.558594 319.023438 C 684.359375 318.945312 684.160156 318.851562 683.949219 318.796875 C 683.53125 318.675781 683.097656 318.578125 682.652344 318.542969 C 682.207031 318.484375 681.75 318.472656 681.289062 318.5 C 680.363281 318.527344 679.429688 318.730469 678.515625 319.039062 L 678.425781 318.867188 " fill-opacity="1" fill-rule="nonzero"/><path fill="#e6e6e6" d="M 681.828125 323.847656 C 681.839844 324.101562 682.636719 324.835938 684.933594 324.738281 C 685.953125 324.695312 686.960938 324.394531 686.941406 323.886719 C 686.917969 323.398438 686.230469 322.527344 685.34375 322.421875 C 683.804688 322.230469 681.808594 323.335938 681.828125 323.847656 " fill-opacity="1" fill-rule="nonzero"/><path fill="#512618" d="M 683.582031 323.199219 C 684.105469 321.851562 686.511719 322.304688 686.035156 324.128906 C 685.5625 325.957031 682.738281 325.363281 683.582031 323.199219 " fill-opacity="1" fill-rule="nonzero"/><path fill="#512618" d="M 687.1875 324.265625 C 686.914062 324 686.65625 323.785156 686.382812 323.660156 C 686.117188 323.535156 685.851562 323.484375 685.574219 323.472656 C 685.019531 323.445312 684.40625 323.5625 683.765625 323.675781 C 683.121094 323.792969 682.441406 323.925781 681.707031 323.957031 C 681.339844 323.96875 680.957031 323.957031 680.570312 323.859375 C 680.375 323.8125 680.175781 323.730469 680.007812 323.617188 C 679.835938 323.5 679.699219 323.328125 679.644531 323.148438 C 679.820312 323.230469 679.980469 323.257812 680.132812 323.253906 C 680.292969 323.238281 680.4375 323.21875 680.59375 323.175781 C 680.894531 323.101562 681.199219 322.992188 681.515625 322.878906 C 682.140625 322.660156 682.800781 322.4375 683.515625 322.308594 C 684.226562 322.1875 685.023438 322.125 685.828125 322.414062 C 686.222656 322.558594 686.597656 322.816406 686.839844 323.15625 C 687.082031 323.5 687.191406 323.890625 687.1875 324.265625 " fill-opacity="1" fill-rule="nonzero"/><path fill="#e6e6e6" d="M 695.246094 325.011719 C 695.253906 325.242188 695.867188 325.902344 697.621094 325.828125 C 698.402344 325.792969 698.765625 325.394531 698.746094 324.9375 C 698.726562 324.5 698.601562 323.851562 697.925781 323.75 C 696.746094 323.570312 695.226562 324.554688 695.246094 325.011719 " fill-opacity="1" fill-rule="nonzero"/><path fill="#512618" d="M 696.691406 324.515625 C 697.132812 323.378906 699.160156 323.765625 698.761719 325.300781 C 698.363281 326.839844 695.980469 326.34375 696.691406 324.515625 " fill-opacity="1" fill-rule="nonzero"/><path fill="#512618" d="M 699.910156 325.109375 C 699.648438 324.964844 699.425781 324.820312 699.199219 324.722656 C 698.976562 324.625 698.769531 324.570312 698.574219 324.554688 C 698.195312 324.523438 697.816406 324.625 697.359375 324.773438 C 696.90625 324.914062 696.410156 325.105469 695.828125 325.199219 C 695.539062 325.238281 695.21875 325.257812 694.898438 325.175781 C 694.582031 325.09375 694.285156 324.886719 694.167969 324.613281 C 694.464844 324.675781 694.699219 324.640625 694.910156 324.566406 C 695.121094 324.492188 695.324219 324.382812 695.535156 324.265625 C 695.960938 324.039062 696.425781 323.769531 696.980469 323.589844 C 697.261719 323.503906 697.5625 323.4375 697.894531 323.429688 C 698.21875 323.417969 698.574219 323.480469 698.882812 323.632812 C 699.191406 323.785156 699.4375 324.019531 699.609375 324.273438 C 699.777344 324.535156 699.871094 324.816406 699.910156 325.109375 " fill-opacity="1" fill-rule="nonzero"/><path fill="#512618" d="M 757.339844 536.117188 C 758.066406 535.59375 758.78125 535.1875 759.488281 534.78125 L 761.578125 533.59375 C 762.269531 533.203125 762.957031 532.8125 763.632812 532.398438 C 764.316406 531.980469 764.988281 531.582031 765.667969 531.011719 C 765.628906 531.464844 765.441406 531.890625 765.222656 532.28125 C 764.996094 532.667969 764.726562 533.03125 764.421875 533.351562 C 763.820312 534 763.113281 534.53125 762.355469 534.960938 C 761.59375 535.390625 760.785156 535.71875 759.941406 535.925781 C 759.097656 536.128906 758.226562 536.226562 757.339844 536.117188 " fill-opacity="1" fill-rule="nonzero"/><path fill="#fccc44" d="M 875.453125 376.445312 L 867.425781 334.101562 C 867.320312 333.539062 866.824219 333.128906 866.25 333.128906 L 827.542969 333.128906 C 826.96875 333.128906 826.476562 333.539062 826.367188 334.101562 L 818.34375 376.445312 C 818.203125 377.179688 818.769531 377.859375 819.519531 377.859375 L 874.277344 377.859375 C 875.027344 377.859375 875.589844 377.179688 875.453125 376.445312 " fill-opacity="1" fill-rule="nonzero"/><path fill="#312553" d="M 849.152344 390.746094 C 848.65625 386.082031 851.640625 381.738281 852.503906 380.585938 C 852.597656 380.464844 852.507812 380.289062 852.355469 380.289062 L 841.441406 380.289062 C 841.285156 380.289062 841.203125 380.464844 841.292969 380.585938 C 842.160156 381.738281 845.140625 386.082031 844.644531 390.746094 C 843.644531 400.15625 835.753906 408.503906 835.753906 416.125 C 835.753906 419.675781 837.640625 425.214844 838.242188 427.117188 C 838.339844 427.429688 838.628906 427.640625 838.953125 427.640625 L 854.839844 427.640625 C 855.167969 427.640625 855.457031 427.429688 855.558594 427.117188 C 856.15625 425.214844 858.042969 419.675781 858.042969 416.125 C 858.042969 408.503906 850.152344 400.15625 849.152344 390.746094 " fill-opacity="1" fill-rule="nonzero"/><path fill="#ffbcb0" d="M 846.691406 415.640625 C 845.5 418.417969 843 420.324219 841.15625 421.265625 C 841.789062 418.28125 842.300781 414.628906 842.503906 410.800781 C 843.015625 410.535156 843.710938 410.359375 844.675781 410.53125 C 845.574219 410.699219 846.234375 411.152344 846.628906 411.886719 C 847.265625 413.070312 847.109375 414.660156 846.691406 415.640625 Z M 848.136719 411.074219 C 847.488281 409.878906 846.398438 409.109375 844.976562 408.851562 C 844.023438 408.679688 843.226562 408.757812 842.574219 408.941406 C 842.597656 408.105469 842.601562 407.261719 842.589844 406.421875 C 842.585938 406.292969 842.484375 406.191406 842.355469 406.191406 L 824.878906 406.191406 C 824.753906 406.191406 824.648438 406.292969 824.644531 406.421875 C 824.511719 415.339844 826.382812 424.3125 827.964844 427.390625 C 828.046875 427.542969 828.203125 427.640625 828.375 427.640625 L 838.863281 427.640625 C 839.035156 427.640625 839.191406 427.542969 839.269531 427.390625 C 839.734375 426.492188 840.21875 425.085938 840.675781 423.328125 C 842.878906 422.53125 846.589844 420.210938 848.257812 416.3125 C 848.855469 414.925781 849.046875 412.769531 848.136719 411.074219 " fill-opacity="1" fill-rule="nonzero"/><path fill="#346e00" d="M 876.503906 402.042969 C 873.683594 397.828125 875.8125 390.351562 882.574219 386.90625 C 884.164062 386.097656 886.3125 384.550781 887.03125 382.40625 C 887.234375 381.789062 887.050781 381.238281 887.210938 381.25 C 887.40625 381.261719 887.46875 382.59375 887.480469 382.953125 C 887.601562 385.714844 886.992188 387.984375 886.730469 389.292969 C 885.871094 393.628906 887.28125 399.335938 883.34375 403.203125 C 880.511719 405.988281 877.910156 404.136719 876.503906 402.042969 " fill-opacity="1" fill-rule="nonzero"/><path fill="#346e00" d="M 870.449219 385.105469 C 870.597656 385.121094 870.265625 385.3125 870.417969 385.800781 C 870.632812 386.488281 871.203125 386.898438 871.550781 387.277344 C 872.796875 388.640625 873.074219 390.394531 872.988281 392.183594 C 872.921875 393.492188 871.921875 395.386719 870.988281 394.730469 C 866.511719 391.589844 869.605469 387.121094 869.96875 386.339844 C 870.414062 385.382812 870.253906 385.089844 870.449219 385.105469 " fill-opacity="1" fill-rule="nonzero"/><path fill="#7ca417" d="M 874.53125 408.933594 C 876.632812 406.855469 873.859375 395.15625 864.371094 389.386719 C 863.390625 388.789062 861.785156 387.660156 861.484375 387.890625 C 861.332031 388.003906 862.367188 388.195312 862.054688 389.183594 C 858.632812 400.085938 870.082031 400.085938 870.671875 407.058594 C 870.84375 409.117188 873.347656 410.101562 874.53125 408.933594 " fill-opacity="1" fill-rule="nonzero"/><path fill="#7ca417" d="M 897.953125 390.5 C 897.328125 391.078125 895.40625 390.851562 893.605469 391.640625 C 891.925781 392.378906 891.203125 394.050781 890.460938 396.453125 C 889.183594 400.578125 885.546875 406.886719 880.453125 406.929688 C 872.207031 407.003906 879.667969 397.636719 887.035156 392.574219 C 890.21875 390.382812 894.597656 390.34375 896.5625 390.320312 C 897.726562 390.300781 898.246094 390.230469 897.953125 390.5 " fill-opacity="1" fill-rule="nonzero"/><path fill="#7ca417" d="M 875.824219 381.316406 C 876.453125 381.015625 875.613281 383.507812 878.757812 386.703125 C 885.464844 393.515625 884.082031 407.28125 877.054688 407.972656 C 874.261719 408.25 863.878906 397.132812 875.074219 384.113281 C 876.394531 382.574219 875.589844 381.425781 875.824219 381.316406 " fill-opacity="1" fill-rule="nonzero"/><path fill="#9fbc50" d="M 883.324219 391.699219 C 883.363281 391.21875 885.035156 396.152344 885.234375 398.566406 C 885.664062 403.800781 884.992188 406.679688 882.957031 408.859375 C 880.589844 411.398438 876.570312 412.4375 874.1875 410.15625 C 872.058594 408.117188 871.9375 404.496094 873.78125 401.972656 C 875.09375 400.175781 875.542969 400.101562 879.167969 396.246094 C 881.40625 393.863281 883.136719 393.914062 883.324219 391.699219 " fill-opacity="1" fill-rule="nonzero"/><path fill="#eb9e94" d="M 888.136719 408.035156 C 888.078125 407.375 887.527344 406.867188 886.867188 406.867188 L 868.988281 406.867188 C 868.324219 406.867188 867.777344 407.375 867.71875 408.035156 L 866.925781 416.996094 L 866.925781 418.28125 C 866.925781 423.160156 870.878906 427.5625 875.761719 427.5625 L 880.09375 427.5625 C 884.972656 427.5625 888.929688 423.160156 888.929688 418.28125 L 888.929688 416.996094 L 888.136719 408.035156 " fill-opacity="1" fill-rule="nonzero"/><path fill="#512618" d="M 900.398438 555.488281 L 898.328125 555.488281 C 897.867188 555.488281 897.460938 555.179688 897.339844 554.730469 L 868.71875 433.21875 C 868.421875 432.144531 869.230469 431.082031 870.34375 431.082031 L 874.648438 431.082031 C 875.425781 431.082031 876.101562 431.609375 876.289062 432.363281 L 901.394531 554.210938 C 901.558594 554.859375 901.066406 555.488281 900.398438 555.488281 " fill-opacity="1" fill-rule="nonzero"/><path fill="#93582f" d="M 874.996094 555.488281 L 872.929688 555.488281 C 872.464844 555.488281 872.0625 555.179688 871.933594 554.730469 L 859.867188 433.21875 C 859.570312 432.144531 860.378906 431.082031 861.492188 431.082031 L 865.796875 431.082031 C 866.574219 431.082031 867.25 431.609375 867.433594 432.363281 L 875.996094 554.210938 C 876.15625 554.859375 875.664062 555.488281 874.996094 555.488281 " fill-opacity="1" fill-rule="nonzero"/><path fill="#512618" d="M 809.792969 555.488281 L 811.863281 555.488281 C 812.324219 555.488281 812.730469 555.179688 812.851562 554.730469 L 846.527344 433.21875 C 846.824219 432.144531 846.015625 431.082031 844.902344 431.082031 L 840.597656 431.082031 C 839.820312 431.082031 839.144531 431.609375 838.957031 432.363281 L 808.796875 554.210938 C 808.632812 554.859375 809.125 555.488281 809.792969 555.488281 " fill-opacity="1" fill-rule="nonzero"/><path fill="#93582f" d="M 811.464844 433.78125 L 899.171875 433.78125 C 899.644531 433.78125 900.023438 433.402344 900.023438 432.933594 L 900.023438 428.769531 C 900.023438 428.300781 899.644531 427.921875 899.171875 427.921875 L 811.464844 427.921875 C 810.75 427.921875 810.171875 428.5 810.171875 429.214844 L 810.171875 432.488281 C 810.171875 433.207031 810.75 433.78125 811.464844 433.78125 " fill-opacity="1" fill-rule="nonzero"/></svg>